G04 #@! TF.FileFunction,Soldermask,Top*
%FSLAX46Y46*%
G04 Gerber Fmt 4.6, Leading zero omitted, Abs format (unit mm)*
G04 Created by KiCad (PCBNEW 4.0.0-stable) date 3/18/2016 10:57:14 AM*
%MOMM*%
G01*
G04 APERTURE LIST*
%ADD10C,0.100000*%
%ADD11C,2.900000*%
%ADD12R,2.900000X1.400000*%
%ADD13R,1.924000X2.224000*%
%ADD14O,1.924000X2.224000*%
%ADD15R,2.400000X2.400000*%
%ADD16R,1.700000X2.400000*%
%ADD17R,2.432000X2.127200*%
%ADD18O,2.432000X2.127200*%
%ADD19R,2.400000X2.000000*%
G04 APERTURE END LIST*
D10*
D11*
X66040000Y-104140000D03*
X210820000Y-104140000D03*
X205740000Y-68580000D03*
X73660000Y-68580000D03*
D12*
X89610000Y-82550000D03*
X89610000Y-80010000D03*
X89610000Y-77470000D03*
X83110000Y-77470000D03*
X83110000Y-80010000D03*
X83110000Y-82550000D03*
X104850000Y-82550000D03*
X104850000Y-80010000D03*
X104850000Y-77470000D03*
X98350000Y-77470000D03*
X98350000Y-80010000D03*
X98350000Y-82550000D03*
X135330000Y-82550000D03*
X135330000Y-80010000D03*
X135330000Y-77470000D03*
X128830000Y-77470000D03*
X128830000Y-80010000D03*
X128830000Y-82550000D03*
X120090000Y-82550000D03*
X120090000Y-80010000D03*
X120090000Y-77470000D03*
X113590000Y-77470000D03*
X113590000Y-80010000D03*
X113590000Y-82550000D03*
X150570000Y-82550000D03*
X150570000Y-80010000D03*
X150570000Y-77470000D03*
X144070000Y-77470000D03*
X144070000Y-80010000D03*
X144070000Y-82550000D03*
X165810000Y-82550000D03*
X165810000Y-80010000D03*
X165810000Y-77470000D03*
X159310000Y-77470000D03*
X159310000Y-80010000D03*
X159310000Y-82550000D03*
X196290000Y-82550000D03*
X196290000Y-80010000D03*
X196290000Y-77470000D03*
X189790000Y-77470000D03*
X189790000Y-80010000D03*
X189790000Y-82550000D03*
X181050000Y-82550000D03*
X181050000Y-80010000D03*
X181050000Y-77470000D03*
X174550000Y-77470000D03*
X174550000Y-80010000D03*
X174550000Y-82550000D03*
D13*
X88900000Y-91440000D03*
D14*
X88900000Y-99060000D03*
X86360000Y-91440000D03*
X86360000Y-99060000D03*
X83820000Y-91440000D03*
X83820000Y-99060000D03*
D13*
X104140000Y-91440000D03*
D14*
X104140000Y-99060000D03*
X101600000Y-91440000D03*
X101600000Y-99060000D03*
X99060000Y-91440000D03*
X99060000Y-99060000D03*
D13*
X134620000Y-91440000D03*
D14*
X134620000Y-99060000D03*
X132080000Y-91440000D03*
X132080000Y-99060000D03*
X129540000Y-91440000D03*
X129540000Y-99060000D03*
D13*
X119380000Y-91440000D03*
D14*
X119380000Y-99060000D03*
X116840000Y-91440000D03*
X116840000Y-99060000D03*
X114300000Y-91440000D03*
X114300000Y-99060000D03*
D13*
X149860000Y-91440000D03*
D14*
X149860000Y-99060000D03*
X147320000Y-91440000D03*
X147320000Y-99060000D03*
X144780000Y-91440000D03*
X144780000Y-99060000D03*
D13*
X165100000Y-91440000D03*
D14*
X165100000Y-99060000D03*
X162560000Y-91440000D03*
X162560000Y-99060000D03*
X160020000Y-91440000D03*
X160020000Y-99060000D03*
D13*
X195580000Y-91440000D03*
D14*
X195580000Y-99060000D03*
X193040000Y-91440000D03*
X193040000Y-99060000D03*
X190500000Y-91440000D03*
X190500000Y-99060000D03*
D13*
X180340000Y-91440000D03*
D14*
X180340000Y-99060000D03*
X177800000Y-91440000D03*
X177800000Y-99060000D03*
X175260000Y-91440000D03*
X175260000Y-99060000D03*
D15*
X86360000Y-66580000D03*
D16*
X85360000Y-70580000D03*
X87360000Y-70580000D03*
D15*
X177800000Y-66580000D03*
D16*
X176800000Y-70580000D03*
X178800000Y-70580000D03*
D15*
X193040000Y-66580000D03*
D16*
X192040000Y-70580000D03*
X194040000Y-70580000D03*
D15*
X162560000Y-66580000D03*
D16*
X161560000Y-70580000D03*
X163560000Y-70580000D03*
D15*
X147320000Y-66580000D03*
D16*
X146320000Y-70580000D03*
X148320000Y-70580000D03*
D15*
X132080000Y-66580000D03*
D16*
X131080000Y-70580000D03*
X133080000Y-70580000D03*
D15*
X101600000Y-66580000D03*
D16*
X100600000Y-70580000D03*
X102600000Y-70580000D03*
D17*
X212090000Y-69850000D03*
D18*
X212090000Y-72390000D03*
X212090000Y-74930000D03*
X212090000Y-77470000D03*
X212090000Y-80010000D03*
X212090000Y-82550000D03*
X212090000Y-85090000D03*
X212090000Y-87630000D03*
X212090000Y-90170000D03*
X212090000Y-92710000D03*
D17*
X66040000Y-69850000D03*
D18*
X66040000Y-72390000D03*
X66040000Y-74930000D03*
X66040000Y-77470000D03*
X66040000Y-80010000D03*
X66040000Y-82550000D03*
X66040000Y-85090000D03*
X66040000Y-87630000D03*
X66040000Y-90170000D03*
X66040000Y-92710000D03*
D19*
X175800000Y-74930000D03*
X179800000Y-74930000D03*
X179800000Y-85090000D03*
X175800000Y-85090000D03*
X175800000Y-87630000D03*
X179800000Y-87630000D03*
X191040000Y-74930000D03*
X195040000Y-74930000D03*
X195040000Y-85090000D03*
X191040000Y-85090000D03*
X191040000Y-87630000D03*
X195040000Y-87630000D03*
X160560000Y-74930000D03*
X164560000Y-74930000D03*
X164560000Y-85090000D03*
X160560000Y-85090000D03*
X160560000Y-87630000D03*
X164560000Y-87630000D03*
X145320000Y-74930000D03*
X149320000Y-74930000D03*
X149320000Y-85090000D03*
X145320000Y-85090000D03*
X145320000Y-87630000D03*
X149320000Y-87630000D03*
X114840000Y-74930000D03*
X118840000Y-74930000D03*
X118840000Y-85090000D03*
X114840000Y-85090000D03*
X114840000Y-87630000D03*
X118840000Y-87630000D03*
X130080000Y-74930000D03*
X134080000Y-74930000D03*
X134080000Y-85090000D03*
X130080000Y-85090000D03*
X130080000Y-87630000D03*
X134080000Y-87630000D03*
X99600000Y-74930000D03*
X103600000Y-74930000D03*
X103600000Y-85090000D03*
X99600000Y-85090000D03*
X99600000Y-87630000D03*
X103600000Y-87630000D03*
X84360000Y-74930000D03*
X88360000Y-74930000D03*
X88360000Y-85090000D03*
X84360000Y-85090000D03*
X84360000Y-87630000D03*
X88360000Y-87630000D03*
D15*
X116840000Y-66580000D03*
D16*
X115840000Y-70580000D03*
X117840000Y-70580000D03*
D15*
X116840000Y-66580000D03*
D16*
X115840000Y-70580000D03*
X117840000Y-70580000D03*
D19*
X84360000Y-87630000D03*
X88360000Y-87630000D03*
X88360000Y-85090000D03*
X84360000Y-85090000D03*
X84360000Y-74930000D03*
X88360000Y-74930000D03*
X99600000Y-87630000D03*
X103600000Y-87630000D03*
X103600000Y-85090000D03*
X99600000Y-85090000D03*
X99600000Y-74930000D03*
X103600000Y-74930000D03*
X130080000Y-87630000D03*
X134080000Y-87630000D03*
X134080000Y-85090000D03*
X130080000Y-85090000D03*
X130080000Y-74930000D03*
X134080000Y-74930000D03*
X114840000Y-87630000D03*
X118840000Y-87630000D03*
X118840000Y-85090000D03*
X114840000Y-85090000D03*
X114840000Y-74930000D03*
X118840000Y-74930000D03*
X145320000Y-87630000D03*
X149320000Y-87630000D03*
X149320000Y-85090000D03*
X145320000Y-85090000D03*
X145320000Y-74930000D03*
X149320000Y-74930000D03*
X160560000Y-87630000D03*
X164560000Y-87630000D03*
X164560000Y-85090000D03*
X160560000Y-85090000D03*
X160560000Y-74930000D03*
X164560000Y-74930000D03*
X191040000Y-87630000D03*
X195040000Y-87630000D03*
X195040000Y-85090000D03*
X191040000Y-85090000D03*
X191040000Y-74930000D03*
X195040000Y-74930000D03*
X175800000Y-87630000D03*
X179800000Y-87630000D03*
X179800000Y-85090000D03*
X175800000Y-85090000D03*
X175800000Y-74930000D03*
X179800000Y-74930000D03*
D17*
X66040000Y-69850000D03*
D18*
X66040000Y-72390000D03*
X66040000Y-74930000D03*
X66040000Y-77470000D03*
X66040000Y-80010000D03*
X66040000Y-82550000D03*
X66040000Y-85090000D03*
X66040000Y-87630000D03*
X66040000Y-90170000D03*
X66040000Y-92710000D03*
D17*
X212090000Y-69850000D03*
D18*
X212090000Y-72390000D03*
X212090000Y-74930000D03*
X212090000Y-77470000D03*
X212090000Y-80010000D03*
X212090000Y-82550000D03*
X212090000Y-85090000D03*
X212090000Y-87630000D03*
X212090000Y-90170000D03*
X212090000Y-92710000D03*
D15*
X101600000Y-66580000D03*
D16*
X100600000Y-70580000D03*
X102600000Y-70580000D03*
D15*
X132080000Y-66580000D03*
D16*
X131080000Y-70580000D03*
X133080000Y-70580000D03*
D15*
X147320000Y-66580000D03*
D16*
X146320000Y-70580000D03*
X148320000Y-70580000D03*
D15*
X162560000Y-66580000D03*
D16*
X161560000Y-70580000D03*
X163560000Y-70580000D03*
D15*
X193040000Y-66580000D03*
D16*
X192040000Y-70580000D03*
X194040000Y-70580000D03*
D15*
X177800000Y-66580000D03*
D16*
X176800000Y-70580000D03*
X178800000Y-70580000D03*
D15*
X86360000Y-66580000D03*
D16*
X85360000Y-70580000D03*
X87360000Y-70580000D03*
D13*
X180340000Y-91440000D03*
D14*
X180340000Y-99060000D03*
X177800000Y-91440000D03*
X177800000Y-99060000D03*
X175260000Y-91440000D03*
X175260000Y-99060000D03*
D13*
X195580000Y-91440000D03*
D14*
X195580000Y-99060000D03*
X193040000Y-91440000D03*
X193040000Y-99060000D03*
X190500000Y-91440000D03*
X190500000Y-99060000D03*
D13*
X165100000Y-91440000D03*
D14*
X165100000Y-99060000D03*
X162560000Y-91440000D03*
X162560000Y-99060000D03*
X160020000Y-91440000D03*
X160020000Y-99060000D03*
D13*
X149860000Y-91440000D03*
D14*
X149860000Y-99060000D03*
X147320000Y-91440000D03*
X147320000Y-99060000D03*
X144780000Y-91440000D03*
X144780000Y-99060000D03*
D13*
X119380000Y-91440000D03*
D14*
X119380000Y-99060000D03*
X116840000Y-91440000D03*
X116840000Y-99060000D03*
X114300000Y-91440000D03*
X114300000Y-99060000D03*
D13*
X134620000Y-91440000D03*
D14*
X134620000Y-99060000D03*
X132080000Y-91440000D03*
X132080000Y-99060000D03*
X129540000Y-91440000D03*
X129540000Y-99060000D03*
D13*
X104140000Y-91440000D03*
D14*
X104140000Y-99060000D03*
X101600000Y-91440000D03*
X101600000Y-99060000D03*
X99060000Y-91440000D03*
X99060000Y-99060000D03*
D13*
X88900000Y-91440000D03*
D14*
X88900000Y-99060000D03*
X86360000Y-91440000D03*
X86360000Y-99060000D03*
X83820000Y-91440000D03*
X83820000Y-99060000D03*
D12*
X181050000Y-82550000D03*
X181050000Y-80010000D03*
X181050000Y-77470000D03*
X174550000Y-77470000D03*
X174550000Y-80010000D03*
X174550000Y-82550000D03*
X196290000Y-82550000D03*
X196290000Y-80010000D03*
X196290000Y-77470000D03*
X189790000Y-77470000D03*
X189790000Y-80010000D03*
X189790000Y-82550000D03*
X165810000Y-82550000D03*
X165810000Y-80010000D03*
X165810000Y-77470000D03*
X159310000Y-77470000D03*
X159310000Y-80010000D03*
X159310000Y-82550000D03*
X150570000Y-82550000D03*
X150570000Y-80010000D03*
X150570000Y-77470000D03*
X144070000Y-77470000D03*
X144070000Y-80010000D03*
X144070000Y-82550000D03*
X120090000Y-82550000D03*
X120090000Y-80010000D03*
X120090000Y-77470000D03*
X113590000Y-77470000D03*
X113590000Y-80010000D03*
X113590000Y-82550000D03*
X135330000Y-82550000D03*
X135330000Y-80010000D03*
X135330000Y-77470000D03*
X128830000Y-77470000D03*
X128830000Y-80010000D03*
X128830000Y-82550000D03*
X104850000Y-82550000D03*
X104850000Y-80010000D03*
X104850000Y-77470000D03*
X98350000Y-77470000D03*
X98350000Y-80010000D03*
X98350000Y-82550000D03*
X89610000Y-82550000D03*
X89610000Y-80010000D03*
X89610000Y-77470000D03*
X83110000Y-77470000D03*
X83110000Y-80010000D03*
X83110000Y-82550000D03*
D11*
X73660000Y-68580000D03*
X205740000Y-68580000D03*
X210820000Y-104140000D03*
X66040000Y-104140000D03*
X66040000Y-104140000D03*
X210820000Y-104140000D03*
X205740000Y-68580000D03*
X73660000Y-68580000D03*
D12*
X89610000Y-82550000D03*
X89610000Y-80010000D03*
X89610000Y-77470000D03*
X83110000Y-77470000D03*
X83110000Y-80010000D03*
X83110000Y-82550000D03*
X104850000Y-82550000D03*
X104850000Y-80010000D03*
X104850000Y-77470000D03*
X98350000Y-77470000D03*
X98350000Y-80010000D03*
X98350000Y-82550000D03*
X135330000Y-82550000D03*
X135330000Y-80010000D03*
X135330000Y-77470000D03*
X128830000Y-77470000D03*
X128830000Y-80010000D03*
X128830000Y-82550000D03*
X120090000Y-82550000D03*
X120090000Y-80010000D03*
X120090000Y-77470000D03*
X113590000Y-77470000D03*
X113590000Y-80010000D03*
X113590000Y-82550000D03*
X150570000Y-82550000D03*
X150570000Y-80010000D03*
X150570000Y-77470000D03*
X144070000Y-77470000D03*
X144070000Y-80010000D03*
X144070000Y-82550000D03*
X165810000Y-82550000D03*
X165810000Y-80010000D03*
X165810000Y-77470000D03*
X159310000Y-77470000D03*
X159310000Y-80010000D03*
X159310000Y-82550000D03*
X196290000Y-82550000D03*
X196290000Y-80010000D03*
X196290000Y-77470000D03*
X189790000Y-77470000D03*
X189790000Y-80010000D03*
X189790000Y-82550000D03*
X181050000Y-82550000D03*
X181050000Y-80010000D03*
X181050000Y-77470000D03*
X174550000Y-77470000D03*
X174550000Y-80010000D03*
X174550000Y-82550000D03*
D13*
X88900000Y-91440000D03*
D14*
X88900000Y-99060000D03*
X86360000Y-91440000D03*
X86360000Y-99060000D03*
X83820000Y-91440000D03*
X83820000Y-99060000D03*
D13*
X104140000Y-91440000D03*
D14*
X104140000Y-99060000D03*
X101600000Y-91440000D03*
X101600000Y-99060000D03*
X99060000Y-91440000D03*
X99060000Y-99060000D03*
D13*
X134620000Y-91440000D03*
D14*
X134620000Y-99060000D03*
X132080000Y-91440000D03*
X132080000Y-99060000D03*
X129540000Y-91440000D03*
X129540000Y-99060000D03*
D13*
X119380000Y-91440000D03*
D14*
X119380000Y-99060000D03*
X116840000Y-91440000D03*
X116840000Y-99060000D03*
X114300000Y-91440000D03*
X114300000Y-99060000D03*
D13*
X149860000Y-91440000D03*
D14*
X149860000Y-99060000D03*
X147320000Y-91440000D03*
X147320000Y-99060000D03*
X144780000Y-91440000D03*
X144780000Y-99060000D03*
D13*
X165100000Y-91440000D03*
D14*
X165100000Y-99060000D03*
X162560000Y-91440000D03*
X162560000Y-99060000D03*
X160020000Y-91440000D03*
X160020000Y-99060000D03*
D13*
X195580000Y-91440000D03*
D14*
X195580000Y-99060000D03*
X193040000Y-91440000D03*
X193040000Y-99060000D03*
X190500000Y-91440000D03*
X190500000Y-99060000D03*
D13*
X180340000Y-91440000D03*
D14*
X180340000Y-99060000D03*
X177800000Y-91440000D03*
X177800000Y-99060000D03*
X175260000Y-91440000D03*
X175260000Y-99060000D03*
D15*
X86360000Y-66580000D03*
D16*
X85360000Y-70580000D03*
X87360000Y-70580000D03*
D15*
X177800000Y-66580000D03*
D16*
X176800000Y-70580000D03*
X178800000Y-70580000D03*
D15*
X193040000Y-66580000D03*
D16*
X192040000Y-70580000D03*
X194040000Y-70580000D03*
D15*
X162560000Y-66580000D03*
D16*
X161560000Y-70580000D03*
X163560000Y-70580000D03*
D15*
X147320000Y-66580000D03*
D16*
X146320000Y-70580000D03*
X148320000Y-70580000D03*
D15*
X132080000Y-66580000D03*
D16*
X131080000Y-70580000D03*
X133080000Y-70580000D03*
D15*
X101600000Y-66580000D03*
D16*
X100600000Y-70580000D03*
X102600000Y-70580000D03*
D17*
X212090000Y-69850000D03*
D18*
X212090000Y-72390000D03*
X212090000Y-74930000D03*
X212090000Y-77470000D03*
X212090000Y-80010000D03*
X212090000Y-82550000D03*
X212090000Y-85090000D03*
X212090000Y-87630000D03*
X212090000Y-90170000D03*
X212090000Y-92710000D03*
D17*
X66040000Y-69850000D03*
D18*
X66040000Y-72390000D03*
X66040000Y-74930000D03*
X66040000Y-77470000D03*
X66040000Y-80010000D03*
X66040000Y-82550000D03*
X66040000Y-85090000D03*
X66040000Y-87630000D03*
X66040000Y-90170000D03*
X66040000Y-92710000D03*
D19*
X175800000Y-74930000D03*
X179800000Y-74930000D03*
X179800000Y-85090000D03*
X175800000Y-85090000D03*
X175800000Y-87630000D03*
X179800000Y-87630000D03*
X191040000Y-74930000D03*
X195040000Y-74930000D03*
X195040000Y-85090000D03*
X191040000Y-85090000D03*
X191040000Y-87630000D03*
X195040000Y-87630000D03*
X160560000Y-74930000D03*
X164560000Y-74930000D03*
X164560000Y-85090000D03*
X160560000Y-85090000D03*
X160560000Y-87630000D03*
X164560000Y-87630000D03*
X145320000Y-74930000D03*
X149320000Y-74930000D03*
X149320000Y-85090000D03*
X145320000Y-85090000D03*
X145320000Y-87630000D03*
X149320000Y-87630000D03*
X114840000Y-74930000D03*
X118840000Y-74930000D03*
X118840000Y-85090000D03*
X114840000Y-85090000D03*
X114840000Y-87630000D03*
X118840000Y-87630000D03*
X130080000Y-74930000D03*
X134080000Y-74930000D03*
X134080000Y-85090000D03*
X130080000Y-85090000D03*
X130080000Y-87630000D03*
X134080000Y-87630000D03*
X99600000Y-74930000D03*
X103600000Y-74930000D03*
X103600000Y-85090000D03*
X99600000Y-85090000D03*
X99600000Y-87630000D03*
X103600000Y-87630000D03*
X84360000Y-74930000D03*
X88360000Y-74930000D03*
X88360000Y-85090000D03*
X84360000Y-85090000D03*
X84360000Y-87630000D03*
X88360000Y-87630000D03*
D15*
X116840000Y-66580000D03*
D16*
X115840000Y-70580000D03*
X117840000Y-70580000D03*
D15*
X116840000Y-66580000D03*
D16*
X115840000Y-70580000D03*
X117840000Y-70580000D03*
D19*
X84360000Y-87630000D03*
X88360000Y-87630000D03*
X88360000Y-85090000D03*
X84360000Y-85090000D03*
X84360000Y-74930000D03*
X88360000Y-74930000D03*
X99600000Y-87630000D03*
X103600000Y-87630000D03*
X103600000Y-85090000D03*
X99600000Y-85090000D03*
X99600000Y-74930000D03*
X103600000Y-74930000D03*
X130080000Y-87630000D03*
X134080000Y-87630000D03*
X134080000Y-85090000D03*
X130080000Y-85090000D03*
X130080000Y-74930000D03*
X134080000Y-74930000D03*
X114840000Y-87630000D03*
X118840000Y-87630000D03*
X118840000Y-85090000D03*
X114840000Y-85090000D03*
X114840000Y-74930000D03*
X118840000Y-74930000D03*
X145320000Y-87630000D03*
X149320000Y-87630000D03*
X149320000Y-85090000D03*
X145320000Y-85090000D03*
X145320000Y-74930000D03*
X149320000Y-74930000D03*
X160560000Y-87630000D03*
X164560000Y-87630000D03*
X164560000Y-85090000D03*
X160560000Y-85090000D03*
X160560000Y-74930000D03*
X164560000Y-74930000D03*
X191040000Y-87630000D03*
X195040000Y-87630000D03*
X195040000Y-85090000D03*
X191040000Y-85090000D03*
X191040000Y-74930000D03*
X195040000Y-74930000D03*
X175800000Y-87630000D03*
X179800000Y-87630000D03*
X179800000Y-85090000D03*
X175800000Y-85090000D03*
X175800000Y-74930000D03*
X179800000Y-74930000D03*
D17*
X66040000Y-69850000D03*
D18*
X66040000Y-72390000D03*
X66040000Y-74930000D03*
X66040000Y-77470000D03*
X66040000Y-80010000D03*
X66040000Y-82550000D03*
X66040000Y-85090000D03*
X66040000Y-87630000D03*
X66040000Y-90170000D03*
X66040000Y-92710000D03*
D17*
X212090000Y-69850000D03*
D18*
X212090000Y-72390000D03*
X212090000Y-74930000D03*
X212090000Y-77470000D03*
X212090000Y-80010000D03*
X212090000Y-82550000D03*
X212090000Y-85090000D03*
X212090000Y-87630000D03*
X212090000Y-90170000D03*
X212090000Y-92710000D03*
D15*
X101600000Y-66580000D03*
D16*
X100600000Y-70580000D03*
X102600000Y-70580000D03*
D15*
X132080000Y-66580000D03*
D16*
X131080000Y-70580000D03*
X133080000Y-70580000D03*
D15*
X147320000Y-66580000D03*
D16*
X146320000Y-70580000D03*
X148320000Y-70580000D03*
D15*
X162560000Y-66580000D03*
D16*
X161560000Y-70580000D03*
X163560000Y-70580000D03*
D15*
X193040000Y-66580000D03*
D16*
X192040000Y-70580000D03*
X194040000Y-70580000D03*
D15*
X177800000Y-66580000D03*
D16*
X176800000Y-70580000D03*
X178800000Y-70580000D03*
D15*
X86360000Y-66580000D03*
D16*
X85360000Y-70580000D03*
X87360000Y-70580000D03*
D13*
X180340000Y-91440000D03*
D14*
X180340000Y-99060000D03*
X177800000Y-91440000D03*
X177800000Y-99060000D03*
X175260000Y-91440000D03*
X175260000Y-99060000D03*
D13*
X195580000Y-91440000D03*
D14*
X195580000Y-99060000D03*
X193040000Y-91440000D03*
X193040000Y-99060000D03*
X190500000Y-91440000D03*
X190500000Y-99060000D03*
D13*
X165100000Y-91440000D03*
D14*
X165100000Y-99060000D03*
X162560000Y-91440000D03*
X162560000Y-99060000D03*
X160020000Y-91440000D03*
X160020000Y-99060000D03*
D13*
X149860000Y-91440000D03*
D14*
X149860000Y-99060000D03*
X147320000Y-91440000D03*
X147320000Y-99060000D03*
X144780000Y-91440000D03*
X144780000Y-99060000D03*
D13*
X119380000Y-91440000D03*
D14*
X119380000Y-99060000D03*
X116840000Y-91440000D03*
X116840000Y-99060000D03*
X114300000Y-91440000D03*
X114300000Y-99060000D03*
D13*
X134620000Y-91440000D03*
D14*
X134620000Y-99060000D03*
X132080000Y-91440000D03*
X132080000Y-99060000D03*
X129540000Y-91440000D03*
X129540000Y-99060000D03*
D13*
X104140000Y-91440000D03*
D14*
X104140000Y-99060000D03*
X101600000Y-91440000D03*
X101600000Y-99060000D03*
X99060000Y-91440000D03*
X99060000Y-99060000D03*
D13*
X88900000Y-91440000D03*
D14*
X88900000Y-99060000D03*
X86360000Y-91440000D03*
X86360000Y-99060000D03*
X83820000Y-91440000D03*
X83820000Y-99060000D03*
D12*
X181050000Y-82550000D03*
X181050000Y-80010000D03*
X181050000Y-77470000D03*
X174550000Y-77470000D03*
X174550000Y-80010000D03*
X174550000Y-82550000D03*
X196290000Y-82550000D03*
X196290000Y-80010000D03*
X196290000Y-77470000D03*
X189790000Y-77470000D03*
X189790000Y-80010000D03*
X189790000Y-82550000D03*
X165810000Y-82550000D03*
X165810000Y-80010000D03*
X165810000Y-77470000D03*
X159310000Y-77470000D03*
X159310000Y-80010000D03*
X159310000Y-82550000D03*
X150570000Y-82550000D03*
X150570000Y-80010000D03*
X150570000Y-77470000D03*
X144070000Y-77470000D03*
X144070000Y-80010000D03*
X144070000Y-82550000D03*
X120090000Y-82550000D03*
X120090000Y-80010000D03*
X120090000Y-77470000D03*
X113590000Y-77470000D03*
X113590000Y-80010000D03*
X113590000Y-82550000D03*
X135330000Y-82550000D03*
X135330000Y-80010000D03*
X135330000Y-77470000D03*
X128830000Y-77470000D03*
X128830000Y-80010000D03*
X128830000Y-82550000D03*
X104850000Y-82550000D03*
X104850000Y-80010000D03*
X104850000Y-77470000D03*
X98350000Y-77470000D03*
X98350000Y-80010000D03*
X98350000Y-82550000D03*
X89610000Y-82550000D03*
X89610000Y-80010000D03*
X89610000Y-77470000D03*
X83110000Y-77470000D03*
X83110000Y-80010000D03*
X83110000Y-82550000D03*
D11*
X73660000Y-68580000D03*
X205740000Y-68580000D03*
X210820000Y-104140000D03*
X66040000Y-104140000D03*
M02*
