M48
INCH,TZ
T1C0.016
T2C0.030
T3C0.040
T4C0.098
%
G90
G05
T1
X38750Y-13000
X38750Y-15000
X38750Y-17000
X38750Y-19000
X38750Y-21000
X38750Y-23250
X38750Y-25250
X38750Y-27250
X38750Y-29500
X38750Y-31500
X40750Y-13000
X40750Y-31500
X42000Y-17750
X42000Y-19000
X42000Y-20250
X42000Y-21500
X42000Y-22750
X42000Y-24000
X42000Y-25250
X42000Y-26500
X42000Y-27750
X42000Y-29000
X42000Y-30250
X42750Y-13000
X42750Y-31500
X43250Y-17750
X43250Y-19000
X43250Y-20250
X43250Y-21500
X43250Y-22750
X43250Y-24000
X43250Y-25250
X43250Y-26500
X43250Y-27750
X43250Y-29000
X43250Y-30250
X44750Y-13000
X44750Y-31500
X45000Y-23750
X45750Y-24750
X46000Y-15500
X46000Y-20000
X46500Y-18750
X46750Y-13000
X47500Y-18000
X47500Y-22500
X48000Y-23750
X48500Y-18000
X48500Y-22500
X48750Y-13000
X48750Y-24250
X49500Y-18750
X50000Y-15500
X50000Y-20000
X50000Y-23250
X50750Y-13000
X51750Y-24750
X52000Y-15500
X52000Y-20000
X52500Y-18750
X52750Y-13000
X53500Y-18000
X53500Y-22500
X53750Y-23750
X53750Y-25750
X53750Y-27000
X53750Y-28250
X54250Y-24250
X54250Y-25750
X54250Y-27000
X54250Y-28250
X54500Y-18000
X54500Y-22500
X54750Y-13000
X55500Y-18750
X56000Y-15500
X56000Y-20000
X56000Y-23250
X56750Y-13000
X57750Y-24750
X58000Y-15500
X58000Y-20000
X58500Y-18750
X58750Y-13000
X59500Y-18000
X59500Y-22500
X59750Y-23750
X60250Y-24250
X60500Y-18000
X60500Y-22500
X61500Y-18750
X62000Y-15500
X62000Y-20000
X62000Y-23250
X63250Y-26250
X63750Y-24750
X64000Y-15500
X64000Y-20000
X64500Y-18750
X65000Y-23750
X65500Y-18000
X65500Y-22500
X66250Y-24250
X66250Y-26250
X66500Y-18000
X66500Y-22500
X67250Y-24250
X67500Y-15000
X67500Y-18750
X68000Y-20000
X68000Y-23250
X69750Y-24750
X70000Y-20000
X70500Y-15000
X70500Y-18750
X71500Y-18000
X71500Y-22500
X71750Y-23750
X72250Y-24250
X72500Y-18000
X72500Y-22500
X73500Y-18750
X74000Y-15500
X74000Y-20000
X74000Y-23250
X75750Y-24750
X76000Y-15500
X76000Y-20000
X76500Y-18750
X77000Y-23750
X77500Y-18000
X77500Y-22500
X77750Y-25750
X77750Y-27000
X77750Y-28500
X78250Y-24250
X78250Y-25750
X78250Y-27000
X78250Y-28500
X78500Y-18000
X78500Y-22500
X79500Y-18750
X79750Y-13000
X80000Y-15500
X80000Y-20000
X80000Y-23250
X81750Y-13000
X81750Y-24750
X82000Y-15500
X82000Y-20000
X82500Y-18750
X83500Y-18000
X83500Y-22500
X83750Y-13000
X83750Y-23750
X84250Y-24250
X84500Y-18000
X84500Y-22500
X85500Y-18750
X85750Y-13000
X86000Y-15500
X86000Y-20000
X86000Y-23250
X87750Y-13000
X87750Y-24750
X88000Y-15500
X88000Y-20000
X88000Y-25000
X88500Y-18750
X88750Y-30250
X89250Y-23750
X89500Y-18000
X89500Y-22500
X89750Y-13000
X90000Y-31500
X90250Y-24250
X90500Y-18000
X90500Y-22500
X91500Y-18750
X92000Y-13000
X92000Y-15500
X92000Y-20000
X92000Y-31500
X92500Y-22500
X94000Y-13000
X94000Y-18000
X94000Y-19250
X94000Y-20500
X94000Y-21750
X94000Y-23000
X94000Y-24250
X94000Y-25500
X94000Y-26750
X94000Y-28000
X94000Y-29250
X94000Y-31500
X95250Y-18000
X95250Y-19250
X95250Y-20500
X95250Y-21750
X95250Y-23000
X95250Y-24250
X95250Y-25500
X95250Y-26750
X95250Y-28000
X95250Y-29250
X96000Y-13000
X96000Y-31500
X98000Y-13000
X98000Y-15000
X98000Y-17000
X98000Y-19000
X98000Y-21000
X98000Y-23000
X98000Y-25000
X98000Y-27000
X98000Y-29000
X98000Y-31000
T2
X47000Y-25500
X47000Y-28500
X48000Y-25500
X48000Y-28500
X49000Y-25500
X49000Y-28500
X59000Y-25500
X59000Y-28500
X60000Y-25500
X60000Y-28500
X61000Y-25500
X61000Y-28500
X71000Y-25500
X71000Y-28500
X72000Y-25500
X72000Y-28500
X73000Y-25500
X73000Y-28500
X83000Y-25500
X83000Y-28500
X84000Y-25500
X84000Y-28500
X85000Y-25500
X85000Y-28500
T3
X60500Y-13000
X60500Y-31000
X61500Y-13000
X61500Y-31000
X62500Y-13000
X62500Y-31000
X63500Y-13000
X63500Y-31000
X64500Y-13000
X64500Y-31000
X65500Y-13000
X65500Y-31000
X66500Y-13000
X66500Y-31000
X67500Y-13000
X67500Y-31000
X68500Y-13000
X68500Y-31000
X69500Y-13000
X69500Y-31000
X70500Y-13000
X70500Y-31000
X71500Y-13000
X71500Y-31000
X72500Y-13000
X72500Y-31000
X73500Y-13000
X73500Y-31000
X74500Y-13000
X74500Y-31000
X75500Y-13000
X75500Y-31000
X76500Y-13000
X76500Y-31000
X77500Y-13000
X77500Y-31000
T4
X40000Y-30500
X43000Y-16500
X95000Y-16500
X97000Y-30500
T0
M30
