G04 #@! TF.FileFunction,Soldermask,Top*
%FSLAX46Y46*%
G04 Gerber Fmt 4.6, Leading zero omitted, Abs format (unit mm)*
G04 Created by KiCad (PCBNEW 4.0.0-stable) date 3/18/2016 11:08:59 AM*
%MOMM*%
G01*
G04 APERTURE LIST*
%ADD10C,0.100000*%
%ADD11R,2.400000X2.000000*%
%ADD12R,2.127200X2.432000*%
%ADD13O,2.127200X2.432000*%
%ADD14R,2.900000X1.400000*%
%ADD15R,1.924000X2.224000*%
%ADD16O,1.924000X2.224000*%
%ADD17C,2.900000*%
G04 APERTURE END LIST*
D10*
D11*
X201200000Y-64770000D03*
X205200000Y-64770000D03*
X201200000Y-68580000D03*
X205200000Y-68580000D03*
X201200000Y-72390000D03*
X205200000Y-72390000D03*
X195040000Y-71755000D03*
X191040000Y-71755000D03*
X195040000Y-68580000D03*
X191040000Y-68580000D03*
X195040000Y-65405000D03*
X191040000Y-65405000D03*
X140240000Y-65405000D03*
X144240000Y-65405000D03*
X140240000Y-68580000D03*
X144240000Y-68580000D03*
X140240000Y-71755000D03*
X144240000Y-71755000D03*
X134080000Y-71755000D03*
X130080000Y-71755000D03*
X134080000Y-68580000D03*
X130080000Y-68580000D03*
X134080000Y-65405000D03*
X130080000Y-65405000D03*
D12*
X153670000Y-33020000D03*
D13*
X156210000Y-33020000D03*
X158750000Y-33020000D03*
X161290000Y-33020000D03*
X163830000Y-33020000D03*
X166370000Y-33020000D03*
X168910000Y-33020000D03*
X171450000Y-33020000D03*
X173990000Y-33020000D03*
X176530000Y-33020000D03*
X179070000Y-33020000D03*
X181610000Y-33020000D03*
X184150000Y-33020000D03*
X186690000Y-33020000D03*
X189230000Y-33020000D03*
X191770000Y-33020000D03*
X194310000Y-33020000D03*
X196850000Y-33020000D03*
D12*
X196850000Y-78740000D03*
D13*
X194310000Y-78740000D03*
X191770000Y-78740000D03*
X189230000Y-78740000D03*
X186690000Y-78740000D03*
X184150000Y-78740000D03*
X181610000Y-78740000D03*
X179070000Y-78740000D03*
X176530000Y-78740000D03*
X173990000Y-78740000D03*
X171450000Y-78740000D03*
X168910000Y-78740000D03*
X166370000Y-78740000D03*
X163830000Y-78740000D03*
X161290000Y-78740000D03*
X158750000Y-78740000D03*
X156210000Y-78740000D03*
X153670000Y-78740000D03*
D14*
X125170000Y-44450000D03*
X125170000Y-41910000D03*
X125170000Y-39370000D03*
X118670000Y-39370000D03*
X118670000Y-41910000D03*
X118670000Y-44450000D03*
X125170000Y-55880000D03*
X125170000Y-53340000D03*
X125170000Y-50800000D03*
X118670000Y-50800000D03*
X118670000Y-53340000D03*
X118670000Y-55880000D03*
X140410000Y-44450000D03*
X140410000Y-41910000D03*
X140410000Y-39370000D03*
X133910000Y-39370000D03*
X133910000Y-41910000D03*
X133910000Y-44450000D03*
X140410000Y-55880000D03*
X140410000Y-53340000D03*
X140410000Y-50800000D03*
X133910000Y-50800000D03*
X133910000Y-53340000D03*
X133910000Y-55880000D03*
X155650000Y-44450000D03*
X155650000Y-41910000D03*
X155650000Y-39370000D03*
X149150000Y-39370000D03*
X149150000Y-41910000D03*
X149150000Y-44450000D03*
X155650000Y-55880000D03*
X155650000Y-53340000D03*
X155650000Y-50800000D03*
X149150000Y-50800000D03*
X149150000Y-53340000D03*
X149150000Y-55880000D03*
X170890000Y-44450000D03*
X170890000Y-41910000D03*
X170890000Y-39370000D03*
X164390000Y-39370000D03*
X164390000Y-41910000D03*
X164390000Y-44450000D03*
X170890000Y-55880000D03*
X170890000Y-53340000D03*
X170890000Y-50800000D03*
X164390000Y-50800000D03*
X164390000Y-53340000D03*
X164390000Y-55880000D03*
X186130000Y-55880000D03*
X186130000Y-53340000D03*
X186130000Y-50800000D03*
X179630000Y-50800000D03*
X179630000Y-53340000D03*
X179630000Y-55880000D03*
X186130000Y-44450000D03*
X186130000Y-41910000D03*
X186130000Y-39370000D03*
X179630000Y-39370000D03*
X179630000Y-41910000D03*
X179630000Y-44450000D03*
X201370000Y-55880000D03*
X201370000Y-53340000D03*
X201370000Y-50800000D03*
X194870000Y-50800000D03*
X194870000Y-53340000D03*
X194870000Y-55880000D03*
X201370000Y-44450000D03*
X201370000Y-41910000D03*
X201370000Y-39370000D03*
X194870000Y-39370000D03*
X194870000Y-41910000D03*
X194870000Y-44450000D03*
X216610000Y-55880000D03*
X216610000Y-53340000D03*
X216610000Y-50800000D03*
X210110000Y-50800000D03*
X210110000Y-53340000D03*
X210110000Y-55880000D03*
X216610000Y-44450000D03*
X216610000Y-41910000D03*
X216610000Y-39370000D03*
X210110000Y-39370000D03*
X210110000Y-41910000D03*
X210110000Y-44450000D03*
X231850000Y-55880000D03*
X231850000Y-53340000D03*
X231850000Y-50800000D03*
X225350000Y-50800000D03*
X225350000Y-53340000D03*
X225350000Y-55880000D03*
X231850000Y-44450000D03*
X231850000Y-41910000D03*
X231850000Y-39370000D03*
X225350000Y-39370000D03*
X225350000Y-41910000D03*
X225350000Y-44450000D03*
D15*
X210820000Y-72390000D03*
D16*
X210820000Y-64770000D03*
X213360000Y-72390000D03*
X213360000Y-64770000D03*
X215900000Y-72390000D03*
X215900000Y-64770000D03*
D15*
X180340000Y-72390000D03*
D16*
X180340000Y-64770000D03*
X182880000Y-72390000D03*
X182880000Y-64770000D03*
X185420000Y-72390000D03*
X185420000Y-64770000D03*
D15*
X149860000Y-72390000D03*
D16*
X149860000Y-64770000D03*
X152400000Y-72390000D03*
X152400000Y-64770000D03*
X154940000Y-72390000D03*
X154940000Y-64770000D03*
D15*
X119380000Y-72390000D03*
D16*
X119380000Y-64770000D03*
X121920000Y-72390000D03*
X121920000Y-64770000D03*
X124460000Y-72390000D03*
X124460000Y-64770000D03*
D17*
X101600000Y-77470000D03*
X109220000Y-41910000D03*
X241300000Y-41910000D03*
X246380000Y-77470000D03*
M02*
