M48
INCH,TZ
T1C0.016
T2C0.030
T3C0.040
T4C0.098
%
G90
G05
T1
X34000Y-27000
X34000Y-27000
X34000Y-27000
X34000Y-27000
X34500Y-28500
X34500Y-28500
X34500Y-28500
X34500Y-28500
X40000Y-27000
X40000Y-27000
X40000Y-27000
X40000Y-27000
X40500Y-28500
X40500Y-28500
X40500Y-28500
X40500Y-28500
X46000Y-27000
X46000Y-27000
X46000Y-27000
X46000Y-27000
X46500Y-28500
X46500Y-28500
X46500Y-28500
X46500Y-28500
X52000Y-27000
X52000Y-27000
X52000Y-27000
X52000Y-27000
X52500Y-28500
X52500Y-28500
X52500Y-28500
X52500Y-28500
X58000Y-27000
X58000Y-27000
X58000Y-27000
X58000Y-27000
X58500Y-28500
X58500Y-28500
X58500Y-28500
X58500Y-28500
X64000Y-27000
X64000Y-27000
X64000Y-27000
X64000Y-27000
X64500Y-28500
X64500Y-28500
X64500Y-28500
X64500Y-28500
X70000Y-27000
X70000Y-27000
X70000Y-27000
X70000Y-27000
X70500Y-28500
X70500Y-28500
X70500Y-28500
X70500Y-28500
X76000Y-27000
X76000Y-27000
X76000Y-27000
X76000Y-27000
X76500Y-28500
X76500Y-28500
X76500Y-28500
X76500Y-28500
T2
X33000Y-36000
X33000Y-36000
X33000Y-36000
X33000Y-36000
X33000Y-39000
X33000Y-39000
X33000Y-39000
X33000Y-39000
X34000Y-36000
X34000Y-36000
X34000Y-36000
X34000Y-36000
X34000Y-39000
X34000Y-39000
X34000Y-39000
X34000Y-39000
X35000Y-36000
X35000Y-36000
X35000Y-36000
X35000Y-36000
X35000Y-39000
X35000Y-39000
X35000Y-39000
X35000Y-39000
X39000Y-36000
X39000Y-36000
X39000Y-36000
X39000Y-36000
X39000Y-39000
X39000Y-39000
X39000Y-39000
X39000Y-39000
X40000Y-36000
X40000Y-36000
X40000Y-36000
X40000Y-36000
X40000Y-39000
X40000Y-39000
X40000Y-39000
X40000Y-39000
X41000Y-36000
X41000Y-36000
X41000Y-36000
X41000Y-36000
X41000Y-39000
X41000Y-39000
X41000Y-39000
X41000Y-39000
X45000Y-36000
X45000Y-36000
X45000Y-36000
X45000Y-36000
X45000Y-39000
X45000Y-39000
X45000Y-39000
X45000Y-39000
X46000Y-36000
X46000Y-36000
X46000Y-36000
X46000Y-36000
X46000Y-39000
X46000Y-39000
X46000Y-39000
X46000Y-39000
X47000Y-36000
X47000Y-36000
X47000Y-36000
X47000Y-36000
X47000Y-39000
X47000Y-39000
X47000Y-39000
X47000Y-39000
X51000Y-36000
X51000Y-36000
X51000Y-36000
X51000Y-36000
X51000Y-39000
X51000Y-39000
X51000Y-39000
X51000Y-39000
X52000Y-36000
X52000Y-36000
X52000Y-36000
X52000Y-36000
X52000Y-39000
X52000Y-39000
X52000Y-39000
X52000Y-39000
X53000Y-36000
X53000Y-36000
X53000Y-36000
X53000Y-36000
X53000Y-39000
X53000Y-39000
X53000Y-39000
X53000Y-39000
X57000Y-36000
X57000Y-36000
X57000Y-36000
X57000Y-36000
X57000Y-39000
X57000Y-39000
X57000Y-39000
X57000Y-39000
X58000Y-36000
X58000Y-36000
X58000Y-36000
X58000Y-36000
X58000Y-39000
X58000Y-39000
X58000Y-39000
X58000Y-39000
X59000Y-36000
X59000Y-36000
X59000Y-36000
X59000Y-36000
X59000Y-39000
X59000Y-39000
X59000Y-39000
X59000Y-39000
X63000Y-36000
X63000Y-36000
X63000Y-36000
X63000Y-36000
X63000Y-39000
X63000Y-39000
X63000Y-39000
X63000Y-39000
X64000Y-36000
X64000Y-36000
X64000Y-36000
X64000Y-36000
X64000Y-39000
X64000Y-39000
X64000Y-39000
X64000Y-39000
X65000Y-36000
X65000Y-36000
X65000Y-36000
X65000Y-36000
X65000Y-39000
X65000Y-39000
X65000Y-39000
X65000Y-39000
X69000Y-36000
X69000Y-36000
X69000Y-36000
X69000Y-36000
X69000Y-39000
X69000Y-39000
X69000Y-39000
X69000Y-39000
X70000Y-36000
X70000Y-36000
X70000Y-36000
X70000Y-36000
X70000Y-39000
X70000Y-39000
X70000Y-39000
X70000Y-39000
X71000Y-36000
X71000Y-36000
X71000Y-36000
X71000Y-36000
X71000Y-39000
X71000Y-39000
X71000Y-39000
X71000Y-39000
X75000Y-36000
X75000Y-36000
X75000Y-36000
X75000Y-36000
X75000Y-39000
X75000Y-39000
X75000Y-39000
X75000Y-39000
X76000Y-36000
X76000Y-36000
X76000Y-36000
X76000Y-36000
X76000Y-39000
X76000Y-39000
X76000Y-39000
X76000Y-39000
X77000Y-36000
X77000Y-36000
X77000Y-36000
X77000Y-36000
X77000Y-39000
X77000Y-39000
X77000Y-39000
X77000Y-39000
T3
X26000Y-27500
X26000Y-27500
X26000Y-27500
X26000Y-27500
X26000Y-28500
X26000Y-28500
X26000Y-28500
X26000Y-28500
X26000Y-29500
X26000Y-29500
X26000Y-29500
X26000Y-29500
X26000Y-30500
X26000Y-30500
X26000Y-30500
X26000Y-30500
X26000Y-31500
X26000Y-31500
X26000Y-31500
X26000Y-31500
X26000Y-32500
X26000Y-32500
X26000Y-32500
X26000Y-32500
X26000Y-33500
X26000Y-33500
X26000Y-33500
X26000Y-33500
X26000Y-34500
X26000Y-34500
X26000Y-34500
X26000Y-34500
X26000Y-35500
X26000Y-35500
X26000Y-35500
X26000Y-35500
X26000Y-36500
X26000Y-36500
X26000Y-36500
X26000Y-36500
X83500Y-27500
X83500Y-27500
X83500Y-27500
X83500Y-27500
X83500Y-28500
X83500Y-28500
X83500Y-28500
X83500Y-28500
X83500Y-29500
X83500Y-29500
X83500Y-29500
X83500Y-29500
X83500Y-30500
X83500Y-30500
X83500Y-30500
X83500Y-30500
X83500Y-31500
X83500Y-31500
X83500Y-31500
X83500Y-31500
X83500Y-32500
X83500Y-32500
X83500Y-32500
X83500Y-32500
X83500Y-33500
X83500Y-33500
X83500Y-33500
X83500Y-33500
X83500Y-34500
X83500Y-34500
X83500Y-34500
X83500Y-34500
X83500Y-35500
X83500Y-35500
X83500Y-35500
X83500Y-35500
X83500Y-36500
X83500Y-36500
X83500Y-36500
X83500Y-36500
T4
X26000Y-41000
X26000Y-41000
X26000Y-41000
X26000Y-41000
X29000Y-27000
X29000Y-27000
X29000Y-27000
X29000Y-27000
X81000Y-27000
X81000Y-27000
X81000Y-27000
X81000Y-27000
X83000Y-41000
X83000Y-41000
X83000Y-41000
X83000Y-41000
T0
M30
