G04 #@! TF.FileFunction,Soldermask,Bot*
%FSLAX46Y46*%
G04 Gerber Fmt 4.6, Leading zero omitted, Abs format (unit mm)*
G04 Created by KiCad (PCBNEW 4.0.0-stable) date 3/20/2016 3:51:15 PM*
%MOMM*%
G01*
G04 APERTURE LIST*
%ADD10C,0.100000*%
%ADD11O,2.000000X2.000000*%
%ADD12R,1.700000X1.700000*%
%ADD13C,1.700000*%
%ADD14R,2.127200X2.432000*%
%ADD15O,2.127200X2.432000*%
%ADD16C,2.400000*%
%ADD17O,3.414980X1.906220*%
G04 APERTURE END LIST*
D10*
D11*
X66357500Y-62547500D03*
X63817500Y-62547500D03*
X61277500Y-62547500D03*
X58737500Y-62547500D03*
X56197500Y-62547500D03*
X53657500Y-62547500D03*
X51117500Y-62547500D03*
X51117500Y-70167500D03*
X53657500Y-70167500D03*
X56197500Y-70167500D03*
X58737500Y-70167500D03*
X61277500Y-70167500D03*
X63817500Y-70167500D03*
X66357500Y-70167500D03*
D12*
X70802500Y-65087500D03*
D13*
X70802500Y-67587500D03*
D12*
X110172500Y-65087500D03*
D13*
X110172500Y-67587500D03*
D12*
X144145000Y-65405000D03*
D13*
X144145000Y-67905000D03*
D12*
X181292500Y-65087500D03*
D13*
X181292500Y-67587500D03*
D12*
X44132500Y-113982500D03*
D13*
X44132500Y-111482500D03*
D12*
X83185000Y-114300000D03*
D13*
X83185000Y-111800000D03*
D12*
X118427500Y-113982500D03*
D13*
X118427500Y-111482500D03*
D12*
X154940000Y-113792000D03*
D13*
X154940000Y-111292000D03*
D11*
X160020000Y-116332000D03*
X162560000Y-116332000D03*
X165100000Y-116332000D03*
X167640000Y-116332000D03*
X170180000Y-116332000D03*
X172720000Y-116332000D03*
X175260000Y-116332000D03*
X175260000Y-108712000D03*
X172720000Y-108712000D03*
X170180000Y-108712000D03*
X167640000Y-108712000D03*
X165100000Y-108712000D03*
X162560000Y-108712000D03*
X160020000Y-108712000D03*
X123825000Y-116840000D03*
X126365000Y-116840000D03*
X128905000Y-116840000D03*
X131445000Y-116840000D03*
X133985000Y-116840000D03*
X136525000Y-116840000D03*
X139065000Y-116840000D03*
X139065000Y-109220000D03*
X136525000Y-109220000D03*
X133985000Y-109220000D03*
X131445000Y-109220000D03*
X128905000Y-109220000D03*
X126365000Y-109220000D03*
X123825000Y-109220000D03*
X88265000Y-116840000D03*
X90805000Y-116840000D03*
X93345000Y-116840000D03*
X95885000Y-116840000D03*
X98425000Y-116840000D03*
X100965000Y-116840000D03*
X103505000Y-116840000D03*
X103505000Y-109220000D03*
X100965000Y-109220000D03*
X98425000Y-109220000D03*
X95885000Y-109220000D03*
X93345000Y-109220000D03*
X90805000Y-109220000D03*
X88265000Y-109220000D03*
X49212500Y-116522500D03*
X51752500Y-116522500D03*
X54292500Y-116522500D03*
X56832500Y-116522500D03*
X59372500Y-116522500D03*
X61912500Y-116522500D03*
X64452500Y-116522500D03*
X64452500Y-108902500D03*
X61912500Y-108902500D03*
X59372500Y-108902500D03*
X56832500Y-108902500D03*
X54292500Y-108902500D03*
X51752500Y-108902500D03*
X49212500Y-108902500D03*
X176212500Y-62547500D03*
X173672500Y-62547500D03*
X171132500Y-62547500D03*
X168592500Y-62547500D03*
X166052500Y-62547500D03*
X163512500Y-62547500D03*
X160972500Y-62547500D03*
X160972500Y-70167500D03*
X163512500Y-70167500D03*
X166052500Y-70167500D03*
X168592500Y-70167500D03*
X171132500Y-70167500D03*
X173672500Y-70167500D03*
X176212500Y-70167500D03*
X139065000Y-62865000D03*
X136525000Y-62865000D03*
X133985000Y-62865000D03*
X131445000Y-62865000D03*
X128905000Y-62865000D03*
X126365000Y-62865000D03*
X123825000Y-62865000D03*
X123825000Y-70485000D03*
X126365000Y-70485000D03*
X128905000Y-70485000D03*
X131445000Y-70485000D03*
X133985000Y-70485000D03*
X136525000Y-70485000D03*
X139065000Y-70485000D03*
X105092500Y-62547500D03*
X102552500Y-62547500D03*
X100012500Y-62547500D03*
X97472500Y-62547500D03*
X94932500Y-62547500D03*
X92392500Y-62547500D03*
X89852500Y-62547500D03*
X89852500Y-70167500D03*
X92392500Y-70167500D03*
X94932500Y-70167500D03*
X97472500Y-70167500D03*
X100012500Y-70167500D03*
X102552500Y-70167500D03*
X105092500Y-70167500D03*
D12*
X47942500Y-75882500D03*
D13*
X50442500Y-75882500D03*
D12*
X68262500Y-75882500D03*
D13*
X65762500Y-75882500D03*
D12*
X86868000Y-75692000D03*
D13*
X89368000Y-75692000D03*
D12*
X107696000Y-75692000D03*
D13*
X105196000Y-75692000D03*
D12*
X120650000Y-76200000D03*
D13*
X123150000Y-76200000D03*
D12*
X141605000Y-75565000D03*
D13*
X139105000Y-75565000D03*
D12*
X157734000Y-75438000D03*
D13*
X160234000Y-75438000D03*
D12*
X178816000Y-75438000D03*
D13*
X176316000Y-75438000D03*
D12*
X67310000Y-103505000D03*
D13*
X64810000Y-103505000D03*
D12*
X46990000Y-103505000D03*
D13*
X49490000Y-103505000D03*
D12*
X106680000Y-104140000D03*
D13*
X104180000Y-104140000D03*
D12*
X85344000Y-104140000D03*
D13*
X87844000Y-104140000D03*
D12*
X142240000Y-104140000D03*
D13*
X139740000Y-104140000D03*
D12*
X120904000Y-104140000D03*
D13*
X123404000Y-104140000D03*
D12*
X178308000Y-103632000D03*
D13*
X175808000Y-103632000D03*
D12*
X156972000Y-103632000D03*
D13*
X159472000Y-103632000D03*
D14*
X63881000Y-55753000D03*
D15*
X61341000Y-55753000D03*
X58801000Y-55753000D03*
X56261000Y-55753000D03*
X53721000Y-55753000D03*
X51181000Y-55753000D03*
D14*
X102616000Y-55626000D03*
D15*
X100076000Y-55626000D03*
X97536000Y-55626000D03*
X94996000Y-55626000D03*
X92456000Y-55626000D03*
X89916000Y-55626000D03*
D14*
X136652000Y-55118000D03*
D15*
X134112000Y-55118000D03*
X131572000Y-55118000D03*
X129032000Y-55118000D03*
X126492000Y-55118000D03*
X123952000Y-55118000D03*
D14*
X173736000Y-55118000D03*
D15*
X171196000Y-55118000D03*
X168656000Y-55118000D03*
X166116000Y-55118000D03*
X163576000Y-55118000D03*
X161036000Y-55118000D03*
D14*
X51765200Y-122682000D03*
D15*
X54305200Y-122682000D03*
X56845200Y-122682000D03*
X59385200Y-122682000D03*
X61925200Y-122682000D03*
X64465200Y-122682000D03*
D14*
X90805000Y-122555000D03*
D15*
X93345000Y-122555000D03*
X95885000Y-122555000D03*
X98425000Y-122555000D03*
X100965000Y-122555000D03*
X103505000Y-122555000D03*
D14*
X126365000Y-122555000D03*
D15*
X128905000Y-122555000D03*
X131445000Y-122555000D03*
X133985000Y-122555000D03*
X136525000Y-122555000D03*
X139065000Y-122555000D03*
D14*
X162560000Y-122555000D03*
D15*
X165100000Y-122555000D03*
X167640000Y-122555000D03*
X170180000Y-122555000D03*
X172720000Y-122555000D03*
X175260000Y-122555000D03*
D16*
X178562000Y-87122000D03*
X176022000Y-87122000D03*
X173482000Y-87122000D03*
X170942000Y-87122000D03*
X168402000Y-87122000D03*
X165862000Y-87122000D03*
X163322000Y-87122000D03*
X160782000Y-87122000D03*
X160782000Y-87122000D03*
X163322000Y-87122000D03*
X165862000Y-87122000D03*
X168402000Y-87122000D03*
X170942000Y-87122000D03*
X173482000Y-87122000D03*
X176022000Y-87122000D03*
X178562000Y-87122000D03*
X178562000Y-92202000D03*
X176022000Y-92202000D03*
X173482000Y-92202000D03*
X170942000Y-92202000D03*
X168402000Y-92202000D03*
X165862000Y-92202000D03*
X163322000Y-92202000D03*
X160782000Y-92202000D03*
X160782000Y-92202000D03*
X163322000Y-92202000D03*
X165862000Y-92202000D03*
X168402000Y-92202000D03*
X170942000Y-92202000D03*
X173482000Y-92202000D03*
X176022000Y-92202000D03*
X178562000Y-92202000D03*
X140970000Y-86995000D03*
X138430000Y-86995000D03*
X135890000Y-86995000D03*
X133350000Y-86995000D03*
X130810000Y-86995000D03*
X128270000Y-86995000D03*
X125730000Y-86995000D03*
X123190000Y-86995000D03*
X123190000Y-86995000D03*
X125730000Y-86995000D03*
X128270000Y-86995000D03*
X130810000Y-86995000D03*
X133350000Y-86995000D03*
X135890000Y-86995000D03*
X138430000Y-86995000D03*
X140970000Y-86995000D03*
X140970000Y-92075000D03*
X138430000Y-92075000D03*
X135890000Y-92075000D03*
X133350000Y-92075000D03*
X130810000Y-92075000D03*
X128270000Y-92075000D03*
X125730000Y-92075000D03*
X123190000Y-92075000D03*
X123190000Y-92075000D03*
X125730000Y-92075000D03*
X128270000Y-92075000D03*
X130810000Y-92075000D03*
X133350000Y-92075000D03*
X135890000Y-92075000D03*
X138430000Y-92075000D03*
X140970000Y-92075000D03*
X106680000Y-86995000D03*
X104140000Y-86995000D03*
X101600000Y-86995000D03*
X99060000Y-86995000D03*
X96520000Y-86995000D03*
X93980000Y-86995000D03*
X91440000Y-86995000D03*
X88900000Y-86995000D03*
X88900000Y-86995000D03*
X91440000Y-86995000D03*
X93980000Y-86995000D03*
X96520000Y-86995000D03*
X99060000Y-86995000D03*
X101600000Y-86995000D03*
X104140000Y-86995000D03*
X106680000Y-86995000D03*
X106680000Y-92075000D03*
X104140000Y-92075000D03*
X101600000Y-92075000D03*
X99060000Y-92075000D03*
X96520000Y-92075000D03*
X93980000Y-92075000D03*
X91440000Y-92075000D03*
X88900000Y-92075000D03*
X88900000Y-92075000D03*
X91440000Y-92075000D03*
X93980000Y-92075000D03*
X96520000Y-92075000D03*
X99060000Y-92075000D03*
X101600000Y-92075000D03*
X104140000Y-92075000D03*
X106680000Y-92075000D03*
X67818000Y-86868000D03*
X65278000Y-86868000D03*
X62738000Y-86868000D03*
X60198000Y-86868000D03*
X57658000Y-86868000D03*
X55118000Y-86868000D03*
X52578000Y-86868000D03*
X50038000Y-86868000D03*
X50038000Y-86868000D03*
X52578000Y-86868000D03*
X55118000Y-86868000D03*
X57658000Y-86868000D03*
X60198000Y-86868000D03*
X62738000Y-86868000D03*
X65278000Y-86868000D03*
X67818000Y-86868000D03*
X67818000Y-91948000D03*
X65278000Y-91948000D03*
X62738000Y-91948000D03*
X60198000Y-91948000D03*
X57658000Y-91948000D03*
X55118000Y-91948000D03*
X52578000Y-91948000D03*
X50038000Y-91948000D03*
X50038000Y-91948000D03*
X52578000Y-91948000D03*
X55118000Y-91948000D03*
X57658000Y-91948000D03*
X60198000Y-91948000D03*
X62738000Y-91948000D03*
X65278000Y-91948000D03*
X67818000Y-91948000D03*
D17*
X44196000Y-91948000D03*
X44196000Y-89408000D03*
X44196000Y-86868000D03*
M02*
