M48
INCH,TZ
T1C0.016
T2C0.031
T3C0.032
T4C0.039
T5C0.040
T6C0.043
%
G90
G05
T1
X15600Y-46400
X15700Y-23500
X15700Y-25200
X15800Y-34200
X15800Y-35200
X15800Y-36000
X15800Y-36200
X15800Y-36400
X16000Y-46800
X16200Y-45400
X16300Y-25000
X16400Y-23000
X16400Y-47200
X16800Y-44800
X16800Y-45800
X17200Y-46400
X17400Y-42600
X17500Y-25900
X17500Y-39700
X17700Y-28500
X17800Y-44800
X17900Y-23000
X17900Y-23600
X18120Y-46100
X18200Y-26400
X18220Y-42770
X18300Y-31500
X18400Y-47000
X18500Y-33400
X18500Y-35200
X18500Y-36800
X18500Y-38600
X18800Y-47400
X19000Y-42000
X19600Y-26100
X19700Y-28600
X19700Y-38700
X19900Y-32200
X20200Y-40400
X20300Y-29300
X20400Y-44800
X20600Y-26900
X20800Y-26000
X20820Y-41440
X20960Y-43730
X21400Y-43800
X21800Y-43800
X23700Y-26600
X24100Y-26600
X24600Y-26800
X24600Y-28900
X24800Y-44400
X24890Y-41410
X24900Y-43520
X25300Y-30100
X26000Y-42000
X26000Y-44200
X26200Y-47400
X26600Y-28600
X26600Y-47000
X26900Y-22900
X27400Y-24300
X27400Y-27800
X27600Y-47000
X27800Y-37400
X27900Y-34900
X27900Y-40900
X27900Y-44800
X28000Y-25000
X28000Y-31700
X28200Y-29500
X28600Y-25600
X28600Y-27400
X28600Y-47400
X28800Y-24200
X29200Y-25000
X29600Y-47000
X30000Y-44800
X30200Y-24100
X30400Y-23000
X30600Y-46200
X30700Y-25900
X31000Y-43800
X31000Y-47400
X31400Y-46200
X31800Y-45000
X32000Y-47000
X32200Y-46200
X32500Y-41000
X32900Y-26000
X33000Y-28800
X33200Y-32300
X33300Y-23000
X33300Y-23700
X33400Y-42850
X33400Y-46500
X33400Y-47400
X33600Y-35500
X33600Y-38600
X34700Y-26200
X34800Y-28600
X35600Y-29200
X35600Y-40500
X35900Y-27000
X36100Y-26100
X36200Y-41750
X36250Y-43700
X36800Y-44000
X37300Y-44000
X38900Y-26600
X39400Y-26600
X39900Y-26700
X39900Y-28500
X40100Y-44700
X40250Y-43800
X40300Y-41450
X40900Y-30100
X41400Y-42000
X41400Y-44700
X42300Y-47400
X42500Y-23000
X42600Y-44900
X42800Y-24100
X42800Y-27700
X43000Y-40800
X43100Y-23400
X43100Y-31500
X43100Y-37900
X43200Y-34800
X43600Y-24400
X43600Y-28900
X44200Y-24400
X44200Y-45000
X44400Y-46200
X44500Y-26700
X44700Y-23400
X45000Y-24400
X45100Y-43800
X45100Y-47400
X45400Y-46200
X45600Y-25700
X46000Y-44800
X46200Y-41200
X46200Y-46200
X46500Y-30000
X46600Y-32100
X46700Y-25800
X46900Y-22900
X46900Y-23400
X46900Y-28000
X47000Y-39300
X47100Y-34400
X47200Y-42900
X47200Y-46100
X47300Y-36800
X47700Y-47400
X47900Y-43000
X48200Y-26200
X48300Y-28700
X49000Y-29500
X49100Y-40300
X49200Y-26100
X49300Y-27300
X50000Y-41300
X50300Y-43800
X50800Y-44000
X51200Y-44000
X52400Y-26700
X52800Y-26700
X53300Y-27000
X53300Y-29100
X54100Y-44600
X54300Y-30200
X54300Y-41300
X54300Y-43600
X55100Y-42000
X55400Y-22900
X55400Y-44500
X55800Y-23400
X55900Y-24400
X56000Y-28000
X56000Y-38600
X56300Y-47400
X56600Y-31800
X56600Y-35000
X56700Y-37500
X56800Y-24400
X56800Y-44600
X56900Y-40100
X56900Y-42400
X57000Y-29300
X57600Y-24400
X57600Y-27100
X58200Y-23400
X58300Y-47400
X58400Y-24400
X58800Y-22900
X58800Y-25500
X59200Y-44600
X59200Y-46200
X60100Y-47400
X60200Y-46200
X60700Y-39700
X60700Y-42900
X61000Y-46200
X61200Y-30400
X61300Y-25600
X61300Y-27000
X61600Y-42500
X61600Y-46200
X61700Y-22900
X61700Y-23400
X62200Y-33600
X62200Y-36800
X62800Y-26300
X62900Y-28600
X63600Y-29200
X63600Y-40000
X63900Y-27000
X64000Y-26100
X64500Y-41300
X64500Y-43750
X65100Y-43800
X65600Y-43800
X67000Y-26600
X67400Y-26600
X67900Y-26800
X67900Y-29100
X68200Y-44400
X68550Y-41100
X68550Y-43450
X68900Y-30100
X69400Y-41800
X69700Y-44200
X70400Y-22800
X70800Y-24000
X70800Y-27800
X71400Y-23800
X71400Y-45000
X71800Y-41000
X71900Y-36200
X72100Y-27700
X72100Y-31600
X72400Y-22800
X72400Y-25600
X72800Y-23200
X72800Y-23800
T2
X17375Y-43891
X17375Y-44875
X18500Y-40750
X18875Y-29875
X19375Y-42875
X19375Y-45875
X20125Y-24625
X20125Y-27625
X20375Y-42875
X20375Y-45875
X21125Y-24625
X21125Y-27625
X21375Y-42875
X21375Y-45875
X22125Y-24625
X22125Y-27625
X22375Y-42875
X22375Y-45875
X23125Y-24625
X23125Y-27625
X23375Y-42875
X23375Y-45875
X24125Y-24625
X24125Y-27625
X24375Y-42875
X24375Y-45875
X25125Y-24625
X25125Y-27625
X25375Y-42875
X25375Y-45875
X26125Y-24625
X26125Y-27625
X26500Y-40750
X26875Y-29875
X27875Y-25625
X27875Y-26609
X32750Y-44016
X32750Y-45000
X33600Y-41000
X34200Y-29800
X34750Y-43000
X34750Y-46000
X35375Y-24625
X35375Y-27625
X35750Y-43000
X35750Y-46000
X36375Y-24625
X36375Y-27625
X36750Y-43000
X36750Y-46000
X37375Y-24625
X37375Y-27625
X37750Y-43000
X37750Y-46000
X38375Y-24625
X38375Y-27625
X38750Y-43000
X38750Y-46000
X39375Y-24625
X39375Y-27625
X39750Y-43000
X39750Y-46000
X40375Y-24625
X40375Y-27625
X40750Y-43000
X40750Y-46000
X41375Y-24625
X41375Y-27625
X42000Y-41000
X42400Y-29800
X43375Y-25625
X43375Y-26609
X46625Y-43891
X46625Y-44875
X47500Y-30000
X47600Y-41000
X48750Y-24750
X48750Y-27750
X48750Y-43000
X48750Y-46000
X49750Y-24750
X49750Y-27750
X49750Y-43000
X49750Y-46000
X50750Y-24750
X50750Y-27750
X50750Y-43000
X50750Y-46000
X51750Y-24750
X51750Y-27750
X51750Y-43000
X51750Y-46000
X52750Y-24750
X52750Y-27750
X52750Y-43000
X52750Y-46000
X53750Y-24750
X53750Y-27750
X53750Y-43000
X53750Y-46000
X54750Y-24750
X54750Y-27750
X54750Y-43000
X54750Y-46000
X55750Y-29750
X56000Y-41000
X56750Y-25750
X56750Y-26734
X61000Y-43816
X61000Y-44800
X61800Y-40800
X62100Y-29700
X63000Y-42800
X63000Y-45800
X63375Y-24625
X63375Y-27625
X64000Y-42800
X64000Y-45800
X64375Y-24625
X64375Y-27625
X65000Y-42800
X65000Y-45800
X65375Y-24625
X65375Y-27625
X66000Y-42800
X66000Y-45800
X66375Y-24625
X66375Y-27625
X67000Y-42800
X67000Y-45800
X67375Y-24625
X67375Y-27625
X68000Y-42800
X68000Y-45800
X68375Y-24625
X68375Y-27625
X69000Y-42800
X69000Y-45800
X69375Y-24625
X69375Y-27625
X70200Y-40800
X70400Y-29700
X71375Y-25625
X71375Y-26609
T3
X19484Y-40750
X19859Y-29875
X25516Y-40750
X25891Y-29875
X34584Y-41000
X35184Y-29800
X41016Y-41000
X41416Y-29800
X48484Y-30000
X48584Y-41000
X54766Y-29750
X55016Y-41000
X62784Y-40800
X63084Y-29700
X69216Y-40800
X69416Y-29700
T4
X17400Y-34200
X17400Y-35200
X17400Y-36200
T5
X20150Y-21950
X20380Y-48300
X21150Y-21950
X21380Y-48300
X22150Y-21950
X22380Y-48300
X23150Y-21950
X23380Y-48300
X24150Y-21950
X24380Y-48300
X25150Y-21950
X25380Y-48300
X35400Y-21900
X35750Y-48250
X36400Y-21900
X36750Y-48250
X37400Y-21900
X37750Y-48250
X38400Y-21900
X38750Y-48250
X39400Y-21900
X39750Y-48250
X40400Y-21900
X40750Y-48250
X48800Y-21700
X49750Y-48250
X49800Y-21700
X50750Y-48250
X50800Y-21700
X51750Y-48250
X51800Y-21700
X52750Y-48250
X52800Y-21700
X53750Y-48250
X53800Y-21700
X54750Y-48250
X63400Y-21700
X64000Y-48250
X64400Y-21700
X65000Y-48250
X65400Y-21700
X66000Y-48250
X66400Y-21700
X67000Y-48250
X67400Y-21700
X68000Y-48250
X68400Y-21700
X69000Y-48250
T6
X19700Y-34200
X19700Y-34200
X19700Y-36200
X19700Y-36200
X20700Y-34200
X20700Y-34200
X20700Y-36200
X20700Y-36200
X21700Y-34200
X21700Y-34200
X21700Y-36200
X21700Y-36200
X22700Y-34200
X22700Y-34200
X22700Y-36200
X22700Y-36200
X23700Y-34200
X23700Y-34200
X23700Y-36200
X23700Y-36200
X24700Y-34200
X24700Y-34200
X24700Y-36200
X24700Y-36200
X25700Y-34200
X25700Y-34200
X25700Y-36200
X25700Y-36200
X26700Y-34200
X26700Y-34200
X26700Y-36200
X26700Y-36200
X35000Y-34250
X35000Y-34250
X35000Y-36250
X35000Y-36250
X36000Y-34250
X36000Y-34250
X36000Y-36250
X36000Y-36250
X37000Y-34250
X37000Y-34250
X37000Y-36250
X37000Y-36250
X38000Y-34250
X38000Y-34250
X38000Y-36250
X38000Y-36250
X39000Y-34250
X39000Y-34250
X39000Y-36250
X39000Y-36250
X40000Y-34250
X40000Y-34250
X40000Y-36250
X40000Y-36250
X41000Y-34250
X41000Y-34250
X41000Y-36250
X41000Y-36250
X42000Y-34250
X42000Y-34250
X42000Y-36250
X42000Y-36250
X48500Y-34250
X48500Y-34250
X48500Y-36250
X48500Y-36250
X49500Y-34250
X49500Y-34250
X49500Y-36250
X49500Y-36250
X50500Y-34250
X50500Y-34250
X50500Y-36250
X50500Y-36250
X51500Y-34250
X51500Y-34250
X51500Y-36250
X51500Y-36250
X52500Y-34250
X52500Y-34250
X52500Y-36250
X52500Y-36250
X53500Y-34250
X53500Y-34250
X53500Y-36250
X53500Y-36250
X54500Y-34250
X54500Y-34250
X54500Y-36250
X54500Y-36250
X55500Y-34250
X55500Y-34250
X55500Y-36250
X55500Y-36250
X63300Y-34300
X63300Y-34300
X63300Y-36300
X63300Y-36300
X64300Y-34300
X64300Y-34300
X64300Y-36300
X64300Y-36300
X65300Y-34300
X65300Y-34300
X65300Y-36300
X65300Y-36300
X66300Y-34300
X66300Y-34300
X66300Y-36300
X66300Y-36300
X67300Y-34300
X67300Y-34300
X67300Y-36300
X67300Y-36300
X68300Y-34300
X68300Y-34300
X68300Y-36300
X68300Y-36300
X69300Y-34300
X69300Y-34300
X69300Y-36300
X69300Y-36300
X70300Y-34300
X70300Y-34300
X70300Y-36300
X70300Y-36300
T0
M30
