G04 #@! TF.FileFunction,Copper,L2,Bot,Signal*
%FSLAX46Y46*%
G04 Gerber Fmt 4.6, Leading zero omitted, Abs format (unit mm)*
G04 Created by KiCad (PCBNEW 4.0.0-stable) date 3/20/2016 3:51:15 PM*
%MOMM*%
G01*
G04 APERTURE LIST*
%ADD10C,0.100000*%
%ADD11O,1.600000X1.600000*%
%ADD12R,1.300000X1.300000*%
%ADD13C,1.300000*%
%ADD14R,1.727200X2.032000*%
%ADD15O,1.727200X2.032000*%
%ADD16C,2.000000*%
%ADD17O,3.014980X1.506220*%
%ADD18C,0.600000*%
%ADD19C,0.250000*%
%ADD20C,0.254000*%
G04 APERTURE END LIST*
D10*
D11*
X66357500Y-62547500D03*
X63817500Y-62547500D03*
X61277500Y-62547500D03*
X58737500Y-62547500D03*
X56197500Y-62547500D03*
X53657500Y-62547500D03*
X51117500Y-62547500D03*
X51117500Y-70167500D03*
X53657500Y-70167500D03*
X56197500Y-70167500D03*
X58737500Y-70167500D03*
X61277500Y-70167500D03*
X63817500Y-70167500D03*
X66357500Y-70167500D03*
D12*
X70802500Y-65087500D03*
D13*
X70802500Y-67587500D03*
D12*
X110172500Y-65087500D03*
D13*
X110172500Y-67587500D03*
D12*
X144145000Y-65405000D03*
D13*
X144145000Y-67905000D03*
D12*
X181292500Y-65087500D03*
D13*
X181292500Y-67587500D03*
D12*
X44132500Y-113982500D03*
D13*
X44132500Y-111482500D03*
D12*
X83185000Y-114300000D03*
D13*
X83185000Y-111800000D03*
D12*
X118427500Y-113982500D03*
D13*
X118427500Y-111482500D03*
D12*
X154940000Y-113792000D03*
D13*
X154940000Y-111292000D03*
D11*
X160020000Y-116332000D03*
X162560000Y-116332000D03*
X165100000Y-116332000D03*
X167640000Y-116332000D03*
X170180000Y-116332000D03*
X172720000Y-116332000D03*
X175260000Y-116332000D03*
X175260000Y-108712000D03*
X172720000Y-108712000D03*
X170180000Y-108712000D03*
X167640000Y-108712000D03*
X165100000Y-108712000D03*
X162560000Y-108712000D03*
X160020000Y-108712000D03*
X123825000Y-116840000D03*
X126365000Y-116840000D03*
X128905000Y-116840000D03*
X131445000Y-116840000D03*
X133985000Y-116840000D03*
X136525000Y-116840000D03*
X139065000Y-116840000D03*
X139065000Y-109220000D03*
X136525000Y-109220000D03*
X133985000Y-109220000D03*
X131445000Y-109220000D03*
X128905000Y-109220000D03*
X126365000Y-109220000D03*
X123825000Y-109220000D03*
X88265000Y-116840000D03*
X90805000Y-116840000D03*
X93345000Y-116840000D03*
X95885000Y-116840000D03*
X98425000Y-116840000D03*
X100965000Y-116840000D03*
X103505000Y-116840000D03*
X103505000Y-109220000D03*
X100965000Y-109220000D03*
X98425000Y-109220000D03*
X95885000Y-109220000D03*
X93345000Y-109220000D03*
X90805000Y-109220000D03*
X88265000Y-109220000D03*
X49212500Y-116522500D03*
X51752500Y-116522500D03*
X54292500Y-116522500D03*
X56832500Y-116522500D03*
X59372500Y-116522500D03*
X61912500Y-116522500D03*
X64452500Y-116522500D03*
X64452500Y-108902500D03*
X61912500Y-108902500D03*
X59372500Y-108902500D03*
X56832500Y-108902500D03*
X54292500Y-108902500D03*
X51752500Y-108902500D03*
X49212500Y-108902500D03*
X176212500Y-62547500D03*
X173672500Y-62547500D03*
X171132500Y-62547500D03*
X168592500Y-62547500D03*
X166052500Y-62547500D03*
X163512500Y-62547500D03*
X160972500Y-62547500D03*
X160972500Y-70167500D03*
X163512500Y-70167500D03*
X166052500Y-70167500D03*
X168592500Y-70167500D03*
X171132500Y-70167500D03*
X173672500Y-70167500D03*
X176212500Y-70167500D03*
X139065000Y-62865000D03*
X136525000Y-62865000D03*
X133985000Y-62865000D03*
X131445000Y-62865000D03*
X128905000Y-62865000D03*
X126365000Y-62865000D03*
X123825000Y-62865000D03*
X123825000Y-70485000D03*
X126365000Y-70485000D03*
X128905000Y-70485000D03*
X131445000Y-70485000D03*
X133985000Y-70485000D03*
X136525000Y-70485000D03*
X139065000Y-70485000D03*
X105092500Y-62547500D03*
X102552500Y-62547500D03*
X100012500Y-62547500D03*
X97472500Y-62547500D03*
X94932500Y-62547500D03*
X92392500Y-62547500D03*
X89852500Y-62547500D03*
X89852500Y-70167500D03*
X92392500Y-70167500D03*
X94932500Y-70167500D03*
X97472500Y-70167500D03*
X100012500Y-70167500D03*
X102552500Y-70167500D03*
X105092500Y-70167500D03*
D12*
X47942500Y-75882500D03*
D13*
X50442500Y-75882500D03*
D12*
X68262500Y-75882500D03*
D13*
X65762500Y-75882500D03*
D12*
X86868000Y-75692000D03*
D13*
X89368000Y-75692000D03*
D12*
X107696000Y-75692000D03*
D13*
X105196000Y-75692000D03*
D12*
X120650000Y-76200000D03*
D13*
X123150000Y-76200000D03*
D12*
X141605000Y-75565000D03*
D13*
X139105000Y-75565000D03*
D12*
X157734000Y-75438000D03*
D13*
X160234000Y-75438000D03*
D12*
X178816000Y-75438000D03*
D13*
X176316000Y-75438000D03*
D12*
X67310000Y-103505000D03*
D13*
X64810000Y-103505000D03*
D12*
X46990000Y-103505000D03*
D13*
X49490000Y-103505000D03*
D12*
X106680000Y-104140000D03*
D13*
X104180000Y-104140000D03*
D12*
X85344000Y-104140000D03*
D13*
X87844000Y-104140000D03*
D12*
X142240000Y-104140000D03*
D13*
X139740000Y-104140000D03*
D12*
X120904000Y-104140000D03*
D13*
X123404000Y-104140000D03*
D12*
X178308000Y-103632000D03*
D13*
X175808000Y-103632000D03*
D12*
X156972000Y-103632000D03*
D13*
X159472000Y-103632000D03*
D14*
X63881000Y-55753000D03*
D15*
X61341000Y-55753000D03*
X58801000Y-55753000D03*
X56261000Y-55753000D03*
X53721000Y-55753000D03*
X51181000Y-55753000D03*
D14*
X102616000Y-55626000D03*
D15*
X100076000Y-55626000D03*
X97536000Y-55626000D03*
X94996000Y-55626000D03*
X92456000Y-55626000D03*
X89916000Y-55626000D03*
D14*
X136652000Y-55118000D03*
D15*
X134112000Y-55118000D03*
X131572000Y-55118000D03*
X129032000Y-55118000D03*
X126492000Y-55118000D03*
X123952000Y-55118000D03*
D14*
X173736000Y-55118000D03*
D15*
X171196000Y-55118000D03*
X168656000Y-55118000D03*
X166116000Y-55118000D03*
X163576000Y-55118000D03*
X161036000Y-55118000D03*
D14*
X51765200Y-122682000D03*
D15*
X54305200Y-122682000D03*
X56845200Y-122682000D03*
X59385200Y-122682000D03*
X61925200Y-122682000D03*
X64465200Y-122682000D03*
D14*
X90805000Y-122555000D03*
D15*
X93345000Y-122555000D03*
X95885000Y-122555000D03*
X98425000Y-122555000D03*
X100965000Y-122555000D03*
X103505000Y-122555000D03*
D14*
X126365000Y-122555000D03*
D15*
X128905000Y-122555000D03*
X131445000Y-122555000D03*
X133985000Y-122555000D03*
X136525000Y-122555000D03*
X139065000Y-122555000D03*
D14*
X162560000Y-122555000D03*
D15*
X165100000Y-122555000D03*
X167640000Y-122555000D03*
X170180000Y-122555000D03*
X172720000Y-122555000D03*
X175260000Y-122555000D03*
D16*
X178562000Y-87122000D03*
X176022000Y-87122000D03*
X173482000Y-87122000D03*
X170942000Y-87122000D03*
X168402000Y-87122000D03*
X165862000Y-87122000D03*
X163322000Y-87122000D03*
X160782000Y-87122000D03*
X160782000Y-87122000D03*
X163322000Y-87122000D03*
X165862000Y-87122000D03*
X168402000Y-87122000D03*
X170942000Y-87122000D03*
X173482000Y-87122000D03*
X176022000Y-87122000D03*
X178562000Y-87122000D03*
X178562000Y-92202000D03*
X176022000Y-92202000D03*
X173482000Y-92202000D03*
X170942000Y-92202000D03*
X168402000Y-92202000D03*
X165862000Y-92202000D03*
X163322000Y-92202000D03*
X160782000Y-92202000D03*
X160782000Y-92202000D03*
X163322000Y-92202000D03*
X165862000Y-92202000D03*
X168402000Y-92202000D03*
X170942000Y-92202000D03*
X173482000Y-92202000D03*
X176022000Y-92202000D03*
X178562000Y-92202000D03*
X140970000Y-86995000D03*
X138430000Y-86995000D03*
X135890000Y-86995000D03*
X133350000Y-86995000D03*
X130810000Y-86995000D03*
X128270000Y-86995000D03*
X125730000Y-86995000D03*
X123190000Y-86995000D03*
X123190000Y-86995000D03*
X125730000Y-86995000D03*
X128270000Y-86995000D03*
X130810000Y-86995000D03*
X133350000Y-86995000D03*
X135890000Y-86995000D03*
X138430000Y-86995000D03*
X140970000Y-86995000D03*
X140970000Y-92075000D03*
X138430000Y-92075000D03*
X135890000Y-92075000D03*
X133350000Y-92075000D03*
X130810000Y-92075000D03*
X128270000Y-92075000D03*
X125730000Y-92075000D03*
X123190000Y-92075000D03*
X123190000Y-92075000D03*
X125730000Y-92075000D03*
X128270000Y-92075000D03*
X130810000Y-92075000D03*
X133350000Y-92075000D03*
X135890000Y-92075000D03*
X138430000Y-92075000D03*
X140970000Y-92075000D03*
X106680000Y-86995000D03*
X104140000Y-86995000D03*
X101600000Y-86995000D03*
X99060000Y-86995000D03*
X96520000Y-86995000D03*
X93980000Y-86995000D03*
X91440000Y-86995000D03*
X88900000Y-86995000D03*
X88900000Y-86995000D03*
X91440000Y-86995000D03*
X93980000Y-86995000D03*
X96520000Y-86995000D03*
X99060000Y-86995000D03*
X101600000Y-86995000D03*
X104140000Y-86995000D03*
X106680000Y-86995000D03*
X106680000Y-92075000D03*
X104140000Y-92075000D03*
X101600000Y-92075000D03*
X99060000Y-92075000D03*
X96520000Y-92075000D03*
X93980000Y-92075000D03*
X91440000Y-92075000D03*
X88900000Y-92075000D03*
X88900000Y-92075000D03*
X91440000Y-92075000D03*
X93980000Y-92075000D03*
X96520000Y-92075000D03*
X99060000Y-92075000D03*
X101600000Y-92075000D03*
X104140000Y-92075000D03*
X106680000Y-92075000D03*
X67818000Y-86868000D03*
X65278000Y-86868000D03*
X62738000Y-86868000D03*
X60198000Y-86868000D03*
X57658000Y-86868000D03*
X55118000Y-86868000D03*
X52578000Y-86868000D03*
X50038000Y-86868000D03*
X50038000Y-86868000D03*
X52578000Y-86868000D03*
X55118000Y-86868000D03*
X57658000Y-86868000D03*
X60198000Y-86868000D03*
X62738000Y-86868000D03*
X65278000Y-86868000D03*
X67818000Y-86868000D03*
X67818000Y-91948000D03*
X65278000Y-91948000D03*
X62738000Y-91948000D03*
X60198000Y-91948000D03*
X57658000Y-91948000D03*
X55118000Y-91948000D03*
X52578000Y-91948000D03*
X50038000Y-91948000D03*
X50038000Y-91948000D03*
X52578000Y-91948000D03*
X55118000Y-91948000D03*
X57658000Y-91948000D03*
X60198000Y-91948000D03*
X62738000Y-91948000D03*
X65278000Y-91948000D03*
X67818000Y-91948000D03*
D17*
X44196000Y-91948000D03*
X44196000Y-89408000D03*
X44196000Y-86868000D03*
D18*
X141732000Y-59436000D03*
X147828000Y-59436000D03*
X156718000Y-59436000D03*
X156718000Y-58166000D03*
X149352000Y-58166000D03*
X140716000Y-58166000D03*
X109474000Y-59436000D03*
X113538000Y-59436000D03*
X119126000Y-59436000D03*
X119126000Y-58166000D03*
X107950000Y-58420000D03*
X73152000Y-61468000D03*
X76708000Y-61214000D03*
X84582000Y-60198000D03*
X84582000Y-58420000D03*
X77216000Y-58420000D03*
X68326000Y-58166000D03*
X40132000Y-86868000D03*
X40132000Y-89408000D03*
X39878000Y-64008000D03*
X39878000Y-59690000D03*
X41656000Y-58420000D03*
X45466000Y-58420000D03*
X45466000Y-59944000D03*
X41402000Y-63500000D03*
X107442000Y-120396000D03*
X114554000Y-120396000D03*
X121158000Y-120396000D03*
X152654000Y-120396000D03*
X148082000Y-120396000D03*
X143002000Y-120396000D03*
X67564000Y-119380000D03*
X70104000Y-119380000D03*
X75184000Y-119380000D03*
X81280000Y-119380000D03*
X84836000Y-120396000D03*
X78740000Y-120396000D03*
X72644000Y-120396000D03*
X66548000Y-120396000D03*
X72644000Y-65024000D03*
X74168000Y-63500000D03*
X71120000Y-63500000D03*
X110744000Y-61976000D03*
X112268000Y-61976000D03*
X114300000Y-61976000D03*
X148336000Y-61976000D03*
X146304000Y-61976000D03*
X144272000Y-61976000D03*
X181356000Y-60452000D03*
X178816000Y-57912000D03*
X183896000Y-57912000D03*
X184912000Y-58928000D03*
X184912000Y-60452000D03*
X183896000Y-65024000D03*
X154940000Y-117348000D03*
X152908000Y-117348000D03*
X150368000Y-117348000D03*
X117348000Y-117348000D03*
X115316000Y-117348000D03*
X112776000Y-117348000D03*
X116840000Y-113792000D03*
X81788000Y-117348000D03*
X79756000Y-117348000D03*
X77724000Y-117348000D03*
X80772000Y-114300000D03*
X45212000Y-113792000D03*
X42672000Y-113792000D03*
X40132000Y-92456000D03*
X43688000Y-117856000D03*
X42672000Y-116332000D03*
X41148000Y-115316000D03*
X46736000Y-119380000D03*
X47752000Y-120396000D03*
X41656000Y-119888000D03*
X40640000Y-118872000D03*
X39624000Y-117856000D03*
X40132000Y-91440000D03*
X40132000Y-91948000D03*
X46990000Y-98044000D03*
X50038000Y-98298000D03*
X44450000Y-65786000D03*
X46228000Y-67056000D03*
X44958000Y-72390000D03*
X46482000Y-80010000D03*
X50546000Y-81788000D03*
X46990000Y-84836000D03*
X46990000Y-89408000D03*
X46990000Y-93472000D03*
X44450000Y-100838000D03*
X44196000Y-108204000D03*
X181356000Y-114300000D03*
X182372000Y-104140000D03*
X182626000Y-91948000D03*
X183134000Y-80264000D03*
X183134000Y-70358000D03*
X82550000Y-104140000D03*
X85344000Y-98044000D03*
X85344000Y-90170000D03*
X84328000Y-82042000D03*
X83820000Y-73152000D03*
X83566000Y-66040000D03*
X77978000Y-65786000D03*
X72644000Y-69596000D03*
X71628000Y-74930000D03*
X71120000Y-80518000D03*
X70866000Y-88646000D03*
X70612000Y-94996000D03*
X70866000Y-103886000D03*
X70866000Y-113792000D03*
X76200000Y-113792000D03*
X78740000Y-111252000D03*
X117348000Y-104648000D03*
X119380000Y-99822000D03*
X120142000Y-93472000D03*
X119634000Y-87376000D03*
X118364000Y-81534000D03*
X118110000Y-76200000D03*
X119126000Y-71120000D03*
X118618000Y-65532000D03*
X115824000Y-65278000D03*
X113030000Y-67818000D03*
X110744000Y-73406000D03*
X109474000Y-80010000D03*
X109728000Y-88392000D03*
X109474000Y-96266000D03*
X109220000Y-103632000D03*
X108204000Y-114046000D03*
X112268000Y-114300000D03*
X114554000Y-111252000D03*
X144526000Y-107696000D03*
X144526000Y-101854000D03*
X142240000Y-98044000D03*
X144018000Y-95250000D03*
X143764000Y-88900000D03*
X143764000Y-80772000D03*
X144780000Y-74422000D03*
X146304000Y-68834000D03*
X149352000Y-64770000D03*
X155702000Y-65024000D03*
X155702000Y-68580000D03*
X155448000Y-77216000D03*
X157988000Y-85344000D03*
X157988000Y-93472000D03*
X154178000Y-100838000D03*
X154178000Y-108966000D03*
X150368000Y-113284000D03*
X144272000Y-113284000D03*
X176276000Y-106172000D03*
X173228000Y-112776000D03*
X177038000Y-112268000D03*
X121666000Y-109220000D03*
X162560000Y-66294000D03*
X159512000Y-66802000D03*
X159766000Y-72644000D03*
X124968000Y-66294000D03*
X122428000Y-66548000D03*
X122682000Y-72898000D03*
X137922000Y-76708000D03*
X91694000Y-66294000D03*
X88138000Y-66548000D03*
X88392000Y-72644000D03*
X103886000Y-76454000D03*
X67564000Y-72644000D03*
X98806000Y-67564000D03*
X100076000Y-67564000D03*
X133096000Y-67818000D03*
X134112000Y-67818000D03*
X170180000Y-67564000D03*
X171196000Y-67564000D03*
X175006000Y-76454000D03*
X50038000Y-72644000D03*
X52832000Y-66040000D03*
X49784000Y-66294000D03*
X64262000Y-76454000D03*
X60198000Y-67564000D03*
X61214000Y-67564000D03*
X161544000Y-101600000D03*
X166624000Y-111252000D03*
X165354000Y-111252000D03*
X139954000Y-106680000D03*
X137414000Y-113284000D03*
X140716000Y-113030000D03*
X130048000Y-111760000D03*
X129032000Y-111760000D03*
X124714000Y-102362000D03*
X105156000Y-106680000D03*
X101854000Y-113538000D03*
X105156000Y-113538000D03*
X94742000Y-111760000D03*
X93472000Y-111760000D03*
X90424000Y-102870000D03*
X51308000Y-102616000D03*
X51816000Y-113792000D03*
X66040000Y-106680000D03*
X62992000Y-112776000D03*
X66040000Y-112268000D03*
X48260000Y-106680000D03*
X55372000Y-111252000D03*
X54356000Y-111252000D03*
X69596000Y-61722000D03*
X69596000Y-70612000D03*
X108712000Y-61214000D03*
X108712000Y-70358000D03*
X141986000Y-61976000D03*
X142240000Y-71120000D03*
X179832000Y-60960000D03*
X179832000Y-70612000D03*
X46024800Y-117094000D03*
X46278800Y-108635800D03*
X84836000Y-108839000D03*
X84836000Y-118110000D03*
X119888000Y-117094000D03*
X119888000Y-108966000D03*
X156464000Y-117348000D03*
X156464000Y-107950000D03*
X172466000Y-73914000D03*
X172466000Y-68072000D03*
X161544000Y-74168000D03*
X162306000Y-68580000D03*
X135382000Y-73914000D03*
X135382000Y-68580000D03*
X124460000Y-74930000D03*
X125222000Y-69342000D03*
X101346000Y-72390000D03*
X101346000Y-67818000D03*
X90424000Y-74168000D03*
X91186000Y-68580000D03*
X62484000Y-73406000D03*
X62484000Y-68072000D03*
X51562000Y-74422000D03*
X52324000Y-68326000D03*
X163830000Y-104902000D03*
X163830000Y-111125000D03*
X174117000Y-104394000D03*
X174117000Y-110363000D03*
X127000000Y-104902000D03*
X127762000Y-111252000D03*
X137922000Y-104902000D03*
X137922000Y-110744000D03*
X91948000Y-106045000D03*
X92075000Y-110998000D03*
X102362000Y-105283000D03*
X102235000Y-111252000D03*
X63220600Y-105181400D03*
X63246000Y-110540800D03*
X52882800Y-105257600D03*
X53238400Y-111074200D03*
D19*
X119126000Y-58166000D02*
X140716000Y-58166000D01*
X156718000Y-59436000D02*
X147828000Y-59436000D01*
X149352000Y-58166000D02*
X156718000Y-58166000D01*
X84582000Y-58420000D02*
X107950000Y-58420000D01*
X113538000Y-59436000D02*
X109474000Y-59436000D01*
X119126000Y-58166000D02*
X119126000Y-59436000D01*
X45466000Y-58420000D02*
X68072000Y-58420000D01*
X77216000Y-61214000D02*
X76708000Y-61214000D01*
X78232000Y-60198000D02*
X77216000Y-61214000D01*
X84582000Y-60198000D02*
X78232000Y-60198000D01*
X77216000Y-58420000D02*
X84582000Y-58420000D01*
X68072000Y-58420000D02*
X68326000Y-58166000D01*
X40132000Y-91440000D02*
X40132000Y-89408000D01*
X39878000Y-59690000D02*
X39878000Y-64008000D01*
X45466000Y-58420000D02*
X41656000Y-58420000D01*
X44958000Y-59944000D02*
X45466000Y-59944000D01*
X41402000Y-63500000D02*
X44958000Y-59944000D01*
X121158000Y-120396000D02*
X143002000Y-120396000D01*
X114554000Y-120396000D02*
X121158000Y-120396000D01*
X84836000Y-120396000D02*
X107442000Y-120396000D01*
X148082000Y-120396000D02*
X152654000Y-120396000D01*
X47752000Y-120396000D02*
X66548000Y-120396000D01*
X75184000Y-119380000D02*
X70104000Y-119380000D01*
X83820000Y-119380000D02*
X81280000Y-119380000D01*
X84836000Y-120396000D02*
X83820000Y-119380000D01*
X72644000Y-120396000D02*
X78740000Y-120396000D01*
X70802500Y-65087500D02*
X70802500Y-63817500D01*
X74168000Y-63500000D02*
X72644000Y-65024000D01*
X70802500Y-63817500D02*
X71120000Y-63500000D01*
X110744000Y-61976000D02*
X110744000Y-64516000D01*
X114300000Y-61976000D02*
X112268000Y-61976000D01*
X144907000Y-65405000D02*
X144145000Y-65405000D01*
X148336000Y-61976000D02*
X144907000Y-65405000D01*
X144272000Y-61976000D02*
X146304000Y-61976000D01*
X178816000Y-57912000D02*
X181356000Y-60452000D01*
X184912000Y-58928000D02*
X183896000Y-57912000D01*
X184912000Y-64008000D02*
X184912000Y-60452000D01*
X183896000Y-65024000D02*
X184912000Y-64008000D01*
X154940000Y-113792000D02*
X153924000Y-113792000D01*
X152908000Y-117348000D02*
X154940000Y-117348000D01*
X153924000Y-113792000D02*
X150368000Y-117348000D01*
X115316000Y-117348000D02*
X117348000Y-117348000D01*
X113284000Y-117348000D02*
X112776000Y-117348000D01*
X116840000Y-113792000D02*
X113284000Y-117348000D01*
X90805000Y-109220000D02*
X90805000Y-109855000D01*
X83185000Y-114300000D02*
X80772000Y-114300000D01*
X82296000Y-115189000D02*
X83185000Y-114300000D01*
X82296000Y-116840000D02*
X82296000Y-115189000D01*
X81788000Y-117348000D02*
X82296000Y-116840000D01*
X77724000Y-117348000D02*
X79756000Y-117348000D01*
X44132500Y-113982500D02*
X45021500Y-113982500D01*
X45021500Y-113982500D02*
X45212000Y-113792000D01*
X43688000Y-117348000D02*
X43688000Y-117856000D01*
X42672000Y-116332000D02*
X43688000Y-117348000D01*
X45212000Y-119380000D02*
X41148000Y-115316000D01*
X46736000Y-119380000D02*
X45212000Y-119380000D01*
X42164000Y-120396000D02*
X47752000Y-120396000D01*
X41656000Y-119888000D02*
X42164000Y-120396000D01*
X39624000Y-117856000D02*
X40640000Y-118872000D01*
X40132000Y-91948000D02*
X40132000Y-91440000D01*
X50038000Y-98298000D02*
X47244000Y-98298000D01*
X47244000Y-98298000D02*
X46990000Y-98044000D01*
X44958000Y-65786000D02*
X44450000Y-65786000D01*
X46228000Y-67056000D02*
X44958000Y-65786000D01*
X44958000Y-78486000D02*
X44958000Y-72390000D01*
X46482000Y-80010000D02*
X44958000Y-78486000D01*
X50038000Y-81788000D02*
X50546000Y-81788000D01*
X46990000Y-84836000D02*
X50038000Y-81788000D01*
X46990000Y-93472000D02*
X46990000Y-89408000D01*
X44450000Y-107950000D02*
X44450000Y-100838000D01*
X44196000Y-108204000D02*
X44450000Y-107950000D01*
X181292500Y-67587500D02*
X181292500Y-68516500D01*
X181356000Y-105156000D02*
X181356000Y-114300000D01*
X182372000Y-104140000D02*
X181356000Y-105156000D01*
X182626000Y-80772000D02*
X182626000Y-91948000D01*
X183134000Y-80264000D02*
X182626000Y-80772000D01*
X181292500Y-68516500D02*
X183134000Y-70358000D01*
X83185000Y-111800000D02*
X79288000Y-111800000D01*
X81534000Y-105156000D02*
X81534000Y-106934000D01*
X82550000Y-104140000D02*
X81534000Y-105156000D01*
X85344000Y-90170000D02*
X85344000Y-98044000D01*
X84328000Y-73660000D02*
X84328000Y-82042000D01*
X83820000Y-73152000D02*
X84328000Y-73660000D01*
X78232000Y-66040000D02*
X83566000Y-66040000D01*
X77978000Y-65786000D02*
X78232000Y-66040000D01*
X72644000Y-73914000D02*
X72644000Y-69596000D01*
X71628000Y-74930000D02*
X72644000Y-73914000D01*
X71120000Y-88392000D02*
X71120000Y-80518000D01*
X70866000Y-88646000D02*
X71120000Y-88392000D01*
X70612000Y-103632000D02*
X70612000Y-94996000D01*
X70866000Y-103886000D02*
X70612000Y-103632000D01*
X76200000Y-113792000D02*
X70866000Y-113792000D01*
X79288000Y-111800000D02*
X78740000Y-111252000D01*
X118427500Y-111482500D02*
X114784500Y-111482500D01*
X116840000Y-105156000D02*
X116840000Y-109474000D01*
X117348000Y-104648000D02*
X116840000Y-105156000D01*
X119380000Y-94234000D02*
X119380000Y-99822000D01*
X120142000Y-93472000D02*
X119380000Y-94234000D01*
X119634000Y-82804000D02*
X119634000Y-87376000D01*
X118364000Y-81534000D02*
X119634000Y-82804000D01*
X118110000Y-72136000D02*
X118110000Y-76200000D01*
X119126000Y-71120000D02*
X118110000Y-72136000D01*
X116078000Y-65532000D02*
X118618000Y-65532000D01*
X115824000Y-65278000D02*
X116078000Y-65532000D01*
X113030000Y-71120000D02*
X113030000Y-67818000D01*
X110744000Y-73406000D02*
X113030000Y-71120000D01*
X109474000Y-88138000D02*
X109474000Y-80010000D01*
X109728000Y-88392000D02*
X109474000Y-88138000D01*
X109474000Y-103378000D02*
X109474000Y-96266000D01*
X109220000Y-103632000D02*
X109474000Y-103378000D01*
X112014000Y-114046000D02*
X108204000Y-114046000D01*
X112268000Y-114300000D02*
X112014000Y-114046000D01*
X114784500Y-111482500D02*
X114554000Y-111252000D01*
X140716000Y-113030000D02*
X144018000Y-113030000D01*
X144526000Y-107696000D02*
X144526000Y-111252000D01*
X144526000Y-100330000D02*
X144526000Y-101854000D01*
X142240000Y-98044000D02*
X144526000Y-100330000D01*
X144018000Y-89154000D02*
X144018000Y-95250000D01*
X143764000Y-88900000D02*
X144018000Y-89154000D01*
X143764000Y-75438000D02*
X143764000Y-80772000D01*
X144780000Y-74422000D02*
X143764000Y-75438000D01*
X146304000Y-67818000D02*
X146304000Y-68834000D01*
X149352000Y-64770000D02*
X146304000Y-67818000D01*
X155702000Y-68580000D02*
X155702000Y-65024000D01*
X155448000Y-82804000D02*
X155448000Y-77216000D01*
X157988000Y-85344000D02*
X155448000Y-82804000D01*
X157988000Y-97028000D02*
X157988000Y-93472000D01*
X154178000Y-100838000D02*
X157988000Y-97028000D01*
X154178000Y-109474000D02*
X154178000Y-108966000D01*
X150368000Y-113284000D02*
X154178000Y-109474000D01*
X144018000Y-113030000D02*
X144272000Y-113284000D01*
X176276000Y-106172000D02*
X176276000Y-107188000D01*
X177038000Y-107950000D02*
X177038000Y-112268000D01*
X176276000Y-107188000D02*
X177038000Y-107950000D01*
X66357500Y-62547500D02*
X65976500Y-62547500D01*
X65976500Y-62547500D02*
X64008000Y-64516000D01*
X139065000Y-62865000D02*
X138811000Y-62865000D01*
X138811000Y-62865000D02*
X137414000Y-64262000D01*
X123825000Y-116840000D02*
X123952000Y-116840000D01*
X123825000Y-109220000D02*
X121666000Y-109220000D01*
X159512000Y-72390000D02*
X159512000Y-66802000D01*
X159766000Y-72644000D02*
X159512000Y-72390000D01*
X122428000Y-72644000D02*
X122428000Y-66548000D01*
X122682000Y-72898000D02*
X122428000Y-72644000D01*
X88138000Y-72390000D02*
X88138000Y-66548000D01*
X88392000Y-72644000D02*
X88138000Y-72390000D01*
X105092500Y-62547500D02*
X103378000Y-64262000D01*
X100076000Y-67564000D02*
X98806000Y-67564000D01*
X133096000Y-67818000D02*
X134112000Y-67818000D01*
X171196000Y-67564000D02*
X170180000Y-67564000D01*
X176212500Y-62547500D02*
X176212500Y-62801500D01*
X176212500Y-62801500D02*
X174752000Y-64262000D01*
X50038000Y-72644000D02*
X50038000Y-71374000D01*
X49530000Y-66548000D02*
X49784000Y-66294000D01*
X49530000Y-70866000D02*
X49530000Y-66548000D01*
X50038000Y-71374000D02*
X49530000Y-70866000D01*
X61214000Y-67564000D02*
X60198000Y-67564000D01*
X160020000Y-116332000D02*
X161798000Y-114554000D01*
X165354000Y-111252000D02*
X166624000Y-111252000D01*
X139954000Y-106680000D02*
X139954000Y-107442000D01*
X140716000Y-108204000D02*
X140716000Y-113030000D01*
X139954000Y-107442000D02*
X140716000Y-108204000D01*
X123825000Y-116840000D02*
X123825000Y-115951000D01*
X123825000Y-115951000D02*
X124968000Y-114808000D01*
X129032000Y-111760000D02*
X130048000Y-111760000D01*
X105156000Y-113538000D02*
X101854000Y-113538000D01*
X93472000Y-111760000D02*
X94742000Y-111760000D01*
X49212500Y-116395500D02*
X51816000Y-113792000D01*
X49212500Y-116522500D02*
X49212500Y-116395500D01*
X66040000Y-106680000D02*
X66040000Y-112268000D01*
X54356000Y-111252000D02*
X55372000Y-111252000D01*
X69596000Y-70612000D02*
X69596000Y-61722000D01*
X108712000Y-70358000D02*
X108712000Y-61214000D01*
X141986000Y-70866000D02*
X141986000Y-61976000D01*
X142240000Y-71120000D02*
X141986000Y-70866000D01*
X179832000Y-70612000D02*
X179832000Y-60960000D01*
X46024800Y-117094000D02*
X46278800Y-116840000D01*
X46278800Y-116840000D02*
X46278800Y-108635800D01*
X84836000Y-118110000D02*
X84836000Y-108839000D01*
X119888000Y-108966000D02*
X119888000Y-117094000D01*
X156464000Y-107950000D02*
X156464000Y-117348000D01*
X44196000Y-86868000D02*
X42672000Y-86868000D01*
X42672000Y-86868000D02*
X41656000Y-85852000D01*
X160020000Y-118808500D02*
X172783500Y-118808500D01*
X172783500Y-118808500D02*
X175260000Y-116332000D01*
X137096500Y-118808500D02*
X160020000Y-118808500D01*
X160020000Y-118808500D02*
X160083500Y-118808500D01*
X160083500Y-118808500D02*
X162560000Y-116332000D01*
X124460000Y-118808500D02*
X137096500Y-118808500D01*
X137096500Y-118808500D02*
X139065000Y-116840000D01*
X101536500Y-118808500D02*
X124460000Y-118808500D01*
X124460000Y-118808500D02*
X124396500Y-118808500D01*
X124396500Y-118808500D02*
X126365000Y-116840000D01*
X88836500Y-118808500D02*
X101536500Y-118808500D01*
X101536500Y-118808500D02*
X103505000Y-116840000D01*
X62992000Y-118364000D02*
X83312000Y-118364000D01*
X88773000Y-118872000D02*
X88836500Y-118808500D01*
X88836500Y-118808500D02*
X90805000Y-116840000D01*
X83820000Y-118872000D02*
X88773000Y-118872000D01*
X83312000Y-118364000D02*
X83820000Y-118872000D01*
X159004000Y-60579000D02*
X171704000Y-60579000D01*
X171704000Y-60579000D02*
X173672500Y-62547500D01*
X134112000Y-60579000D02*
X159004000Y-60579000D01*
X159004000Y-60579000D02*
X160972500Y-62547500D01*
X121412000Y-60579000D02*
X134112000Y-60579000D01*
X134112000Y-60579000D02*
X134239000Y-60579000D01*
X134239000Y-60579000D02*
X136525000Y-62865000D01*
X100584000Y-60579000D02*
X121412000Y-60579000D01*
X121412000Y-60579000D02*
X121539000Y-60579000D01*
X121539000Y-60579000D02*
X123825000Y-62865000D01*
X89852500Y-62547500D02*
X89852500Y-62039500D01*
X89852500Y-62039500D02*
X91440000Y-60452000D01*
X100457000Y-60452000D02*
X100584000Y-60579000D01*
X100584000Y-60579000D02*
X102552500Y-62547500D01*
X91440000Y-60452000D02*
X100457000Y-60452000D01*
X65913000Y-60452000D02*
X47244000Y-60452000D01*
X47244000Y-60452000D02*
X45212000Y-62484000D01*
X89852500Y-62547500D02*
X72199500Y-62547500D01*
X65913000Y-60452000D02*
X63817500Y-62547500D01*
X70104000Y-60452000D02*
X65913000Y-60452000D01*
X72199500Y-62547500D02*
X70104000Y-60452000D01*
X64452500Y-116522500D02*
X64452500Y-116903500D01*
X64452500Y-116903500D02*
X62992000Y-118364000D01*
X62992000Y-118364000D02*
X45720000Y-118364000D01*
X45720000Y-118364000D02*
X41656000Y-114300000D01*
X41656000Y-114300000D02*
X41656000Y-99060000D01*
X41656000Y-99060000D02*
X41656000Y-85852000D01*
X41656000Y-85852000D02*
X41656000Y-66040000D01*
X41656000Y-66040000D02*
X45212000Y-62484000D01*
X45212000Y-62484000D02*
X51054000Y-62484000D01*
X51054000Y-62484000D02*
X51117500Y-62547500D01*
X172466000Y-68072000D02*
X172466000Y-73914000D01*
X161544000Y-72898000D02*
X161544000Y-74168000D01*
X162306000Y-72136000D02*
X161544000Y-72898000D01*
X162306000Y-68580000D02*
X162306000Y-72136000D01*
X135382000Y-68580000D02*
X135382000Y-73914000D01*
X124460000Y-74168000D02*
X124460000Y-74930000D01*
X125222000Y-73406000D02*
X124460000Y-74168000D01*
X125222000Y-69342000D02*
X125222000Y-73406000D01*
X101346000Y-67818000D02*
X101346000Y-72390000D01*
X90424000Y-73152000D02*
X90424000Y-74168000D01*
X91186000Y-72390000D02*
X90424000Y-73152000D01*
X91186000Y-68580000D02*
X91186000Y-72390000D01*
X62484000Y-68072000D02*
X62484000Y-73406000D01*
X51562000Y-72644000D02*
X51562000Y-74422000D01*
X52324000Y-71882000D02*
X51562000Y-72644000D01*
X52324000Y-68326000D02*
X52324000Y-71882000D01*
X163830000Y-111125000D02*
X163830000Y-104902000D01*
X174117000Y-110363000D02*
X174117000Y-104394000D01*
X127000000Y-105664000D02*
X127000000Y-104902000D01*
X127762000Y-106426000D02*
X127000000Y-105664000D01*
X127762000Y-111252000D02*
X127762000Y-106426000D01*
X137922000Y-110744000D02*
X137922000Y-104902000D01*
X91948000Y-110871000D02*
X91948000Y-106045000D01*
X92075000Y-110998000D02*
X91948000Y-110871000D01*
X102362000Y-111125000D02*
X102362000Y-105283000D01*
X102235000Y-111252000D02*
X102362000Y-111125000D01*
X63220600Y-110515400D02*
X63220600Y-105181400D01*
X63246000Y-110540800D02*
X63220600Y-110515400D01*
X52882800Y-110718600D02*
X52882800Y-105257600D01*
X53238400Y-111074200D02*
X52882800Y-110718600D01*
D20*
G36*
X51050805Y-86282411D02*
X50943284Y-86541352D01*
X50942716Y-87191795D01*
X51181000Y-87768485D01*
X51181000Y-91048867D01*
X50943284Y-91621352D01*
X50942716Y-92271795D01*
X51181000Y-92848485D01*
X51181000Y-92964000D01*
X51191006Y-93013410D01*
X51218197Y-93053803D01*
X56769000Y-98604606D01*
X56769000Y-106172000D01*
X56779006Y-106221410D01*
X56806197Y-106261803D01*
X57785000Y-107240606D01*
X57785000Y-109167394D01*
X57351394Y-109601000D01*
X56440606Y-109601000D01*
X56007000Y-109167394D01*
X56007000Y-108204000D01*
X55996994Y-108154590D01*
X55969803Y-108114197D01*
X53975000Y-106119394D01*
X53975000Y-98552000D01*
X53964994Y-98502590D01*
X53937803Y-98462197D01*
X48895000Y-93419394D01*
X48895000Y-86412606D01*
X49328606Y-85979000D01*
X50747394Y-85979000D01*
X51050805Y-86282411D01*
X51050805Y-86282411D01*
G37*
X51050805Y-86282411D02*
X50943284Y-86541352D01*
X50942716Y-87191795D01*
X51181000Y-87768485D01*
X51181000Y-91048867D01*
X50943284Y-91621352D01*
X50942716Y-92271795D01*
X51181000Y-92848485D01*
X51181000Y-92964000D01*
X51191006Y-93013410D01*
X51218197Y-93053803D01*
X56769000Y-98604606D01*
X56769000Y-106172000D01*
X56779006Y-106221410D01*
X56806197Y-106261803D01*
X57785000Y-107240606D01*
X57785000Y-109167394D01*
X57351394Y-109601000D01*
X56440606Y-109601000D01*
X56007000Y-109167394D01*
X56007000Y-108204000D01*
X55996994Y-108154590D01*
X55969803Y-108114197D01*
X53975000Y-106119394D01*
X53975000Y-98552000D01*
X53964994Y-98502590D01*
X53937803Y-98462197D01*
X48895000Y-93419394D01*
X48895000Y-86412606D01*
X49328606Y-85979000D01*
X50747394Y-85979000D01*
X51050805Y-86282411D01*
G36*
X56130805Y-86282411D02*
X56023284Y-86541352D01*
X56022716Y-87191795D01*
X56261000Y-87768485D01*
X56261000Y-91048867D01*
X56023284Y-91621352D01*
X56022716Y-92271795D01*
X56261000Y-92848485D01*
X56261000Y-92964000D01*
X56271006Y-93013410D01*
X56298197Y-93053803D01*
X61341000Y-98096606D01*
X61341000Y-106172000D01*
X61351006Y-106221410D01*
X61378197Y-106261803D01*
X62460600Y-107344206D01*
X62460600Y-109571794D01*
X62431394Y-109601000D01*
X61520606Y-109601000D01*
X61087000Y-109167394D01*
X61087000Y-108204000D01*
X61076994Y-108154590D01*
X61049803Y-108114197D01*
X59055000Y-106119394D01*
X59055000Y-98552000D01*
X59044994Y-98502590D01*
X59017803Y-98462197D01*
X53975000Y-93419394D01*
X53975000Y-92847133D01*
X54212716Y-92274648D01*
X54213284Y-91624205D01*
X53975000Y-91047515D01*
X53975000Y-87767133D01*
X54212716Y-87194648D01*
X54213284Y-86544205D01*
X54105137Y-86282469D01*
X54408606Y-85979000D01*
X55827394Y-85979000D01*
X56130805Y-86282411D01*
X56130805Y-86282411D01*
G37*
X56130805Y-86282411D02*
X56023284Y-86541352D01*
X56022716Y-87191795D01*
X56261000Y-87768485D01*
X56261000Y-91048867D01*
X56023284Y-91621352D01*
X56022716Y-92271795D01*
X56261000Y-92848485D01*
X56261000Y-92964000D01*
X56271006Y-93013410D01*
X56298197Y-93053803D01*
X61341000Y-98096606D01*
X61341000Y-106172000D01*
X61351006Y-106221410D01*
X61378197Y-106261803D01*
X62460600Y-107344206D01*
X62460600Y-109571794D01*
X62431394Y-109601000D01*
X61520606Y-109601000D01*
X61087000Y-109167394D01*
X61087000Y-108204000D01*
X61076994Y-108154590D01*
X61049803Y-108114197D01*
X59055000Y-106119394D01*
X59055000Y-98552000D01*
X59044994Y-98502590D01*
X59017803Y-98462197D01*
X53975000Y-93419394D01*
X53975000Y-92847133D01*
X54212716Y-92274648D01*
X54213284Y-91624205D01*
X53975000Y-91047515D01*
X53975000Y-87767133D01*
X54212716Y-87194648D01*
X54213284Y-86544205D01*
X54105137Y-86282469D01*
X54408606Y-85979000D01*
X55827394Y-85979000D01*
X56130805Y-86282411D01*
G36*
X89789000Y-86412606D02*
X89789000Y-94996000D01*
X89799006Y-95045410D01*
X89826197Y-95085803D01*
X95377000Y-100636606D01*
X95377000Y-105156000D01*
X95387006Y-105205410D01*
X95414197Y-105245803D01*
X96901000Y-106732606D01*
X96901000Y-109675394D01*
X96467394Y-110109000D01*
X95556606Y-110109000D01*
X95123000Y-109675394D01*
X95123000Y-108204000D01*
X95112994Y-108154590D01*
X95085803Y-108114197D01*
X92883117Y-105911511D01*
X92883162Y-105859833D01*
X92741117Y-105516057D01*
X92583000Y-105357664D01*
X92583000Y-100076000D01*
X92572994Y-100026590D01*
X92545803Y-99986197D01*
X88011000Y-95451394D01*
X88011000Y-86412606D01*
X88444606Y-85979000D01*
X89355394Y-85979000D01*
X89789000Y-86412606D01*
X89789000Y-86412606D01*
G37*
X89789000Y-86412606D02*
X89789000Y-94996000D01*
X89799006Y-95045410D01*
X89826197Y-95085803D01*
X95377000Y-100636606D01*
X95377000Y-105156000D01*
X95387006Y-105205410D01*
X95414197Y-105245803D01*
X96901000Y-106732606D01*
X96901000Y-109675394D01*
X96467394Y-110109000D01*
X95556606Y-110109000D01*
X95123000Y-109675394D01*
X95123000Y-108204000D01*
X95112994Y-108154590D01*
X95085803Y-108114197D01*
X92883117Y-105911511D01*
X92883162Y-105859833D01*
X92741117Y-105516057D01*
X92583000Y-105357664D01*
X92583000Y-100076000D01*
X92572994Y-100026590D01*
X92545803Y-99986197D01*
X88011000Y-95451394D01*
X88011000Y-86412606D01*
X88444606Y-85979000D01*
X89355394Y-85979000D01*
X89789000Y-86412606D01*
G36*
X94869000Y-86412606D02*
X94869000Y-95504000D01*
X94879006Y-95553410D01*
X94906197Y-95593803D01*
X98933000Y-99620606D01*
X98933000Y-104140000D01*
X98943006Y-104189410D01*
X98970197Y-104229803D01*
X101473000Y-106732606D01*
X101473000Y-109675394D01*
X101039394Y-110109000D01*
X100636606Y-110109000D01*
X100203000Y-109675394D01*
X100203000Y-108204000D01*
X100192994Y-108154590D01*
X100165803Y-108114197D01*
X96647000Y-104595394D01*
X96647000Y-99568000D01*
X96636994Y-99518590D01*
X96609803Y-99478197D01*
X93091000Y-95959394D01*
X93091000Y-86412606D01*
X93524606Y-85979000D01*
X94435394Y-85979000D01*
X94869000Y-86412606D01*
X94869000Y-86412606D01*
G37*
X94869000Y-86412606D02*
X94869000Y-95504000D01*
X94879006Y-95553410D01*
X94906197Y-95593803D01*
X98933000Y-99620606D01*
X98933000Y-104140000D01*
X98943006Y-104189410D01*
X98970197Y-104229803D01*
X101473000Y-106732606D01*
X101473000Y-109675394D01*
X101039394Y-110109000D01*
X100636606Y-110109000D01*
X100203000Y-109675394D01*
X100203000Y-108204000D01*
X100192994Y-108154590D01*
X100165803Y-108114197D01*
X96647000Y-104595394D01*
X96647000Y-99568000D01*
X96636994Y-99518590D01*
X96609803Y-99478197D01*
X93091000Y-95959394D01*
X93091000Y-86412606D01*
X93524606Y-85979000D01*
X94435394Y-85979000D01*
X94869000Y-86412606D01*
G36*
X124240068Y-86319674D02*
X124095284Y-86668352D01*
X124094716Y-87318795D01*
X124333000Y-87895485D01*
X124333000Y-91175867D01*
X124095284Y-91748352D01*
X124094716Y-92398795D01*
X124337561Y-92986524D01*
X124343006Y-93013410D01*
X124370197Y-93053803D01*
X130937000Y-99620606D01*
X130937000Y-105156000D01*
X130947006Y-105205410D01*
X130974197Y-105245803D01*
X132461000Y-106732606D01*
X132461000Y-109675394D01*
X132027394Y-110109000D01*
X131116606Y-110109000D01*
X130683000Y-109675394D01*
X130683000Y-108204000D01*
X130672994Y-108154590D01*
X130645803Y-108114197D01*
X128143000Y-105611394D01*
X128143000Y-99060000D01*
X128132994Y-99010590D01*
X128105803Y-98970197D01*
X122047000Y-92911394D01*
X122047000Y-86412606D01*
X122480606Y-85979000D01*
X123899394Y-85979000D01*
X124240068Y-86319674D01*
X124240068Y-86319674D01*
G37*
X124240068Y-86319674D02*
X124095284Y-86668352D01*
X124094716Y-87318795D01*
X124333000Y-87895485D01*
X124333000Y-91175867D01*
X124095284Y-91748352D01*
X124094716Y-92398795D01*
X124337561Y-92986524D01*
X124343006Y-93013410D01*
X124370197Y-93053803D01*
X130937000Y-99620606D01*
X130937000Y-105156000D01*
X130947006Y-105205410D01*
X130974197Y-105245803D01*
X132461000Y-106732606D01*
X132461000Y-109675394D01*
X132027394Y-110109000D01*
X131116606Y-110109000D01*
X130683000Y-109675394D01*
X130683000Y-108204000D01*
X130672994Y-108154590D01*
X130645803Y-108114197D01*
X128143000Y-105611394D01*
X128143000Y-99060000D01*
X128132994Y-99010590D01*
X128105803Y-98970197D01*
X122047000Y-92911394D01*
X122047000Y-86412606D01*
X122480606Y-85979000D01*
X123899394Y-85979000D01*
X124240068Y-86319674D01*
G36*
X129320068Y-86319674D02*
X129175284Y-86668352D01*
X129174716Y-87318795D01*
X129413000Y-87895485D01*
X129413000Y-91175867D01*
X129175284Y-91748352D01*
X129174716Y-92398795D01*
X129417561Y-92986524D01*
X129423006Y-93013410D01*
X129450197Y-93053803D01*
X135001000Y-98604606D01*
X135001000Y-104648000D01*
X135011006Y-104697410D01*
X135038197Y-104737803D01*
X137162000Y-106861606D01*
X137162000Y-110054394D01*
X137107394Y-110109000D01*
X136196606Y-110109000D01*
X135763000Y-109675394D01*
X135763000Y-108204000D01*
X135752994Y-108154590D01*
X135725803Y-108114197D01*
X132715000Y-105103394D01*
X132715000Y-99060000D01*
X132704994Y-99010590D01*
X132677803Y-98970197D01*
X127127000Y-93419394D01*
X127127000Y-92974133D01*
X127364716Y-92401648D01*
X127365284Y-91751205D01*
X127127000Y-91174515D01*
X127127000Y-87894133D01*
X127364716Y-87321648D01*
X127365284Y-86671205D01*
X127220004Y-86319602D01*
X127560606Y-85979000D01*
X128979394Y-85979000D01*
X129320068Y-86319674D01*
X129320068Y-86319674D01*
G37*
X129320068Y-86319674D02*
X129175284Y-86668352D01*
X129174716Y-87318795D01*
X129413000Y-87895485D01*
X129413000Y-91175867D01*
X129175284Y-91748352D01*
X129174716Y-92398795D01*
X129417561Y-92986524D01*
X129423006Y-93013410D01*
X129450197Y-93053803D01*
X135001000Y-98604606D01*
X135001000Y-104648000D01*
X135011006Y-104697410D01*
X135038197Y-104737803D01*
X137162000Y-106861606D01*
X137162000Y-110054394D01*
X137107394Y-110109000D01*
X136196606Y-110109000D01*
X135763000Y-109675394D01*
X135763000Y-108204000D01*
X135752994Y-108154590D01*
X135725803Y-108114197D01*
X132715000Y-105103394D01*
X132715000Y-99060000D01*
X132704994Y-99010590D01*
X132677803Y-98970197D01*
X127127000Y-93419394D01*
X127127000Y-92974133D01*
X127364716Y-92401648D01*
X127365284Y-91751205D01*
X127127000Y-91174515D01*
X127127000Y-87894133D01*
X127364716Y-87321648D01*
X127365284Y-86671205D01*
X127220004Y-86319602D01*
X127560606Y-85979000D01*
X128979394Y-85979000D01*
X129320068Y-86319674D01*
G36*
X161869330Y-86356936D02*
X161687284Y-86795352D01*
X161686716Y-87445795D01*
X161925000Y-88022485D01*
X161925000Y-91302867D01*
X161687284Y-91875352D01*
X161686716Y-92525795D01*
X161925000Y-93102485D01*
X161925000Y-93472000D01*
X161935006Y-93521410D01*
X161962197Y-93561803D01*
X167513000Y-99112606D01*
X167513000Y-105664000D01*
X167523006Y-105713410D01*
X167550197Y-105753803D01*
X168529000Y-106732606D01*
X168529000Y-109167394D01*
X168095394Y-109601000D01*
X167184606Y-109601000D01*
X166751000Y-109167394D01*
X166751000Y-107696000D01*
X166740994Y-107646590D01*
X166713803Y-107606197D01*
X165227000Y-106119394D01*
X165227000Y-99060000D01*
X165216994Y-99010590D01*
X165189803Y-98970197D01*
X159639000Y-93419394D01*
X159639000Y-86412606D01*
X160072606Y-85979000D01*
X161491394Y-85979000D01*
X161869330Y-86356936D01*
X161869330Y-86356936D01*
G37*
X161869330Y-86356936D02*
X161687284Y-86795352D01*
X161686716Y-87445795D01*
X161925000Y-88022485D01*
X161925000Y-91302867D01*
X161687284Y-91875352D01*
X161686716Y-92525795D01*
X161925000Y-93102485D01*
X161925000Y-93472000D01*
X161935006Y-93521410D01*
X161962197Y-93561803D01*
X167513000Y-99112606D01*
X167513000Y-105664000D01*
X167523006Y-105713410D01*
X167550197Y-105753803D01*
X168529000Y-106732606D01*
X168529000Y-109167394D01*
X168095394Y-109601000D01*
X167184606Y-109601000D01*
X166751000Y-109167394D01*
X166751000Y-107696000D01*
X166740994Y-107646590D01*
X166713803Y-107606197D01*
X165227000Y-106119394D01*
X165227000Y-99060000D01*
X165216994Y-99010590D01*
X165189803Y-98970197D01*
X159639000Y-93419394D01*
X159639000Y-86412606D01*
X160072606Y-85979000D01*
X161491394Y-85979000D01*
X161869330Y-86356936D01*
G36*
X166949330Y-86356936D02*
X166767284Y-86795352D01*
X166766716Y-87445795D01*
X167005000Y-88022485D01*
X167005000Y-91302867D01*
X166767284Y-91875352D01*
X166766716Y-92525795D01*
X167005000Y-93102485D01*
X167005000Y-93472000D01*
X167015006Y-93521410D01*
X167042197Y-93561803D01*
X172085000Y-98604606D01*
X172085000Y-104648000D01*
X172095006Y-104697410D01*
X172122197Y-104737803D01*
X173357000Y-105972606D01*
X173357000Y-109419394D01*
X173175394Y-109601000D01*
X172264606Y-109601000D01*
X171831000Y-109167394D01*
X171831000Y-107188000D01*
X171820994Y-107138590D01*
X171793803Y-107098197D01*
X169291000Y-104595394D01*
X169291000Y-98552000D01*
X169280994Y-98502590D01*
X169253803Y-98462197D01*
X164719000Y-93927394D01*
X164719000Y-93101133D01*
X164956716Y-92528648D01*
X164957284Y-91878205D01*
X164719000Y-91301515D01*
X164719000Y-88021133D01*
X164956716Y-87448648D01*
X164957284Y-86798205D01*
X164774872Y-86356734D01*
X165152606Y-85979000D01*
X166571394Y-85979000D01*
X166949330Y-86356936D01*
X166949330Y-86356936D01*
G37*
X166949330Y-86356936D02*
X166767284Y-86795352D01*
X166766716Y-87445795D01*
X167005000Y-88022485D01*
X167005000Y-91302867D01*
X166767284Y-91875352D01*
X166766716Y-92525795D01*
X167005000Y-93102485D01*
X167005000Y-93472000D01*
X167015006Y-93521410D01*
X167042197Y-93561803D01*
X172085000Y-98604606D01*
X172085000Y-104648000D01*
X172095006Y-104697410D01*
X172122197Y-104737803D01*
X173357000Y-105972606D01*
X173357000Y-109419394D01*
X173175394Y-109601000D01*
X172264606Y-109601000D01*
X171831000Y-109167394D01*
X171831000Y-107188000D01*
X171820994Y-107138590D01*
X171793803Y-107098197D01*
X169291000Y-104595394D01*
X169291000Y-98552000D01*
X169280994Y-98502590D01*
X169253803Y-98462197D01*
X164719000Y-93927394D01*
X164719000Y-93101133D01*
X164956716Y-92528648D01*
X164957284Y-91878205D01*
X164719000Y-91301515D01*
X164719000Y-88021133D01*
X164956716Y-87448648D01*
X164957284Y-86798205D01*
X164774872Y-86356734D01*
X165152606Y-85979000D01*
X166571394Y-85979000D01*
X166949330Y-86356936D01*
G36*
X54737000Y-69648606D02*
X54737000Y-70612000D01*
X54747006Y-70661410D01*
X54774197Y-70701803D01*
X54981629Y-70909235D01*
X55182802Y-71210311D01*
X55483878Y-71411484D01*
X57277000Y-73204606D01*
X57277000Y-80772000D01*
X57287006Y-80821410D01*
X57314197Y-80861803D01*
X61341000Y-84888606D01*
X61341000Y-85968867D01*
X61103284Y-86541352D01*
X61102716Y-87191795D01*
X61341000Y-87768485D01*
X61341000Y-91048867D01*
X61103284Y-91621352D01*
X61102716Y-92271795D01*
X61210863Y-92533531D01*
X60907394Y-92837000D01*
X59488606Y-92837000D01*
X59185195Y-92533589D01*
X59292716Y-92274648D01*
X59293284Y-91624205D01*
X59055000Y-91047515D01*
X59055000Y-87767133D01*
X59292716Y-87194648D01*
X59293284Y-86544205D01*
X59055000Y-85967515D01*
X59055000Y-85344000D01*
X59044994Y-85294590D01*
X59017803Y-85254197D01*
X58509803Y-84746197D01*
X58467789Y-84718334D01*
X58420000Y-84709000D01*
X57456606Y-84709000D01*
X54991000Y-82243394D01*
X54991000Y-73660000D01*
X54980994Y-73610590D01*
X54953803Y-73570197D01*
X53084000Y-71700394D01*
X53084000Y-69523606D01*
X53392606Y-69215000D01*
X54303394Y-69215000D01*
X54737000Y-69648606D01*
X54737000Y-69648606D01*
G37*
X54737000Y-69648606D02*
X54737000Y-70612000D01*
X54747006Y-70661410D01*
X54774197Y-70701803D01*
X54981629Y-70909235D01*
X55182802Y-71210311D01*
X55483878Y-71411484D01*
X57277000Y-73204606D01*
X57277000Y-80772000D01*
X57287006Y-80821410D01*
X57314197Y-80861803D01*
X61341000Y-84888606D01*
X61341000Y-85968867D01*
X61103284Y-86541352D01*
X61102716Y-87191795D01*
X61341000Y-87768485D01*
X61341000Y-91048867D01*
X61103284Y-91621352D01*
X61102716Y-92271795D01*
X61210863Y-92533531D01*
X60907394Y-92837000D01*
X59488606Y-92837000D01*
X59185195Y-92533589D01*
X59292716Y-92274648D01*
X59293284Y-91624205D01*
X59055000Y-91047515D01*
X59055000Y-87767133D01*
X59292716Y-87194648D01*
X59293284Y-86544205D01*
X59055000Y-85967515D01*
X59055000Y-85344000D01*
X59044994Y-85294590D01*
X59017803Y-85254197D01*
X58509803Y-84746197D01*
X58467789Y-84718334D01*
X58420000Y-84709000D01*
X57456606Y-84709000D01*
X54991000Y-82243394D01*
X54991000Y-73660000D01*
X54980994Y-73610590D01*
X54953803Y-73570197D01*
X53084000Y-71700394D01*
X53084000Y-69523606D01*
X53392606Y-69215000D01*
X54303394Y-69215000D01*
X54737000Y-69648606D01*
G36*
X59817000Y-69648606D02*
X59817000Y-72644000D01*
X59827006Y-72693410D01*
X59854197Y-72733803D01*
X61341000Y-74220606D01*
X61341000Y-80264000D01*
X61351006Y-80313410D01*
X61383041Y-80358398D01*
X66421000Y-84892561D01*
X66421000Y-85968867D01*
X66183284Y-86541352D01*
X66182716Y-87191795D01*
X66421000Y-87768485D01*
X66421000Y-91048867D01*
X66183284Y-91621352D01*
X66182716Y-92271795D01*
X66290863Y-92533531D01*
X65987394Y-92837000D01*
X64568606Y-92837000D01*
X64265195Y-92533589D01*
X64372716Y-92274648D01*
X64373284Y-91624205D01*
X64135000Y-91047515D01*
X64135000Y-87767133D01*
X64372716Y-87194648D01*
X64373284Y-86544205D01*
X64135000Y-85967515D01*
X64135000Y-85852000D01*
X64124994Y-85802590D01*
X64097803Y-85762197D01*
X58039000Y-79703394D01*
X58039000Y-69648606D01*
X58472606Y-69215000D01*
X59383394Y-69215000D01*
X59817000Y-69648606D01*
X59817000Y-69648606D01*
G37*
X59817000Y-69648606D02*
X59817000Y-72644000D01*
X59827006Y-72693410D01*
X59854197Y-72733803D01*
X61341000Y-74220606D01*
X61341000Y-80264000D01*
X61351006Y-80313410D01*
X61383041Y-80358398D01*
X66421000Y-84892561D01*
X66421000Y-85968867D01*
X66183284Y-86541352D01*
X66182716Y-87191795D01*
X66421000Y-87768485D01*
X66421000Y-91048867D01*
X66183284Y-91621352D01*
X66182716Y-92271795D01*
X66290863Y-92533531D01*
X65987394Y-92837000D01*
X64568606Y-92837000D01*
X64265195Y-92533589D01*
X64372716Y-92274648D01*
X64373284Y-91624205D01*
X64135000Y-91047515D01*
X64135000Y-87767133D01*
X64372716Y-87194648D01*
X64373284Y-86544205D01*
X64135000Y-85967515D01*
X64135000Y-85852000D01*
X64124994Y-85802590D01*
X64097803Y-85762197D01*
X58039000Y-79703394D01*
X58039000Y-69648606D01*
X58472606Y-69215000D01*
X59383394Y-69215000D01*
X59817000Y-69648606D01*
G36*
X93345000Y-69648606D02*
X93345000Y-71120000D01*
X93355006Y-71169410D01*
X93382197Y-71209803D01*
X93890197Y-71717803D01*
X93932211Y-71745666D01*
X93980000Y-71755000D01*
X94943394Y-71755000D01*
X96393000Y-73204606D01*
X96393000Y-80772000D01*
X96403006Y-80821410D01*
X96430197Y-80861803D01*
X99949000Y-84380606D01*
X99949000Y-92911394D01*
X99515394Y-93345000D01*
X98604606Y-93345000D01*
X98171000Y-92911394D01*
X98171000Y-85852000D01*
X98160994Y-85802590D01*
X98133803Y-85762197D01*
X97625803Y-85254197D01*
X97583789Y-85226334D01*
X97536000Y-85217000D01*
X97080606Y-85217000D01*
X93599000Y-81735394D01*
X93599000Y-74168000D01*
X93588994Y-74118590D01*
X93561803Y-74078197D01*
X91933989Y-72450383D01*
X91946000Y-72390000D01*
X91946000Y-69269606D01*
X92000606Y-69215000D01*
X92911394Y-69215000D01*
X93345000Y-69648606D01*
X93345000Y-69648606D01*
G37*
X93345000Y-69648606D02*
X93345000Y-71120000D01*
X93355006Y-71169410D01*
X93382197Y-71209803D01*
X93890197Y-71717803D01*
X93932211Y-71745666D01*
X93980000Y-71755000D01*
X94943394Y-71755000D01*
X96393000Y-73204606D01*
X96393000Y-80772000D01*
X96403006Y-80821410D01*
X96430197Y-80861803D01*
X99949000Y-84380606D01*
X99949000Y-92911394D01*
X99515394Y-93345000D01*
X98604606Y-93345000D01*
X98171000Y-92911394D01*
X98171000Y-85852000D01*
X98160994Y-85802590D01*
X98133803Y-85762197D01*
X97625803Y-85254197D01*
X97583789Y-85226334D01*
X97536000Y-85217000D01*
X97080606Y-85217000D01*
X93599000Y-81735394D01*
X93599000Y-74168000D01*
X93588994Y-74118590D01*
X93561803Y-74078197D01*
X91933989Y-72450383D01*
X91946000Y-72390000D01*
X91946000Y-69269606D01*
X92000606Y-69215000D01*
X92911394Y-69215000D01*
X93345000Y-69648606D01*
G36*
X98425000Y-69648606D02*
X98425000Y-71120000D01*
X98435006Y-71169410D01*
X98462197Y-71209803D01*
X98970197Y-71717803D01*
X99012211Y-71745666D01*
X99060000Y-71755000D01*
X100023394Y-71755000D01*
X100428893Y-72160499D01*
X100411162Y-72203201D01*
X100410838Y-72575167D01*
X100457000Y-72686888D01*
X100457000Y-80772000D01*
X100467006Y-80821410D01*
X100494197Y-80861803D01*
X102526197Y-82893803D01*
X102568211Y-82921666D01*
X102616000Y-82931000D01*
X104087394Y-82931000D01*
X105029000Y-83872606D01*
X105029000Y-92911394D01*
X104595394Y-93345000D01*
X103684606Y-93345000D01*
X103251000Y-92911394D01*
X103251000Y-85852000D01*
X103240994Y-85802590D01*
X103213803Y-85762197D01*
X102705803Y-85254197D01*
X102663789Y-85226334D01*
X102616000Y-85217000D01*
X102160606Y-85217000D01*
X98171000Y-81227394D01*
X98171000Y-73152000D01*
X98160994Y-73102590D01*
X98133803Y-73062197D01*
X96647000Y-71575394D01*
X96647000Y-69648606D01*
X97080606Y-69215000D01*
X97991394Y-69215000D01*
X98425000Y-69648606D01*
X98425000Y-69648606D01*
G37*
X98425000Y-69648606D02*
X98425000Y-71120000D01*
X98435006Y-71169410D01*
X98462197Y-71209803D01*
X98970197Y-71717803D01*
X99012211Y-71745666D01*
X99060000Y-71755000D01*
X100023394Y-71755000D01*
X100428893Y-72160499D01*
X100411162Y-72203201D01*
X100410838Y-72575167D01*
X100457000Y-72686888D01*
X100457000Y-80772000D01*
X100467006Y-80821410D01*
X100494197Y-80861803D01*
X102526197Y-82893803D01*
X102568211Y-82921666D01*
X102616000Y-82931000D01*
X104087394Y-82931000D01*
X105029000Y-83872606D01*
X105029000Y-92911394D01*
X104595394Y-93345000D01*
X103684606Y-93345000D01*
X103251000Y-92911394D01*
X103251000Y-85852000D01*
X103240994Y-85802590D01*
X103213803Y-85762197D01*
X102705803Y-85254197D01*
X102663789Y-85226334D01*
X102616000Y-85217000D01*
X102160606Y-85217000D01*
X98171000Y-81227394D01*
X98171000Y-73152000D01*
X98160994Y-73102590D01*
X98133803Y-73062197D01*
X96647000Y-71575394D01*
X96647000Y-69648606D01*
X97080606Y-69215000D01*
X97991394Y-69215000D01*
X98425000Y-69648606D01*
G36*
X127381000Y-70156606D02*
X127381000Y-71628000D01*
X127391006Y-71677410D01*
X127418197Y-71717803D01*
X127926197Y-72225803D01*
X127968211Y-72253666D01*
X128016000Y-72263000D01*
X128979394Y-72263000D01*
X129921000Y-73204606D01*
X129921000Y-80772000D01*
X129931006Y-80821410D01*
X129958197Y-80861803D01*
X132498197Y-83401803D01*
X132540211Y-83429666D01*
X132588000Y-83439000D01*
X133551394Y-83439000D01*
X134493000Y-84380606D01*
X134493000Y-86095867D01*
X134255284Y-86668352D01*
X134254716Y-87318795D01*
X134493000Y-87895485D01*
X134493000Y-91175867D01*
X134255284Y-91748352D01*
X134254716Y-92398795D01*
X134325731Y-92570663D01*
X133551394Y-93345000D01*
X133148606Y-93345000D01*
X132374457Y-92570851D01*
X132444716Y-92401648D01*
X132445284Y-91751205D01*
X132207000Y-91174515D01*
X132207000Y-87894133D01*
X132444716Y-87321648D01*
X132445284Y-86671205D01*
X132207000Y-86094515D01*
X132207000Y-85852000D01*
X132196994Y-85802590D01*
X132169803Y-85762197D01*
X131661803Y-85254197D01*
X131619789Y-85226334D01*
X131572000Y-85217000D01*
X131116606Y-85217000D01*
X127635000Y-81735394D01*
X127635000Y-74168000D01*
X127624994Y-74118590D01*
X127597803Y-74078197D01*
X125982000Y-72462394D01*
X125982000Y-69904463D01*
X126014192Y-69872327D01*
X126076198Y-69723000D01*
X126947394Y-69723000D01*
X127381000Y-70156606D01*
X127381000Y-70156606D01*
G37*
X127381000Y-70156606D02*
X127381000Y-71628000D01*
X127391006Y-71677410D01*
X127418197Y-71717803D01*
X127926197Y-72225803D01*
X127968211Y-72253666D01*
X128016000Y-72263000D01*
X128979394Y-72263000D01*
X129921000Y-73204606D01*
X129921000Y-80772000D01*
X129931006Y-80821410D01*
X129958197Y-80861803D01*
X132498197Y-83401803D01*
X132540211Y-83429666D01*
X132588000Y-83439000D01*
X133551394Y-83439000D01*
X134493000Y-84380606D01*
X134493000Y-86095867D01*
X134255284Y-86668352D01*
X134254716Y-87318795D01*
X134493000Y-87895485D01*
X134493000Y-91175867D01*
X134255284Y-91748352D01*
X134254716Y-92398795D01*
X134325731Y-92570663D01*
X133551394Y-93345000D01*
X133148606Y-93345000D01*
X132374457Y-92570851D01*
X132444716Y-92401648D01*
X132445284Y-91751205D01*
X132207000Y-91174515D01*
X132207000Y-87894133D01*
X132444716Y-87321648D01*
X132445284Y-86671205D01*
X132207000Y-86094515D01*
X132207000Y-85852000D01*
X132196994Y-85802590D01*
X132169803Y-85762197D01*
X131661803Y-85254197D01*
X131619789Y-85226334D01*
X131572000Y-85217000D01*
X131116606Y-85217000D01*
X127635000Y-81735394D01*
X127635000Y-74168000D01*
X127624994Y-74118590D01*
X127597803Y-74078197D01*
X125982000Y-72462394D01*
X125982000Y-69904463D01*
X126014192Y-69872327D01*
X126076198Y-69723000D01*
X126947394Y-69723000D01*
X127381000Y-70156606D01*
G36*
X132461000Y-70156606D02*
X132461000Y-71120000D01*
X132471006Y-71169410D01*
X132498197Y-71209803D01*
X134493000Y-73204606D01*
X134493000Y-73616811D01*
X134447162Y-73727201D01*
X134446838Y-74099167D01*
X134493000Y-74210888D01*
X134493000Y-79756000D01*
X134503006Y-79805410D01*
X134530197Y-79845803D01*
X139573000Y-84888606D01*
X139573000Y-86095867D01*
X139335284Y-86668352D01*
X139334716Y-87318795D01*
X139573000Y-87895485D01*
X139573000Y-91175867D01*
X139335284Y-91748352D01*
X139334716Y-92398795D01*
X139554261Y-92930133D01*
X139139394Y-93345000D01*
X137720606Y-93345000D01*
X137305408Y-92929802D01*
X137524716Y-92401648D01*
X137525284Y-91751205D01*
X137287000Y-91174515D01*
X137287000Y-87894133D01*
X137524716Y-87321648D01*
X137525284Y-86671205D01*
X137287000Y-86094515D01*
X137287000Y-85344000D01*
X137276994Y-85294590D01*
X137249803Y-85254197D01*
X134709803Y-82714197D01*
X134667789Y-82686334D01*
X134620000Y-82677000D01*
X133148606Y-82677000D01*
X132207000Y-81735394D01*
X132207000Y-73660000D01*
X132196994Y-73610590D01*
X132169803Y-73570197D01*
X130683000Y-72083394D01*
X130683000Y-70156606D01*
X131116606Y-69723000D01*
X132027394Y-69723000D01*
X132461000Y-70156606D01*
X132461000Y-70156606D01*
G37*
X132461000Y-70156606D02*
X132461000Y-71120000D01*
X132471006Y-71169410D01*
X132498197Y-71209803D01*
X134493000Y-73204606D01*
X134493000Y-73616811D01*
X134447162Y-73727201D01*
X134446838Y-74099167D01*
X134493000Y-74210888D01*
X134493000Y-79756000D01*
X134503006Y-79805410D01*
X134530197Y-79845803D01*
X139573000Y-84888606D01*
X139573000Y-86095867D01*
X139335284Y-86668352D01*
X139334716Y-87318795D01*
X139573000Y-87895485D01*
X139573000Y-91175867D01*
X139335284Y-91748352D01*
X139334716Y-92398795D01*
X139554261Y-92930133D01*
X139139394Y-93345000D01*
X137720606Y-93345000D01*
X137305408Y-92929802D01*
X137524716Y-92401648D01*
X137525284Y-91751205D01*
X137287000Y-91174515D01*
X137287000Y-87894133D01*
X137524716Y-87321648D01*
X137525284Y-86671205D01*
X137287000Y-86094515D01*
X137287000Y-85344000D01*
X137276994Y-85294590D01*
X137249803Y-85254197D01*
X134709803Y-82714197D01*
X134667789Y-82686334D01*
X134620000Y-82677000D01*
X133148606Y-82677000D01*
X132207000Y-81735394D01*
X132207000Y-73660000D01*
X132196994Y-73610590D01*
X132169803Y-73570197D01*
X130683000Y-72083394D01*
X130683000Y-70156606D01*
X131116606Y-69723000D01*
X132027394Y-69723000D01*
X132461000Y-70156606D01*
G36*
X164465000Y-69648606D02*
X164465000Y-71120000D01*
X164475006Y-71169410D01*
X164502197Y-71209803D01*
X165010197Y-71717803D01*
X165052211Y-71745666D01*
X165100000Y-71755000D01*
X166063394Y-71755000D01*
X167513000Y-73204606D01*
X167513000Y-80772000D01*
X167523006Y-80821410D01*
X167555626Y-80866921D01*
X172085000Y-84893031D01*
X172085000Y-86222867D01*
X171847284Y-86795352D01*
X171846716Y-87445795D01*
X172085000Y-88022485D01*
X172085000Y-91302867D01*
X171847284Y-91875352D01*
X171846716Y-92525795D01*
X172029128Y-92967266D01*
X171651394Y-93345000D01*
X170232606Y-93345000D01*
X169854670Y-92967064D01*
X170036716Y-92528648D01*
X170037284Y-91878205D01*
X169799000Y-91301515D01*
X169799000Y-88021133D01*
X170036716Y-87448648D01*
X170037284Y-86798205D01*
X169799000Y-86221515D01*
X169799000Y-85852000D01*
X169788994Y-85802590D01*
X169761803Y-85762197D01*
X168745803Y-84746197D01*
X168703789Y-84718334D01*
X168656000Y-84709000D01*
X167184606Y-84709000D01*
X164719000Y-82243394D01*
X164719000Y-73660000D01*
X164708994Y-73610590D01*
X164681803Y-73570197D01*
X163066000Y-71954394D01*
X163066000Y-69269606D01*
X163120606Y-69215000D01*
X164031394Y-69215000D01*
X164465000Y-69648606D01*
X164465000Y-69648606D01*
G37*
X164465000Y-69648606D02*
X164465000Y-71120000D01*
X164475006Y-71169410D01*
X164502197Y-71209803D01*
X165010197Y-71717803D01*
X165052211Y-71745666D01*
X165100000Y-71755000D01*
X166063394Y-71755000D01*
X167513000Y-73204606D01*
X167513000Y-80772000D01*
X167523006Y-80821410D01*
X167555626Y-80866921D01*
X172085000Y-84893031D01*
X172085000Y-86222867D01*
X171847284Y-86795352D01*
X171846716Y-87445795D01*
X172085000Y-88022485D01*
X172085000Y-91302867D01*
X171847284Y-91875352D01*
X171846716Y-92525795D01*
X172029128Y-92967266D01*
X171651394Y-93345000D01*
X170232606Y-93345000D01*
X169854670Y-92967064D01*
X170036716Y-92528648D01*
X170037284Y-91878205D01*
X169799000Y-91301515D01*
X169799000Y-88021133D01*
X170036716Y-87448648D01*
X170037284Y-86798205D01*
X169799000Y-86221515D01*
X169799000Y-85852000D01*
X169788994Y-85802590D01*
X169761803Y-85762197D01*
X168745803Y-84746197D01*
X168703789Y-84718334D01*
X168656000Y-84709000D01*
X167184606Y-84709000D01*
X164719000Y-82243394D01*
X164719000Y-73660000D01*
X164708994Y-73610590D01*
X164681803Y-73570197D01*
X163066000Y-71954394D01*
X163066000Y-69269606D01*
X163120606Y-69215000D01*
X164031394Y-69215000D01*
X164465000Y-69648606D01*
G36*
X169545000Y-69648606D02*
X169545000Y-71120000D01*
X169555006Y-71169410D01*
X169582197Y-71209803D01*
X171577000Y-73204606D01*
X171577000Y-73616811D01*
X171531162Y-73727201D01*
X171530838Y-74099167D01*
X171577000Y-74210888D01*
X171577000Y-79248000D01*
X171587006Y-79297410D01*
X171614197Y-79337803D01*
X177165000Y-84888606D01*
X177165000Y-86222867D01*
X176927284Y-86795352D01*
X176926716Y-87445795D01*
X177165000Y-88022485D01*
X177165000Y-91302867D01*
X176927284Y-91875352D01*
X176926716Y-92525795D01*
X177109128Y-92967266D01*
X176731394Y-93345000D01*
X175312606Y-93345000D01*
X174934670Y-92967064D01*
X175116716Y-92528648D01*
X175117284Y-91878205D01*
X174879000Y-91301515D01*
X174879000Y-88021133D01*
X175116716Y-87448648D01*
X175117284Y-86798205D01*
X174868894Y-86197057D01*
X174409363Y-85736722D01*
X174236584Y-85664978D01*
X168275000Y-79703394D01*
X168275000Y-72644000D01*
X168264994Y-72594590D01*
X168237803Y-72554197D01*
X167767000Y-72083394D01*
X167767000Y-69648606D01*
X168200606Y-69215000D01*
X169111394Y-69215000D01*
X169545000Y-69648606D01*
X169545000Y-69648606D01*
G37*
X169545000Y-69648606D02*
X169545000Y-71120000D01*
X169555006Y-71169410D01*
X169582197Y-71209803D01*
X171577000Y-73204606D01*
X171577000Y-73616811D01*
X171531162Y-73727201D01*
X171530838Y-74099167D01*
X171577000Y-74210888D01*
X171577000Y-79248000D01*
X171587006Y-79297410D01*
X171614197Y-79337803D01*
X177165000Y-84888606D01*
X177165000Y-86222867D01*
X176927284Y-86795352D01*
X176926716Y-87445795D01*
X177165000Y-88022485D01*
X177165000Y-91302867D01*
X176927284Y-91875352D01*
X176926716Y-92525795D01*
X177109128Y-92967266D01*
X176731394Y-93345000D01*
X175312606Y-93345000D01*
X174934670Y-92967064D01*
X175116716Y-92528648D01*
X175117284Y-91878205D01*
X174879000Y-91301515D01*
X174879000Y-88021133D01*
X175116716Y-87448648D01*
X175117284Y-86798205D01*
X174868894Y-86197057D01*
X174409363Y-85736722D01*
X174236584Y-85664978D01*
X168275000Y-79703394D01*
X168275000Y-72644000D01*
X168264994Y-72594590D01*
X168237803Y-72554197D01*
X167767000Y-72083394D01*
X167767000Y-69648606D01*
X168200606Y-69215000D01*
X169111394Y-69215000D01*
X169545000Y-69648606D01*
G36*
X67945000Y-61266606D02*
X67945000Y-62939394D01*
X67511394Y-63373000D01*
X66802000Y-63373000D01*
X66752590Y-63383006D01*
X66710965Y-63411447D01*
X66683685Y-63453841D01*
X66675048Y-63503509D01*
X66686416Y-63552623D01*
X66712197Y-63589803D01*
X66929000Y-63806606D01*
X66929000Y-66548000D01*
X66939006Y-66597410D01*
X66966197Y-66637803D01*
X67437000Y-67108606D01*
X67437000Y-68580000D01*
X67447006Y-68629410D01*
X67474197Y-68669803D01*
X68453000Y-69648606D01*
X68453000Y-70866000D01*
X68463006Y-70915410D01*
X68490197Y-70955803D01*
X69252197Y-71717803D01*
X69294211Y-71745666D01*
X69342000Y-71755000D01*
X70104000Y-71755000D01*
X70153410Y-71744994D01*
X70193803Y-71717803D01*
X70701803Y-71209803D01*
X70729666Y-71167789D01*
X70739000Y-71120000D01*
X70739000Y-67616606D01*
X71172606Y-67183000D01*
X71628000Y-67183000D01*
X71677410Y-67172994D01*
X71717803Y-67145803D01*
X72188606Y-66675000D01*
X74168000Y-66675000D01*
X74217410Y-66664994D01*
X74257803Y-66637803D01*
X77268606Y-63627000D01*
X88339394Y-63627000D01*
X88810197Y-64097803D01*
X88852211Y-64125666D01*
X88900000Y-64135000D01*
X101600000Y-64135000D01*
X101649410Y-64124994D01*
X101689803Y-64097803D01*
X101933139Y-63854467D01*
X102003349Y-63901380D01*
X102552500Y-64010613D01*
X103101651Y-63901380D01*
X103567198Y-63590311D01*
X103878267Y-63124764D01*
X103987500Y-62575613D01*
X103987500Y-62519387D01*
X103878267Y-61970236D01*
X103853875Y-61933731D01*
X104192606Y-61595000D01*
X105611394Y-61595000D01*
X106045000Y-62028606D01*
X106045000Y-62431394D01*
X104812197Y-63664197D01*
X104784334Y-63706211D01*
X104775012Y-63755754D01*
X104785700Y-63805022D01*
X104814713Y-63846249D01*
X104857480Y-63872941D01*
X104902000Y-63881000D01*
X105611394Y-63881000D01*
X106045000Y-64314606D01*
X106045000Y-66040000D01*
X106055006Y-66089410D01*
X106082197Y-66129803D01*
X106590197Y-66637803D01*
X106632211Y-66665666D01*
X106680000Y-66675000D01*
X107952000Y-66675000D01*
X107952000Y-69795537D01*
X107919808Y-69827673D01*
X107777162Y-70171201D01*
X107776838Y-70543167D01*
X107918883Y-70886943D01*
X108181673Y-71150192D01*
X108525201Y-71292838D01*
X108897167Y-71293162D01*
X109240943Y-71151117D01*
X109504192Y-70888327D01*
X109646838Y-70544799D01*
X109647162Y-70172833D01*
X109505117Y-69829057D01*
X109472000Y-69795882D01*
X109472000Y-66675000D01*
X111760000Y-66675000D01*
X111809410Y-66664994D01*
X111849803Y-66637803D01*
X115876606Y-62611000D01*
X120343394Y-62611000D01*
X122338197Y-64605803D01*
X122380211Y-64633666D01*
X122428000Y-64643000D01*
X135128000Y-64643000D01*
X135177410Y-64632994D01*
X135217803Y-64605803D01*
X135753377Y-64070229D01*
X135975849Y-64218880D01*
X136525000Y-64328113D01*
X137074151Y-64218880D01*
X137539698Y-63907811D01*
X137850767Y-63442264D01*
X137960000Y-62893113D01*
X137960000Y-62836887D01*
X137850767Y-62287736D01*
X137724637Y-62098969D01*
X138228606Y-61595000D01*
X139647394Y-61595000D01*
X140081000Y-62028606D01*
X140081000Y-62431394D01*
X138086197Y-64426197D01*
X138058334Y-64468211D01*
X138049000Y-64516000D01*
X138049000Y-65024000D01*
X138059006Y-65073410D01*
X138086197Y-65113803D01*
X138811000Y-65838606D01*
X138811000Y-66548000D01*
X138821006Y-66597410D01*
X138848197Y-66637803D01*
X139356197Y-67145803D01*
X139398211Y-67173666D01*
X139446000Y-67183000D01*
X141226000Y-67183000D01*
X141226000Y-70866000D01*
X141283852Y-71156839D01*
X141304940Y-71188399D01*
X141304838Y-71305167D01*
X141446883Y-71648943D01*
X141709673Y-71912192D01*
X142053201Y-72054838D01*
X142425167Y-72055162D01*
X142768943Y-71913117D01*
X143032192Y-71650327D01*
X143174838Y-71306799D01*
X143175162Y-70934833D01*
X143033117Y-70591057D01*
X142770327Y-70327808D01*
X142746000Y-70317706D01*
X142746000Y-67183000D01*
X145288000Y-67183000D01*
X145337410Y-67172994D01*
X145377803Y-67145803D01*
X150928606Y-61595000D01*
X158443394Y-61595000D01*
X159565681Y-62717287D01*
X159646733Y-63124764D01*
X159957802Y-63590311D01*
X160423349Y-63901380D01*
X160972500Y-64010613D01*
X161521651Y-63901380D01*
X161932289Y-63627000D01*
X162552711Y-63627000D01*
X162963349Y-63901380D01*
X163512500Y-64010613D01*
X164061651Y-63901380D01*
X164472289Y-63627000D01*
X165092711Y-63627000D01*
X165503349Y-63901380D01*
X166052500Y-64010613D01*
X166601651Y-63901380D01*
X167012289Y-63627000D01*
X167632711Y-63627000D01*
X168043349Y-63901380D01*
X168592500Y-64010613D01*
X169141651Y-63901380D01*
X169552289Y-63627000D01*
X170172711Y-63627000D01*
X170583349Y-63901380D01*
X171132500Y-64010613D01*
X171681651Y-63901380D01*
X172092289Y-63627000D01*
X172712711Y-63627000D01*
X173123349Y-63901380D01*
X173672500Y-64010613D01*
X174221651Y-63901380D01*
X174687198Y-63590311D01*
X174998267Y-63124764D01*
X175107500Y-62575613D01*
X175107500Y-62519387D01*
X175030305Y-62131301D01*
X175566606Y-61595000D01*
X177493394Y-61595000D01*
X177673000Y-61774606D01*
X177673000Y-62431394D01*
X176694197Y-63410197D01*
X176666334Y-63452211D01*
X176657000Y-63500000D01*
X176657000Y-66040000D01*
X176667006Y-66089410D01*
X176694197Y-66129803D01*
X177202197Y-66637803D01*
X177244211Y-66665666D01*
X177292000Y-66675000D01*
X179072000Y-66675000D01*
X179072000Y-70049537D01*
X179039808Y-70081673D01*
X178897162Y-70425201D01*
X178896838Y-70797167D01*
X179038883Y-71140943D01*
X179301673Y-71404192D01*
X179645201Y-71546838D01*
X180017167Y-71547162D01*
X180360943Y-71405117D01*
X180624192Y-71142327D01*
X180766838Y-70798799D01*
X180767162Y-70426833D01*
X180625117Y-70083057D01*
X180592000Y-70049882D01*
X180592000Y-66675000D01*
X183843394Y-66675000D01*
X185218000Y-68049606D01*
X185218000Y-114322394D01*
X183335394Y-116205000D01*
X178868606Y-116205000D01*
X177889803Y-115226197D01*
X177847789Y-115198334D01*
X177800000Y-115189000D01*
X176124755Y-115189000D01*
X175809151Y-114978120D01*
X175260000Y-114868887D01*
X174710849Y-114978120D01*
X174395245Y-115189000D01*
X173584755Y-115189000D01*
X173269151Y-114978120D01*
X172720000Y-114868887D01*
X172170849Y-114978120D01*
X171855245Y-115189000D01*
X171044755Y-115189000D01*
X170729151Y-114978120D01*
X170180000Y-114868887D01*
X169630849Y-114978120D01*
X169315245Y-115189000D01*
X168504755Y-115189000D01*
X168189151Y-114978120D01*
X167640000Y-114868887D01*
X167090849Y-114978120D01*
X166775245Y-115189000D01*
X165964755Y-115189000D01*
X165649151Y-114978120D01*
X165100000Y-114868887D01*
X164550849Y-114978120D01*
X164235245Y-115189000D01*
X163424755Y-115189000D01*
X163109151Y-114978120D01*
X162560000Y-114868887D01*
X162010849Y-114978120D01*
X161695245Y-115189000D01*
X161544000Y-115189000D01*
X161494590Y-115199006D01*
X161454197Y-115226197D01*
X161200197Y-115480197D01*
X161172334Y-115522211D01*
X161163000Y-115570000D01*
X161163000Y-116112848D01*
X161125000Y-116303887D01*
X161125000Y-116360113D01*
X161163000Y-116551154D01*
X161163000Y-116654198D01*
X160596198Y-117221000D01*
X158548606Y-117221000D01*
X158115000Y-116787394D01*
X158115000Y-115876606D01*
X158548606Y-115443000D01*
X160020000Y-115443000D01*
X160069410Y-115432994D01*
X160109803Y-115405803D01*
X160617803Y-114897803D01*
X160645666Y-114855789D01*
X160655000Y-114808000D01*
X160655000Y-113538000D01*
X160644994Y-113488590D01*
X160617803Y-113448197D01*
X159347803Y-112178197D01*
X159305789Y-112150334D01*
X159258000Y-112141000D01*
X157224000Y-112141000D01*
X157224000Y-108512463D01*
X157256192Y-108480327D01*
X157398838Y-108136799D01*
X157399162Y-107764833D01*
X157257117Y-107421057D01*
X156994327Y-107157808D01*
X156650799Y-107015162D01*
X156278833Y-107014838D01*
X155935057Y-107156883D01*
X155671808Y-107419673D01*
X155529162Y-107763201D01*
X155528838Y-108135167D01*
X155670883Y-108478943D01*
X155704000Y-108512118D01*
X155704000Y-112141000D01*
X153416000Y-112141000D01*
X153366590Y-112151006D01*
X153326197Y-112178197D01*
X148283394Y-117221000D01*
X141276606Y-117221000D01*
X140408750Y-116353144D01*
X140390767Y-116262736D01*
X140079698Y-115797189D01*
X139614151Y-115486120D01*
X139065000Y-115376887D01*
X138515849Y-115486120D01*
X138200245Y-115697000D01*
X137389755Y-115697000D01*
X137074151Y-115486120D01*
X136525000Y-115376887D01*
X135975849Y-115486120D01*
X135660245Y-115697000D01*
X134849755Y-115697000D01*
X134534151Y-115486120D01*
X133985000Y-115376887D01*
X133435849Y-115486120D01*
X133120245Y-115697000D01*
X132309755Y-115697000D01*
X131994151Y-115486120D01*
X131445000Y-115376887D01*
X130895849Y-115486120D01*
X130580245Y-115697000D01*
X129769755Y-115697000D01*
X129454151Y-115486120D01*
X128905000Y-115376887D01*
X128355849Y-115486120D01*
X128040245Y-115697000D01*
X127229755Y-115697000D01*
X126914151Y-115486120D01*
X126365000Y-115376887D01*
X125815849Y-115486120D01*
X125350302Y-115797189D01*
X125039233Y-116262736D01*
X124930000Y-116811887D01*
X124930000Y-116868113D01*
X124985096Y-117145102D01*
X124401198Y-117729000D01*
X122988606Y-117729000D01*
X122555000Y-117295394D01*
X122555000Y-116892606D01*
X124295803Y-115151803D01*
X124323666Y-115109789D01*
X124333000Y-115062000D01*
X124333000Y-113030000D01*
X124322994Y-112980590D01*
X124295803Y-112940197D01*
X123025803Y-111670197D01*
X122983789Y-111642334D01*
X122936000Y-111633000D01*
X120648000Y-111633000D01*
X120648000Y-109528463D01*
X120680192Y-109496327D01*
X120822838Y-109152799D01*
X120823162Y-108780833D01*
X120681117Y-108437057D01*
X120418327Y-108173808D01*
X120074799Y-108031162D01*
X119702833Y-108030838D01*
X119359057Y-108172883D01*
X119095808Y-108435673D01*
X118953162Y-108779201D01*
X118952838Y-109151167D01*
X119094883Y-109494943D01*
X119128000Y-109528118D01*
X119128000Y-111633000D01*
X116332000Y-111633000D01*
X116282590Y-111643006D01*
X116242197Y-111670197D01*
X110691394Y-117221000D01*
X106224606Y-117221000D01*
X104737803Y-115734197D01*
X104695789Y-115706334D01*
X104648000Y-115697000D01*
X104369755Y-115697000D01*
X104054151Y-115486120D01*
X103505000Y-115376887D01*
X102955849Y-115486120D01*
X102640245Y-115697000D01*
X101829755Y-115697000D01*
X101514151Y-115486120D01*
X100965000Y-115376887D01*
X100415849Y-115486120D01*
X100100245Y-115697000D01*
X99289755Y-115697000D01*
X98974151Y-115486120D01*
X98425000Y-115376887D01*
X97875849Y-115486120D01*
X97560245Y-115697000D01*
X96749755Y-115697000D01*
X96434151Y-115486120D01*
X95885000Y-115376887D01*
X95335849Y-115486120D01*
X95020245Y-115697000D01*
X94209755Y-115697000D01*
X93894151Y-115486120D01*
X93345000Y-115376887D01*
X92795849Y-115486120D01*
X92480245Y-115697000D01*
X91669755Y-115697000D01*
X91354151Y-115486120D01*
X90805000Y-115376887D01*
X90255849Y-115486120D01*
X89790302Y-115797189D01*
X89479233Y-116262736D01*
X89370000Y-116811887D01*
X89370000Y-116868113D01*
X89425096Y-117145102D01*
X88841198Y-117729000D01*
X86920606Y-117729000D01*
X86487000Y-117295394D01*
X86487000Y-116892606D01*
X87719803Y-115659803D01*
X87747666Y-115617789D01*
X87757000Y-115570000D01*
X87757000Y-113030000D01*
X87746994Y-112980590D01*
X87719803Y-112940197D01*
X86957803Y-112178197D01*
X86915789Y-112150334D01*
X86868000Y-112141000D01*
X85596000Y-112141000D01*
X85596000Y-109401463D01*
X85628192Y-109369327D01*
X85770838Y-109025799D01*
X85771162Y-108653833D01*
X85629117Y-108310057D01*
X85366327Y-108046808D01*
X85022799Y-107904162D01*
X84650833Y-107903838D01*
X84307057Y-108045883D01*
X84043808Y-108308673D01*
X83901162Y-108652201D01*
X83900838Y-109024167D01*
X84042883Y-109367943D01*
X84076000Y-109401118D01*
X84076000Y-112141000D01*
X79756000Y-112141000D01*
X79706590Y-112151006D01*
X79666197Y-112178197D01*
X76655394Y-115189000D01*
X75692000Y-115189000D01*
X75642590Y-115199006D01*
X75602197Y-115226197D01*
X73607394Y-117221000D01*
X67108606Y-117221000D01*
X65668371Y-115780765D01*
X65467198Y-115479689D01*
X65166122Y-115278516D01*
X64605803Y-114718197D01*
X64563789Y-114690334D01*
X64516000Y-114681000D01*
X51816000Y-114681000D01*
X51766590Y-114691006D01*
X51726197Y-114718197D01*
X51293757Y-115150637D01*
X51203349Y-115168620D01*
X50737802Y-115479689D01*
X50426733Y-115945236D01*
X50317500Y-116494387D01*
X50317500Y-116550613D01*
X50373624Y-116832770D01*
X49731394Y-117475000D01*
X48312606Y-117475000D01*
X47625000Y-116787394D01*
X47625000Y-115876606D01*
X48058606Y-115443000D01*
X49276000Y-115443000D01*
X49325410Y-115432994D01*
X49365803Y-115405803D01*
X49873803Y-114897803D01*
X49901666Y-114855789D01*
X49911000Y-114808000D01*
X49911000Y-113792000D01*
X49900994Y-113742590D01*
X49873803Y-113702197D01*
X48095803Y-111924197D01*
X48053789Y-111896334D01*
X48006000Y-111887000D01*
X47038800Y-111887000D01*
X47038800Y-109198263D01*
X47070992Y-109166127D01*
X47213638Y-108822599D01*
X47213962Y-108450633D01*
X47071917Y-108106857D01*
X46809127Y-107843608D01*
X46465599Y-107700962D01*
X46093633Y-107700638D01*
X45749857Y-107842683D01*
X45486608Y-108105473D01*
X45343962Y-108449001D01*
X45343638Y-108820967D01*
X45485683Y-109164743D01*
X45518800Y-109197918D01*
X45518800Y-112141000D01*
X43232606Y-112141000D01*
X42416000Y-111324394D01*
X42416000Y-102855000D01*
X45692560Y-102855000D01*
X45692560Y-104155000D01*
X45736838Y-104390317D01*
X45875910Y-104606441D01*
X46088110Y-104751431D01*
X46340000Y-104802440D01*
X47640000Y-104802440D01*
X47875317Y-104758162D01*
X48091441Y-104619090D01*
X48236431Y-104406890D01*
X48287440Y-104155000D01*
X48287440Y-102855000D01*
X48243162Y-102619683D01*
X48104090Y-102403559D01*
X47891890Y-102258569D01*
X47640000Y-102207560D01*
X46340000Y-102207560D01*
X46104683Y-102251838D01*
X45888559Y-102390910D01*
X45743569Y-102603110D01*
X45692560Y-102855000D01*
X42416000Y-102855000D01*
X42416000Y-94415606D01*
X43232606Y-93599000D01*
X45720000Y-93599000D01*
X45769410Y-93588994D01*
X45809803Y-93561803D01*
X46317803Y-93053803D01*
X46345666Y-93011789D01*
X46355000Y-92964000D01*
X46355000Y-92076016D01*
X46380464Y-91948000D01*
X46355000Y-91819984D01*
X46355000Y-90932000D01*
X46344994Y-90882590D01*
X46317803Y-90842197D01*
X45809803Y-90334197D01*
X45767789Y-90306334D01*
X45720000Y-90297000D01*
X43232606Y-90297000D01*
X42799000Y-89863394D01*
X42799000Y-88952606D01*
X43232606Y-88519000D01*
X45720000Y-88519000D01*
X45769410Y-88508994D01*
X45809803Y-88481803D01*
X46317803Y-87973803D01*
X46345666Y-87931789D01*
X46355000Y-87884000D01*
X46355000Y-86996016D01*
X46380464Y-86868000D01*
X46355000Y-86739984D01*
X46355000Y-85852000D01*
X47625000Y-85852000D01*
X47625000Y-94488000D01*
X47635006Y-94537410D01*
X47662197Y-94577803D01*
X52705000Y-99620606D01*
X52705000Y-104322444D01*
X52697633Y-104322438D01*
X52353857Y-104464483D01*
X52090608Y-104727273D01*
X51947962Y-105070801D01*
X51947638Y-105442767D01*
X52089683Y-105786543D01*
X52122800Y-105819718D01*
X52122800Y-107061000D01*
X50546000Y-107061000D01*
X50496590Y-107071006D01*
X50456197Y-107098197D01*
X49948197Y-107606197D01*
X49920334Y-107648211D01*
X49911000Y-107696000D01*
X49911000Y-108913394D01*
X48932197Y-109892197D01*
X48904334Y-109934211D01*
X48895012Y-109983754D01*
X48905700Y-110033022D01*
X48934713Y-110074249D01*
X48977480Y-110100941D01*
X49022000Y-110109000D01*
X49731394Y-110109000D01*
X50202197Y-110579803D01*
X50244211Y-110607666D01*
X50292000Y-110617000D01*
X51763394Y-110617000D01*
X52197000Y-111050606D01*
X52197000Y-112268000D01*
X52207006Y-112317410D01*
X52235447Y-112359035D01*
X52277841Y-112386315D01*
X52327509Y-112394952D01*
X52376623Y-112383584D01*
X52413803Y-112357803D01*
X52847372Y-111924234D01*
X53051601Y-112009038D01*
X53423567Y-112009362D01*
X53767343Y-111867317D01*
X54030592Y-111604527D01*
X54173238Y-111260999D01*
X54173562Y-110889033D01*
X54031517Y-110545257D01*
X53975000Y-110488641D01*
X53975000Y-110302458D01*
X54292500Y-110365613D01*
X54841651Y-110256380D01*
X55245000Y-109986870D01*
X55245000Y-110236000D01*
X55255006Y-110285410D01*
X55282197Y-110325803D01*
X55790197Y-110833803D01*
X55832211Y-110861666D01*
X55880000Y-110871000D01*
X62370764Y-110871000D01*
X62452883Y-111069743D01*
X62715673Y-111332992D01*
X63059201Y-111475638D01*
X63431167Y-111475962D01*
X63774943Y-111333917D01*
X64038192Y-111071127D01*
X64180838Y-110727599D01*
X64181162Y-110355633D01*
X64161357Y-110307701D01*
X64452500Y-110365613D01*
X65001651Y-110256380D01*
X65467198Y-109945311D01*
X65778267Y-109479764D01*
X65887500Y-108930613D01*
X65887500Y-108874387D01*
X65778267Y-108325236D01*
X65467198Y-107859689D01*
X65001651Y-107548620D01*
X64452500Y-107439387D01*
X63980600Y-107533254D01*
X63980600Y-105743863D01*
X64012792Y-105711727D01*
X64155438Y-105368199D01*
X64155762Y-104996233D01*
X64013717Y-104652457D01*
X63750927Y-104389208D01*
X63407399Y-104246562D01*
X63035433Y-104246238D01*
X62691657Y-104388283D01*
X62428408Y-104651073D01*
X62285762Y-104994601D01*
X62285438Y-105366567D01*
X62427483Y-105710343D01*
X62460600Y-105743518D01*
X62460600Y-105968994D01*
X62103000Y-105611394D01*
X62103000Y-102855000D01*
X66012560Y-102855000D01*
X66012560Y-104155000D01*
X66056838Y-104390317D01*
X66195910Y-104606441D01*
X66408110Y-104751431D01*
X66660000Y-104802440D01*
X67960000Y-104802440D01*
X68195317Y-104758162D01*
X68411441Y-104619090D01*
X68556431Y-104406890D01*
X68607440Y-104155000D01*
X68607440Y-103490000D01*
X84046560Y-103490000D01*
X84046560Y-104790000D01*
X84090838Y-105025317D01*
X84229910Y-105241441D01*
X84442110Y-105386431D01*
X84694000Y-105437440D01*
X85994000Y-105437440D01*
X86229317Y-105393162D01*
X86445441Y-105254090D01*
X86590431Y-105041890D01*
X86641440Y-104790000D01*
X86641440Y-103490000D01*
X86597162Y-103254683D01*
X86458090Y-103038559D01*
X86245890Y-102893569D01*
X85994000Y-102842560D01*
X84694000Y-102842560D01*
X84458683Y-102886838D01*
X84242559Y-103025910D01*
X84097569Y-103238110D01*
X84046560Y-103490000D01*
X68607440Y-103490000D01*
X68607440Y-102855000D01*
X68563162Y-102619683D01*
X68424090Y-102403559D01*
X68211890Y-102258569D01*
X67960000Y-102207560D01*
X66660000Y-102207560D01*
X66424683Y-102251838D01*
X66208559Y-102390910D01*
X66063569Y-102603110D01*
X66012560Y-102855000D01*
X62103000Y-102855000D01*
X62103000Y-97536000D01*
X62092994Y-97486590D01*
X62065803Y-97446197D01*
X58547000Y-93927394D01*
X58547000Y-93599000D01*
X69088000Y-93599000D01*
X69137410Y-93588994D01*
X69177803Y-93561803D01*
X69685803Y-93053803D01*
X69713666Y-93011789D01*
X69723000Y-92964000D01*
X69723000Y-86360000D01*
X86741000Y-86360000D01*
X86741000Y-96012000D01*
X86751006Y-96061410D01*
X86778197Y-96101803D01*
X91821000Y-101144606D01*
X91821000Y-105109889D01*
X91762833Y-105109838D01*
X91419057Y-105251883D01*
X91155808Y-105514673D01*
X91013162Y-105858201D01*
X91012838Y-106230167D01*
X91154883Y-106573943D01*
X91188000Y-106607118D01*
X91188000Y-107061000D01*
X89408000Y-107061000D01*
X89358590Y-107071006D01*
X89318197Y-107098197D01*
X88810197Y-107606197D01*
X88782334Y-107648211D01*
X88773000Y-107696000D01*
X88773000Y-109675394D01*
X88048197Y-110400197D01*
X88020334Y-110442211D01*
X88011012Y-110491754D01*
X88021700Y-110541022D01*
X88050713Y-110582249D01*
X88093480Y-110608941D01*
X88138000Y-110617000D01*
X89609394Y-110617000D01*
X90080197Y-111087803D01*
X90122211Y-111115666D01*
X90170000Y-111125000D01*
X90879394Y-111125000D01*
X91059000Y-111304606D01*
X91059000Y-112014000D01*
X91069006Y-112063410D01*
X91097447Y-112105035D01*
X91139841Y-112132315D01*
X91189509Y-112140952D01*
X91238623Y-112129584D01*
X91275803Y-112103803D01*
X91576287Y-111803319D01*
X91888201Y-111932838D01*
X92260167Y-111933162D01*
X92603943Y-111791117D01*
X92867192Y-111528327D01*
X93009838Y-111184799D01*
X93010162Y-110812833D01*
X92921779Y-110598929D01*
X93345000Y-110683113D01*
X93894151Y-110573880D01*
X94359698Y-110262811D01*
X94364864Y-110255080D01*
X94371006Y-110285410D01*
X94398197Y-110325803D01*
X95414197Y-111341803D01*
X95456211Y-111369666D01*
X95504000Y-111379000D01*
X101092000Y-111379000D01*
X101141410Y-111368994D01*
X101181803Y-111341803D01*
X101300024Y-111223582D01*
X101299838Y-111437167D01*
X101441883Y-111780943D01*
X101704673Y-112044192D01*
X102048201Y-112186838D01*
X102420167Y-112187162D01*
X102763943Y-112045117D01*
X103027192Y-111782327D01*
X103169838Y-111438799D01*
X103170162Y-111066833D01*
X103122000Y-110950272D01*
X103122000Y-110606930D01*
X103505000Y-110683113D01*
X104054151Y-110573880D01*
X104519698Y-110262811D01*
X104830767Y-109797264D01*
X104940000Y-109248113D01*
X104940000Y-109191887D01*
X104830767Y-108642736D01*
X104519698Y-108177189D01*
X104054151Y-107866120D01*
X103505000Y-107756887D01*
X103122000Y-107833070D01*
X103122000Y-105845463D01*
X103154192Y-105813327D01*
X103296838Y-105469799D01*
X103297162Y-105097833D01*
X103155117Y-104754057D01*
X102892327Y-104490808D01*
X102548799Y-104348162D01*
X102176833Y-104347838D01*
X101833057Y-104489883D01*
X101569808Y-104752673D01*
X101427162Y-105096201D01*
X101426975Y-105311369D01*
X99695000Y-103579394D01*
X99695000Y-103490000D01*
X105382560Y-103490000D01*
X105382560Y-104790000D01*
X105426838Y-105025317D01*
X105565910Y-105241441D01*
X105778110Y-105386431D01*
X106030000Y-105437440D01*
X107330000Y-105437440D01*
X107565317Y-105393162D01*
X107781441Y-105254090D01*
X107926431Y-105041890D01*
X107977440Y-104790000D01*
X107977440Y-103490000D01*
X119606560Y-103490000D01*
X119606560Y-104790000D01*
X119650838Y-105025317D01*
X119789910Y-105241441D01*
X120002110Y-105386431D01*
X120254000Y-105437440D01*
X121554000Y-105437440D01*
X121789317Y-105393162D01*
X122005441Y-105254090D01*
X122150431Y-105041890D01*
X122201440Y-104790000D01*
X122201440Y-103490000D01*
X122157162Y-103254683D01*
X122018090Y-103038559D01*
X121805890Y-102893569D01*
X121554000Y-102842560D01*
X120254000Y-102842560D01*
X120018683Y-102886838D01*
X119802559Y-103025910D01*
X119657569Y-103238110D01*
X119606560Y-103490000D01*
X107977440Y-103490000D01*
X107933162Y-103254683D01*
X107794090Y-103038559D01*
X107581890Y-102893569D01*
X107330000Y-102842560D01*
X106030000Y-102842560D01*
X105794683Y-102886838D01*
X105578559Y-103025910D01*
X105433569Y-103238110D01*
X105382560Y-103490000D01*
X99695000Y-103490000D01*
X99695000Y-99060000D01*
X99684994Y-99010590D01*
X99657803Y-98970197D01*
X96139000Y-95451394D01*
X96139000Y-94540606D01*
X96572606Y-94107000D01*
X107696000Y-94107000D01*
X107745410Y-94096994D01*
X107785803Y-94069803D01*
X108293803Y-93561803D01*
X108321666Y-93519789D01*
X108331000Y-93472000D01*
X108331000Y-85852000D01*
X121285000Y-85852000D01*
X121285000Y-93980000D01*
X121295006Y-94029410D01*
X121322197Y-94069803D01*
X127381000Y-100128606D01*
X127381000Y-104047802D01*
X127186799Y-103967162D01*
X126814833Y-103966838D01*
X126471057Y-104108883D01*
X126207808Y-104371673D01*
X126065162Y-104715201D01*
X126064838Y-105087167D01*
X126206883Y-105430943D01*
X126240000Y-105464118D01*
X126240000Y-105664000D01*
X126297852Y-105954839D01*
X126462599Y-106201401D01*
X127002000Y-106740802D01*
X127002000Y-107061391D01*
X127000000Y-107061000D01*
X124968000Y-107061000D01*
X124918590Y-107071006D01*
X124878197Y-107098197D01*
X124370197Y-107606197D01*
X124342334Y-107648211D01*
X124333000Y-107696000D01*
X124333000Y-109675394D01*
X123608197Y-110400197D01*
X123580334Y-110442211D01*
X123571012Y-110491754D01*
X123581700Y-110541022D01*
X123610713Y-110582249D01*
X123653480Y-110608941D01*
X123698000Y-110617000D01*
X124915394Y-110617000D01*
X125386197Y-111087803D01*
X125428211Y-111115666D01*
X125476000Y-111125000D01*
X126693394Y-111125000D01*
X126826994Y-111258600D01*
X126826838Y-111437167D01*
X126968883Y-111780943D01*
X127127000Y-111939336D01*
X127127000Y-112014000D01*
X127137006Y-112063410D01*
X127165447Y-112105035D01*
X127207841Y-112132315D01*
X127257509Y-112140952D01*
X127306623Y-112129584D01*
X127343803Y-112103803D01*
X127353024Y-112094582D01*
X127575201Y-112186838D01*
X127947167Y-112187162D01*
X128290943Y-112045117D01*
X128554192Y-111782327D01*
X128696838Y-111438799D01*
X128697162Y-111066833D01*
X128604656Y-110842950D01*
X128613803Y-110833803D01*
X128641666Y-110791789D01*
X128651000Y-110744000D01*
X128651000Y-110632590D01*
X128905000Y-110683113D01*
X129454151Y-110573880D01*
X129919698Y-110262811D01*
X129921000Y-110260862D01*
X129921000Y-110744000D01*
X129931006Y-110793410D01*
X129958197Y-110833803D01*
X130466197Y-111341803D01*
X130508211Y-111369666D01*
X130556000Y-111379000D01*
X137160000Y-111379000D01*
X137209410Y-111368994D01*
X137218595Y-111362811D01*
X137391673Y-111536192D01*
X137735201Y-111678838D01*
X138107167Y-111679162D01*
X138450943Y-111537117D01*
X138714192Y-111274327D01*
X138856838Y-110930799D01*
X138857090Y-110641757D01*
X139065000Y-110683113D01*
X139614151Y-110573880D01*
X140079698Y-110262811D01*
X140390767Y-109797264D01*
X140500000Y-109248113D01*
X140500000Y-109191887D01*
X140390767Y-108642736D01*
X140079698Y-108177189D01*
X139614151Y-107866120D01*
X139065000Y-107756887D01*
X138811000Y-107807410D01*
X138811000Y-106680000D01*
X138800994Y-106630590D01*
X138773803Y-106590197D01*
X138682000Y-106498394D01*
X138682000Y-105464463D01*
X138714192Y-105432327D01*
X138856838Y-105088799D01*
X138857162Y-104716833D01*
X138715117Y-104373057D01*
X138452327Y-104109808D01*
X138108799Y-103967162D01*
X137736833Y-103966838D01*
X137393057Y-104108883D01*
X137129808Y-104371673D01*
X136987162Y-104715201D01*
X136987085Y-104803479D01*
X135763000Y-103579394D01*
X135763000Y-103490000D01*
X140942560Y-103490000D01*
X140942560Y-104790000D01*
X140986838Y-105025317D01*
X141125910Y-105241441D01*
X141338110Y-105386431D01*
X141590000Y-105437440D01*
X142890000Y-105437440D01*
X143125317Y-105393162D01*
X143341441Y-105254090D01*
X143486431Y-105041890D01*
X143537440Y-104790000D01*
X143537440Y-103490000D01*
X143493162Y-103254683D01*
X143354090Y-103038559D01*
X143271314Y-102982000D01*
X155674560Y-102982000D01*
X155674560Y-104282000D01*
X155718838Y-104517317D01*
X155857910Y-104733441D01*
X156070110Y-104878431D01*
X156322000Y-104929440D01*
X157622000Y-104929440D01*
X157857317Y-104885162D01*
X158073441Y-104746090D01*
X158218431Y-104533890D01*
X158269440Y-104282000D01*
X158269440Y-102982000D01*
X158225162Y-102746683D01*
X158086090Y-102530559D01*
X157873890Y-102385569D01*
X157622000Y-102334560D01*
X156322000Y-102334560D01*
X156086683Y-102378838D01*
X155870559Y-102517910D01*
X155725569Y-102730110D01*
X155674560Y-102982000D01*
X143271314Y-102982000D01*
X143141890Y-102893569D01*
X142890000Y-102842560D01*
X141590000Y-102842560D01*
X141354683Y-102886838D01*
X141138559Y-103025910D01*
X140993569Y-103238110D01*
X140942560Y-103490000D01*
X135763000Y-103490000D01*
X135763000Y-98044000D01*
X135752994Y-97994590D01*
X135725803Y-97954197D01*
X132715000Y-94943394D01*
X132715000Y-94107000D01*
X141224000Y-94107000D01*
X141273410Y-94096994D01*
X141313803Y-94069803D01*
X142837803Y-92545803D01*
X142865666Y-92503789D01*
X142875000Y-92456000D01*
X142875000Y-85852000D01*
X158877000Y-85852000D01*
X158877000Y-93980000D01*
X158887006Y-94029410D01*
X158914197Y-94069803D01*
X164465000Y-99620606D01*
X164465000Y-104214664D01*
X164360327Y-104109808D01*
X164016799Y-103967162D01*
X163644833Y-103966838D01*
X163301057Y-104108883D01*
X163037808Y-104371673D01*
X162895162Y-104715201D01*
X162894838Y-105087167D01*
X163036883Y-105430943D01*
X163070000Y-105464118D01*
X163070000Y-106553000D01*
X161544000Y-106553000D01*
X161494590Y-106563006D01*
X161454197Y-106590197D01*
X160946197Y-107098197D01*
X160918334Y-107140211D01*
X160909000Y-107188000D01*
X160909000Y-109167394D01*
X159930197Y-110146197D01*
X159902334Y-110188211D01*
X159893012Y-110237754D01*
X159903700Y-110287022D01*
X159932713Y-110328249D01*
X159975480Y-110354941D01*
X160020000Y-110363000D01*
X161999394Y-110363000D01*
X162687000Y-111050606D01*
X162687000Y-112522000D01*
X162697006Y-112571410D01*
X162725447Y-112613035D01*
X162767841Y-112640315D01*
X162817509Y-112648952D01*
X162866623Y-112637584D01*
X162903803Y-112611803D01*
X163510762Y-112004844D01*
X163643201Y-112059838D01*
X164015167Y-112060162D01*
X164358943Y-111918117D01*
X164622192Y-111655327D01*
X164764838Y-111311799D01*
X164765162Y-110939833D01*
X164706170Y-110797061D01*
X164709666Y-110791789D01*
X164719000Y-110744000D01*
X164719000Y-110099328D01*
X165100000Y-110175113D01*
X165649151Y-110065880D01*
X166024406Y-109815142D01*
X166026197Y-109817803D01*
X167042197Y-110833803D01*
X167084211Y-110861666D01*
X167132000Y-110871000D01*
X173228000Y-110871000D01*
X173277410Y-110860994D01*
X173303765Y-110843253D01*
X173323883Y-110891943D01*
X173586673Y-111155192D01*
X173930201Y-111297838D01*
X174302167Y-111298162D01*
X174645943Y-111156117D01*
X174909192Y-110893327D01*
X175051838Y-110549799D01*
X175052162Y-110177833D01*
X175032326Y-110129826D01*
X175260000Y-110175113D01*
X175809151Y-110065880D01*
X176274698Y-109754811D01*
X176585767Y-109289264D01*
X176695000Y-108740113D01*
X176695000Y-108683887D01*
X176585767Y-108134736D01*
X176274698Y-107669189D01*
X175809151Y-107358120D01*
X175260000Y-107248887D01*
X174879000Y-107324672D01*
X174879000Y-105664000D01*
X174877000Y-105654124D01*
X174877000Y-104956463D01*
X174909192Y-104924327D01*
X175051838Y-104580799D01*
X175052162Y-104208833D01*
X174910117Y-103865057D01*
X174647327Y-103601808D01*
X174303799Y-103459162D01*
X173931833Y-103458838D01*
X173588057Y-103600883D01*
X173324808Y-103863673D01*
X173268026Y-104000420D01*
X172847000Y-103579394D01*
X172847000Y-102982000D01*
X177010560Y-102982000D01*
X177010560Y-104282000D01*
X177054838Y-104517317D01*
X177193910Y-104733441D01*
X177406110Y-104878431D01*
X177658000Y-104929440D01*
X178958000Y-104929440D01*
X179193317Y-104885162D01*
X179409441Y-104746090D01*
X179554431Y-104533890D01*
X179605440Y-104282000D01*
X179605440Y-102982000D01*
X179561162Y-102746683D01*
X179422090Y-102530559D01*
X179209890Y-102385569D01*
X178958000Y-102334560D01*
X177658000Y-102334560D01*
X177422683Y-102378838D01*
X177206559Y-102517910D01*
X177061569Y-102730110D01*
X177010560Y-102982000D01*
X172847000Y-102982000D01*
X172847000Y-98044000D01*
X172836994Y-97994590D01*
X172809803Y-97954197D01*
X169799000Y-94943394D01*
X169799000Y-94540606D01*
X170232606Y-94107000D01*
X178816000Y-94107000D01*
X178865410Y-94096994D01*
X178905803Y-94069803D01*
X179316136Y-93659470D01*
X179486943Y-93588894D01*
X179947278Y-93129363D01*
X180019022Y-92956584D01*
X180429803Y-92545803D01*
X180457666Y-92503789D01*
X180467000Y-92456000D01*
X180467000Y-86360000D01*
X180456994Y-86310590D01*
X180429803Y-86270197D01*
X172339000Y-78179394D01*
X172339000Y-74848890D01*
X172651167Y-74849162D01*
X172799190Y-74788000D01*
X177518560Y-74788000D01*
X177518560Y-76088000D01*
X177562838Y-76323317D01*
X177701910Y-76539441D01*
X177914110Y-76684431D01*
X178166000Y-76735440D01*
X179466000Y-76735440D01*
X179701317Y-76691162D01*
X179917441Y-76552090D01*
X180062431Y-76339890D01*
X180113440Y-76088000D01*
X180113440Y-74788000D01*
X180069162Y-74552683D01*
X179930090Y-74336559D01*
X179717890Y-74191569D01*
X179466000Y-74140560D01*
X178166000Y-74140560D01*
X177930683Y-74184838D01*
X177714559Y-74323910D01*
X177569569Y-74536110D01*
X177518560Y-74788000D01*
X172799190Y-74788000D01*
X172994943Y-74707117D01*
X173258192Y-74444327D01*
X173400838Y-74100799D01*
X173401162Y-73728833D01*
X173259117Y-73385057D01*
X173226000Y-73351882D01*
X173226000Y-71755000D01*
X174752000Y-71755000D01*
X174801410Y-71744994D01*
X174841803Y-71717803D01*
X175857803Y-70701803D01*
X175885666Y-70659789D01*
X175895000Y-70612000D01*
X175895000Y-69648606D01*
X176365803Y-69177803D01*
X176393666Y-69135789D01*
X176402988Y-69086246D01*
X176392300Y-69036978D01*
X176363287Y-68995751D01*
X176320520Y-68969059D01*
X176276000Y-68961000D01*
X175566606Y-68961000D01*
X175387000Y-68781394D01*
X175387000Y-67818000D01*
X175376994Y-67768590D01*
X175349803Y-67728197D01*
X174841803Y-67220197D01*
X174799789Y-67192334D01*
X174752000Y-67183000D01*
X174042606Y-67183000D01*
X173863000Y-67003394D01*
X173863000Y-66548000D01*
X173852994Y-66498590D01*
X173824553Y-66456965D01*
X173782159Y-66429685D01*
X173732491Y-66421048D01*
X173683377Y-66432416D01*
X173646197Y-66458197D01*
X172874976Y-67229418D01*
X172652799Y-67137162D01*
X172280833Y-67136838D01*
X171937057Y-67278883D01*
X171673808Y-67541673D01*
X171531162Y-67885201D01*
X171530838Y-68257167D01*
X171623344Y-68481050D01*
X171614197Y-68490197D01*
X171586334Y-68532211D01*
X171577000Y-68580000D01*
X171577000Y-68792804D01*
X171132500Y-68704387D01*
X170583349Y-68813620D01*
X170281377Y-69015391D01*
X170269803Y-68998197D01*
X169761803Y-68490197D01*
X169719789Y-68462334D01*
X169672000Y-68453000D01*
X163241111Y-68453000D01*
X163241162Y-68394833D01*
X163099117Y-68051057D01*
X162836327Y-67787808D01*
X162492799Y-67645162D01*
X162120833Y-67644838D01*
X161777057Y-67786883D01*
X161513808Y-68049673D01*
X161371162Y-68393201D01*
X161370838Y-68765167D01*
X161379146Y-68785274D01*
X160972500Y-68704387D01*
X160423349Y-68813620D01*
X159957802Y-69124689D01*
X159646733Y-69590236D01*
X159537500Y-70139387D01*
X159537500Y-70195613D01*
X159646733Y-70744764D01*
X159957802Y-71210311D01*
X160423349Y-71521380D01*
X160972500Y-71630613D01*
X161417000Y-71542196D01*
X161417000Y-71628000D01*
X161427006Y-71677410D01*
X161454197Y-71717803D01*
X161546000Y-71809606D01*
X161546000Y-71821198D01*
X161006599Y-72360599D01*
X160841852Y-72607161D01*
X160784000Y-72898000D01*
X160784000Y-73605537D01*
X160751808Y-73637673D01*
X160609162Y-73981201D01*
X160608838Y-74353167D01*
X160750883Y-74696943D01*
X161013673Y-74960192D01*
X161357201Y-75102838D01*
X161729167Y-75103162D01*
X162072943Y-74961117D01*
X162336192Y-74698327D01*
X162478838Y-74354799D01*
X162479162Y-73982833D01*
X162337117Y-73639057D01*
X162304000Y-73605882D01*
X162304000Y-73212802D01*
X162626598Y-72890204D01*
X163957000Y-74220606D01*
X163957000Y-82804000D01*
X163967006Y-82853410D01*
X163994197Y-82893803D01*
X165481000Y-84380606D01*
X165481000Y-84783394D01*
X165047394Y-85217000D01*
X159512000Y-85217000D01*
X159462590Y-85227006D01*
X159422197Y-85254197D01*
X158914197Y-85762197D01*
X158886334Y-85804211D01*
X158877000Y-85852000D01*
X142875000Y-85852000D01*
X142864994Y-85802590D01*
X142837803Y-85762197D01*
X141313803Y-84238197D01*
X141271789Y-84210334D01*
X141224000Y-84201000D01*
X140768606Y-84201000D01*
X135255000Y-78687394D01*
X135255000Y-74915000D01*
X140307560Y-74915000D01*
X140307560Y-76215000D01*
X140351838Y-76450317D01*
X140490910Y-76666441D01*
X140703110Y-76811431D01*
X140955000Y-76862440D01*
X142255000Y-76862440D01*
X142490317Y-76818162D01*
X142706441Y-76679090D01*
X142851431Y-76466890D01*
X142902440Y-76215000D01*
X142902440Y-74915000D01*
X142878544Y-74788000D01*
X156436560Y-74788000D01*
X156436560Y-76088000D01*
X156480838Y-76323317D01*
X156619910Y-76539441D01*
X156832110Y-76684431D01*
X157084000Y-76735440D01*
X158384000Y-76735440D01*
X158619317Y-76691162D01*
X158835441Y-76552090D01*
X158980431Y-76339890D01*
X159031440Y-76088000D01*
X159031440Y-74788000D01*
X158987162Y-74552683D01*
X158848090Y-74336559D01*
X158635890Y-74191569D01*
X158384000Y-74140560D01*
X157084000Y-74140560D01*
X156848683Y-74184838D01*
X156632559Y-74323910D01*
X156487569Y-74536110D01*
X156436560Y-74788000D01*
X142878544Y-74788000D01*
X142858162Y-74679683D01*
X142719090Y-74463559D01*
X142506890Y-74318569D01*
X142255000Y-74267560D01*
X140955000Y-74267560D01*
X140719683Y-74311838D01*
X140503559Y-74450910D01*
X140358569Y-74663110D01*
X140307560Y-74915000D01*
X135255000Y-74915000D01*
X135255000Y-74848890D01*
X135567167Y-74849162D01*
X135910943Y-74707117D01*
X136174192Y-74444327D01*
X136316838Y-74100799D01*
X136317162Y-73728833D01*
X136175117Y-73385057D01*
X136142000Y-73351882D01*
X136142000Y-72770609D01*
X136144000Y-72771000D01*
X137160000Y-72771000D01*
X137209410Y-72760994D01*
X137249803Y-72733803D01*
X138265803Y-71717803D01*
X138293666Y-71675789D01*
X138303000Y-71628000D01*
X138303000Y-69648606D01*
X138773803Y-69177803D01*
X138801666Y-69135789D01*
X138810988Y-69086246D01*
X138800300Y-69036978D01*
X138771287Y-68995751D01*
X138728520Y-68969059D01*
X138684000Y-68961000D01*
X138482606Y-68961000D01*
X136525000Y-67003394D01*
X136525000Y-66294000D01*
X136514994Y-66244590D01*
X136486553Y-66202965D01*
X136444159Y-66175685D01*
X136394491Y-66167048D01*
X136345377Y-66178416D01*
X136308197Y-66204197D01*
X134530197Y-67982197D01*
X134502334Y-68024211D01*
X134493000Y-68072000D01*
X134493000Y-68282811D01*
X134447162Y-68393201D01*
X134446838Y-68765167D01*
X134493000Y-68876888D01*
X134493000Y-69122935D01*
X133985000Y-69021887D01*
X133435849Y-69131120D01*
X133061115Y-69381509D01*
X132169803Y-68490197D01*
X132127789Y-68462334D01*
X132080000Y-68453000D01*
X125984000Y-68453000D01*
X125934590Y-68463006D01*
X125894197Y-68490197D01*
X125793421Y-68590973D01*
X125752327Y-68549808D01*
X125408799Y-68407162D01*
X125036833Y-68406838D01*
X124693057Y-68548883D01*
X124429808Y-68811673D01*
X124303035Y-69116974D01*
X123825000Y-69021887D01*
X123275849Y-69131120D01*
X122810302Y-69442189D01*
X122499233Y-69907736D01*
X122390000Y-70456887D01*
X122390000Y-70513113D01*
X122499233Y-71062264D01*
X122810302Y-71527811D01*
X123275849Y-71838880D01*
X123825000Y-71948113D01*
X124333000Y-71847065D01*
X124333000Y-72644000D01*
X124343006Y-72693410D01*
X124370197Y-72733803D01*
X124462000Y-72825606D01*
X124462000Y-73091198D01*
X123922599Y-73630599D01*
X123757852Y-73877161D01*
X123700000Y-74168000D01*
X123700000Y-74367537D01*
X123667808Y-74399673D01*
X123525162Y-74743201D01*
X123524838Y-75115167D01*
X123666883Y-75458943D01*
X123929673Y-75722192D01*
X124273201Y-75864838D01*
X124645167Y-75865162D01*
X124988943Y-75723117D01*
X125252192Y-75460327D01*
X125394838Y-75116799D01*
X125395162Y-74744833D01*
X125267335Y-74435467D01*
X125669598Y-74033204D01*
X126365000Y-74728606D01*
X126365000Y-82804000D01*
X126375006Y-82853410D01*
X126402197Y-82893803D01*
X127889000Y-84380606D01*
X127889000Y-84783394D01*
X127455394Y-85217000D01*
X121920000Y-85217000D01*
X121870590Y-85227006D01*
X121830197Y-85254197D01*
X121322197Y-85762197D01*
X121294334Y-85804211D01*
X121285000Y-85852000D01*
X108331000Y-85852000D01*
X108320994Y-85802590D01*
X108293803Y-85762197D01*
X104229803Y-81698197D01*
X104187789Y-81670334D01*
X104140000Y-81661000D01*
X102668606Y-81661000D01*
X101219000Y-80211394D01*
X101219000Y-75042000D01*
X106398560Y-75042000D01*
X106398560Y-76342000D01*
X106442838Y-76577317D01*
X106581910Y-76793441D01*
X106794110Y-76938431D01*
X107046000Y-76989440D01*
X108346000Y-76989440D01*
X108581317Y-76945162D01*
X108797441Y-76806090D01*
X108942431Y-76593890D01*
X108993440Y-76342000D01*
X108993440Y-75550000D01*
X119352560Y-75550000D01*
X119352560Y-76850000D01*
X119396838Y-77085317D01*
X119535910Y-77301441D01*
X119748110Y-77446431D01*
X120000000Y-77497440D01*
X121300000Y-77497440D01*
X121535317Y-77453162D01*
X121751441Y-77314090D01*
X121896431Y-77101890D01*
X121947440Y-76850000D01*
X121947440Y-75550000D01*
X121903162Y-75314683D01*
X121764090Y-75098559D01*
X121551890Y-74953569D01*
X121300000Y-74902560D01*
X120000000Y-74902560D01*
X119764683Y-74946838D01*
X119548559Y-75085910D01*
X119403569Y-75298110D01*
X119352560Y-75550000D01*
X108993440Y-75550000D01*
X108993440Y-75042000D01*
X108949162Y-74806683D01*
X108810090Y-74590559D01*
X108597890Y-74445569D01*
X108346000Y-74394560D01*
X107046000Y-74394560D01*
X106810683Y-74438838D01*
X106594559Y-74577910D01*
X106449569Y-74790110D01*
X106398560Y-75042000D01*
X101219000Y-75042000D01*
X101219000Y-73324890D01*
X101531167Y-73325162D01*
X101874943Y-73183117D01*
X102138192Y-72920327D01*
X102280838Y-72576799D01*
X102281162Y-72204833D01*
X102139117Y-71861057D01*
X102106000Y-71827882D01*
X102106000Y-71755000D01*
X104140000Y-71755000D01*
X104189410Y-71744994D01*
X104229803Y-71717803D01*
X104737803Y-71209803D01*
X104765666Y-71167789D01*
X104775000Y-71120000D01*
X104775000Y-69648606D01*
X105245803Y-69177803D01*
X105273666Y-69135789D01*
X105282988Y-69086246D01*
X105272300Y-69036978D01*
X105243287Y-68995751D01*
X105200520Y-68969059D01*
X105156000Y-68961000D01*
X104700606Y-68961000D01*
X102743000Y-67003394D01*
X102743000Y-66040000D01*
X102732994Y-65990590D01*
X102704553Y-65948965D01*
X102662159Y-65921685D01*
X102612491Y-65913048D01*
X102563377Y-65924416D01*
X102526197Y-65950197D01*
X101575501Y-66900893D01*
X101532799Y-66883162D01*
X101160833Y-66882838D01*
X100817057Y-67024883D01*
X100553808Y-67287673D01*
X100411162Y-67631201D01*
X100410838Y-68003167D01*
X100457000Y-68114888D01*
X100457000Y-68792804D01*
X100012500Y-68704387D01*
X99463349Y-68813620D01*
X99161377Y-69015391D01*
X99149803Y-68998197D01*
X98641803Y-68490197D01*
X98599789Y-68462334D01*
X98552000Y-68453000D01*
X92121111Y-68453000D01*
X92121162Y-68394833D01*
X91979117Y-68051057D01*
X91716327Y-67787808D01*
X91372799Y-67645162D01*
X91000833Y-67644838D01*
X90657057Y-67786883D01*
X90393808Y-68049673D01*
X90251162Y-68393201D01*
X90251005Y-68573389D01*
X90075625Y-68748769D01*
X89852500Y-68704387D01*
X89303349Y-68813620D01*
X88837802Y-69124689D01*
X88526733Y-69590236D01*
X88417500Y-70139387D01*
X88417500Y-70195613D01*
X88526733Y-70744764D01*
X88837802Y-71210311D01*
X89303349Y-71521380D01*
X89789000Y-71617982D01*
X89789000Y-71628000D01*
X89799006Y-71677410D01*
X89826197Y-71717803D01*
X90304796Y-72196402D01*
X89886599Y-72614599D01*
X89721852Y-72861161D01*
X89664000Y-73152000D01*
X89664000Y-73605537D01*
X89631808Y-73637673D01*
X89489162Y-73981201D01*
X89488838Y-74353167D01*
X89630883Y-74696943D01*
X89893673Y-74960192D01*
X90237201Y-75102838D01*
X90609167Y-75103162D01*
X90952943Y-74961117D01*
X91216192Y-74698327D01*
X91358838Y-74354799D01*
X91359162Y-73982833D01*
X91217117Y-73639057D01*
X91184000Y-73605882D01*
X91184000Y-73466802D01*
X91379598Y-73271204D01*
X92837000Y-74728606D01*
X92837000Y-82804000D01*
X92847006Y-82853410D01*
X92874197Y-82893803D01*
X94361000Y-84380606D01*
X94361000Y-84783394D01*
X93927394Y-85217000D01*
X87884000Y-85217000D01*
X87834590Y-85227006D01*
X87794197Y-85254197D01*
X86778197Y-86270197D01*
X86750334Y-86312211D01*
X86741000Y-86360000D01*
X69723000Y-86360000D01*
X69723000Y-85344000D01*
X69712994Y-85294590D01*
X69685803Y-85254197D01*
X69177803Y-84746197D01*
X69135789Y-84718334D01*
X69088000Y-84709000D01*
X67616606Y-84709000D01*
X62103000Y-79195394D01*
X62103000Y-75232500D01*
X66965060Y-75232500D01*
X66965060Y-76532500D01*
X67009338Y-76767817D01*
X67148410Y-76983941D01*
X67360610Y-77128931D01*
X67612500Y-77179940D01*
X68912500Y-77179940D01*
X69147817Y-77135662D01*
X69363941Y-76996590D01*
X69508931Y-76784390D01*
X69559940Y-76532500D01*
X69559940Y-75232500D01*
X69524095Y-75042000D01*
X85570560Y-75042000D01*
X85570560Y-76342000D01*
X85614838Y-76577317D01*
X85753910Y-76793441D01*
X85966110Y-76938431D01*
X86218000Y-76989440D01*
X87518000Y-76989440D01*
X87753317Y-76945162D01*
X87969441Y-76806090D01*
X88114431Y-76593890D01*
X88165440Y-76342000D01*
X88165440Y-75042000D01*
X88121162Y-74806683D01*
X87982090Y-74590559D01*
X87769890Y-74445569D01*
X87518000Y-74394560D01*
X86218000Y-74394560D01*
X85982683Y-74438838D01*
X85766559Y-74577910D01*
X85621569Y-74790110D01*
X85570560Y-75042000D01*
X69524095Y-75042000D01*
X69515662Y-74997183D01*
X69376590Y-74781059D01*
X69164390Y-74636069D01*
X68912500Y-74585060D01*
X67612500Y-74585060D01*
X67377183Y-74629338D01*
X67161059Y-74768410D01*
X67016069Y-74980610D01*
X66965060Y-75232500D01*
X62103000Y-75232500D01*
X62103000Y-74260198D01*
X62297201Y-74340838D01*
X62669167Y-74341162D01*
X63012943Y-74199117D01*
X63276192Y-73936327D01*
X63418838Y-73592799D01*
X63419162Y-73220833D01*
X63277117Y-72877057D01*
X63244000Y-72843882D01*
X63244000Y-71755000D01*
X65532000Y-71755000D01*
X65581410Y-71744994D01*
X65623035Y-71716553D01*
X65650315Y-71674159D01*
X65659000Y-71628000D01*
X65659000Y-68326000D01*
X65648994Y-68276590D01*
X65621803Y-68236197D01*
X63589803Y-66204197D01*
X63556796Y-66180408D01*
X63048796Y-65926408D01*
X63000128Y-65913260D01*
X62950178Y-65920084D01*
X62902197Y-65950197D01*
X61886197Y-66966197D01*
X61858334Y-67008211D01*
X61849000Y-67056000D01*
X61849000Y-67384755D01*
X61691808Y-67541673D01*
X61549162Y-67885201D01*
X61548838Y-68257167D01*
X61690883Y-68600943D01*
X61724000Y-68634118D01*
X61724000Y-68793201D01*
X61277500Y-68704387D01*
X60728349Y-68813620D01*
X60505877Y-68962271D01*
X60033803Y-68490197D01*
X59991789Y-68462334D01*
X59944000Y-68453000D01*
X53258890Y-68453000D01*
X53259162Y-68140833D01*
X53117117Y-67797057D01*
X52854327Y-67533808D01*
X52510799Y-67391162D01*
X52138833Y-67390838D01*
X51795057Y-67532883D01*
X51531808Y-67795673D01*
X51389162Y-68139201D01*
X51388838Y-68511167D01*
X51500122Y-68780495D01*
X51117500Y-68704387D01*
X50568349Y-68813620D01*
X50102802Y-69124689D01*
X49791733Y-69590236D01*
X49682500Y-70139387D01*
X49682500Y-70195613D01*
X49791733Y-70744764D01*
X50102802Y-71210311D01*
X50568349Y-71521380D01*
X51117500Y-71630613D01*
X51564000Y-71541799D01*
X51564000Y-71567198D01*
X51024599Y-72106599D01*
X50859852Y-72353161D01*
X50802000Y-72644000D01*
X50802000Y-73859537D01*
X50769808Y-73891673D01*
X50627162Y-74235201D01*
X50626838Y-74607167D01*
X50768883Y-74950943D01*
X51031673Y-75214192D01*
X51375201Y-75356838D01*
X51747167Y-75357162D01*
X52090943Y-75215117D01*
X52354192Y-74952327D01*
X52496838Y-74608799D01*
X52497162Y-74236833D01*
X52355117Y-73893057D01*
X52322000Y-73859882D01*
X52322000Y-72958802D01*
X52390598Y-72890204D01*
X54229000Y-74728606D01*
X54229000Y-83312000D01*
X54239006Y-83361410D01*
X54266197Y-83401803D01*
X55245000Y-84380606D01*
X55245000Y-84783394D01*
X54811394Y-85217000D01*
X48260000Y-85217000D01*
X48210590Y-85227006D01*
X48170197Y-85254197D01*
X47662197Y-85762197D01*
X47634334Y-85804211D01*
X47625000Y-85852000D01*
X46355000Y-85852000D01*
X46344994Y-85802590D01*
X46317803Y-85762197D01*
X45809803Y-85254197D01*
X45767789Y-85226334D01*
X45720000Y-85217000D01*
X43232606Y-85217000D01*
X42799000Y-84783394D01*
X42799000Y-75232500D01*
X46645060Y-75232500D01*
X46645060Y-76532500D01*
X46689338Y-76767817D01*
X46828410Y-76983941D01*
X47040610Y-77128931D01*
X47292500Y-77179940D01*
X48592500Y-77179940D01*
X48827817Y-77135662D01*
X49043941Y-76996590D01*
X49188931Y-76784390D01*
X49239940Y-76532500D01*
X49239940Y-75232500D01*
X49195662Y-74997183D01*
X49056590Y-74781059D01*
X48844390Y-74636069D01*
X48592500Y-74585060D01*
X47292500Y-74585060D01*
X47057183Y-74629338D01*
X46841059Y-74768410D01*
X46696069Y-74980610D01*
X46645060Y-75232500D01*
X42799000Y-75232500D01*
X42799000Y-66092606D01*
X45264606Y-63627000D01*
X50157711Y-63627000D01*
X50568349Y-63901380D01*
X51117500Y-64010613D01*
X51666651Y-63901380D01*
X52077289Y-63627000D01*
X52697711Y-63627000D01*
X53108349Y-63901380D01*
X53657500Y-64010613D01*
X54206651Y-63901380D01*
X54617289Y-63627000D01*
X55237711Y-63627000D01*
X55648349Y-63901380D01*
X56197500Y-64010613D01*
X56746651Y-63901380D01*
X57157289Y-63627000D01*
X57777711Y-63627000D01*
X58188349Y-63901380D01*
X58737500Y-64010613D01*
X59286651Y-63901380D01*
X59697289Y-63627000D01*
X60317711Y-63627000D01*
X60728349Y-63901380D01*
X61277500Y-64010613D01*
X61826651Y-63901380D01*
X62237289Y-63627000D01*
X62857711Y-63627000D01*
X63268349Y-63901380D01*
X63817500Y-64010613D01*
X64366651Y-63901380D01*
X64832198Y-63590311D01*
X65143267Y-63124764D01*
X65252500Y-62575613D01*
X65252500Y-62519387D01*
X65197404Y-62242398D01*
X66227802Y-61212000D01*
X67890394Y-61212000D01*
X67945000Y-61266606D01*
X67945000Y-61266606D01*
G37*
X67945000Y-61266606D02*
X67945000Y-62939394D01*
X67511394Y-63373000D01*
X66802000Y-63373000D01*
X66752590Y-63383006D01*
X66710965Y-63411447D01*
X66683685Y-63453841D01*
X66675048Y-63503509D01*
X66686416Y-63552623D01*
X66712197Y-63589803D01*
X66929000Y-63806606D01*
X66929000Y-66548000D01*
X66939006Y-66597410D01*
X66966197Y-66637803D01*
X67437000Y-67108606D01*
X67437000Y-68580000D01*
X67447006Y-68629410D01*
X67474197Y-68669803D01*
X68453000Y-69648606D01*
X68453000Y-70866000D01*
X68463006Y-70915410D01*
X68490197Y-70955803D01*
X69252197Y-71717803D01*
X69294211Y-71745666D01*
X69342000Y-71755000D01*
X70104000Y-71755000D01*
X70153410Y-71744994D01*
X70193803Y-71717803D01*
X70701803Y-71209803D01*
X70729666Y-71167789D01*
X70739000Y-71120000D01*
X70739000Y-67616606D01*
X71172606Y-67183000D01*
X71628000Y-67183000D01*
X71677410Y-67172994D01*
X71717803Y-67145803D01*
X72188606Y-66675000D01*
X74168000Y-66675000D01*
X74217410Y-66664994D01*
X74257803Y-66637803D01*
X77268606Y-63627000D01*
X88339394Y-63627000D01*
X88810197Y-64097803D01*
X88852211Y-64125666D01*
X88900000Y-64135000D01*
X101600000Y-64135000D01*
X101649410Y-64124994D01*
X101689803Y-64097803D01*
X101933139Y-63854467D01*
X102003349Y-63901380D01*
X102552500Y-64010613D01*
X103101651Y-63901380D01*
X103567198Y-63590311D01*
X103878267Y-63124764D01*
X103987500Y-62575613D01*
X103987500Y-62519387D01*
X103878267Y-61970236D01*
X103853875Y-61933731D01*
X104192606Y-61595000D01*
X105611394Y-61595000D01*
X106045000Y-62028606D01*
X106045000Y-62431394D01*
X104812197Y-63664197D01*
X104784334Y-63706211D01*
X104775012Y-63755754D01*
X104785700Y-63805022D01*
X104814713Y-63846249D01*
X104857480Y-63872941D01*
X104902000Y-63881000D01*
X105611394Y-63881000D01*
X106045000Y-64314606D01*
X106045000Y-66040000D01*
X106055006Y-66089410D01*
X106082197Y-66129803D01*
X106590197Y-66637803D01*
X106632211Y-66665666D01*
X106680000Y-66675000D01*
X107952000Y-66675000D01*
X107952000Y-69795537D01*
X107919808Y-69827673D01*
X107777162Y-70171201D01*
X107776838Y-70543167D01*
X107918883Y-70886943D01*
X108181673Y-71150192D01*
X108525201Y-71292838D01*
X108897167Y-71293162D01*
X109240943Y-71151117D01*
X109504192Y-70888327D01*
X109646838Y-70544799D01*
X109647162Y-70172833D01*
X109505117Y-69829057D01*
X109472000Y-69795882D01*
X109472000Y-66675000D01*
X111760000Y-66675000D01*
X111809410Y-66664994D01*
X111849803Y-66637803D01*
X115876606Y-62611000D01*
X120343394Y-62611000D01*
X122338197Y-64605803D01*
X122380211Y-64633666D01*
X122428000Y-64643000D01*
X135128000Y-64643000D01*
X135177410Y-64632994D01*
X135217803Y-64605803D01*
X135753377Y-64070229D01*
X135975849Y-64218880D01*
X136525000Y-64328113D01*
X137074151Y-64218880D01*
X137539698Y-63907811D01*
X137850767Y-63442264D01*
X137960000Y-62893113D01*
X137960000Y-62836887D01*
X137850767Y-62287736D01*
X137724637Y-62098969D01*
X138228606Y-61595000D01*
X139647394Y-61595000D01*
X140081000Y-62028606D01*
X140081000Y-62431394D01*
X138086197Y-64426197D01*
X138058334Y-64468211D01*
X138049000Y-64516000D01*
X138049000Y-65024000D01*
X138059006Y-65073410D01*
X138086197Y-65113803D01*
X138811000Y-65838606D01*
X138811000Y-66548000D01*
X138821006Y-66597410D01*
X138848197Y-66637803D01*
X139356197Y-67145803D01*
X139398211Y-67173666D01*
X139446000Y-67183000D01*
X141226000Y-67183000D01*
X141226000Y-70866000D01*
X141283852Y-71156839D01*
X141304940Y-71188399D01*
X141304838Y-71305167D01*
X141446883Y-71648943D01*
X141709673Y-71912192D01*
X142053201Y-72054838D01*
X142425167Y-72055162D01*
X142768943Y-71913117D01*
X143032192Y-71650327D01*
X143174838Y-71306799D01*
X143175162Y-70934833D01*
X143033117Y-70591057D01*
X142770327Y-70327808D01*
X142746000Y-70317706D01*
X142746000Y-67183000D01*
X145288000Y-67183000D01*
X145337410Y-67172994D01*
X145377803Y-67145803D01*
X150928606Y-61595000D01*
X158443394Y-61595000D01*
X159565681Y-62717287D01*
X159646733Y-63124764D01*
X159957802Y-63590311D01*
X160423349Y-63901380D01*
X160972500Y-64010613D01*
X161521651Y-63901380D01*
X161932289Y-63627000D01*
X162552711Y-63627000D01*
X162963349Y-63901380D01*
X163512500Y-64010613D01*
X164061651Y-63901380D01*
X164472289Y-63627000D01*
X165092711Y-63627000D01*
X165503349Y-63901380D01*
X166052500Y-64010613D01*
X166601651Y-63901380D01*
X167012289Y-63627000D01*
X167632711Y-63627000D01*
X168043349Y-63901380D01*
X168592500Y-64010613D01*
X169141651Y-63901380D01*
X169552289Y-63627000D01*
X170172711Y-63627000D01*
X170583349Y-63901380D01*
X171132500Y-64010613D01*
X171681651Y-63901380D01*
X172092289Y-63627000D01*
X172712711Y-63627000D01*
X173123349Y-63901380D01*
X173672500Y-64010613D01*
X174221651Y-63901380D01*
X174687198Y-63590311D01*
X174998267Y-63124764D01*
X175107500Y-62575613D01*
X175107500Y-62519387D01*
X175030305Y-62131301D01*
X175566606Y-61595000D01*
X177493394Y-61595000D01*
X177673000Y-61774606D01*
X177673000Y-62431394D01*
X176694197Y-63410197D01*
X176666334Y-63452211D01*
X176657000Y-63500000D01*
X176657000Y-66040000D01*
X176667006Y-66089410D01*
X176694197Y-66129803D01*
X177202197Y-66637803D01*
X177244211Y-66665666D01*
X177292000Y-66675000D01*
X179072000Y-66675000D01*
X179072000Y-70049537D01*
X179039808Y-70081673D01*
X178897162Y-70425201D01*
X178896838Y-70797167D01*
X179038883Y-71140943D01*
X179301673Y-71404192D01*
X179645201Y-71546838D01*
X180017167Y-71547162D01*
X180360943Y-71405117D01*
X180624192Y-71142327D01*
X180766838Y-70798799D01*
X180767162Y-70426833D01*
X180625117Y-70083057D01*
X180592000Y-70049882D01*
X180592000Y-66675000D01*
X183843394Y-66675000D01*
X185218000Y-68049606D01*
X185218000Y-114322394D01*
X183335394Y-116205000D01*
X178868606Y-116205000D01*
X177889803Y-115226197D01*
X177847789Y-115198334D01*
X177800000Y-115189000D01*
X176124755Y-115189000D01*
X175809151Y-114978120D01*
X175260000Y-114868887D01*
X174710849Y-114978120D01*
X174395245Y-115189000D01*
X173584755Y-115189000D01*
X173269151Y-114978120D01*
X172720000Y-114868887D01*
X172170849Y-114978120D01*
X171855245Y-115189000D01*
X171044755Y-115189000D01*
X170729151Y-114978120D01*
X170180000Y-114868887D01*
X169630849Y-114978120D01*
X169315245Y-115189000D01*
X168504755Y-115189000D01*
X168189151Y-114978120D01*
X167640000Y-114868887D01*
X167090849Y-114978120D01*
X166775245Y-115189000D01*
X165964755Y-115189000D01*
X165649151Y-114978120D01*
X165100000Y-114868887D01*
X164550849Y-114978120D01*
X164235245Y-115189000D01*
X163424755Y-115189000D01*
X163109151Y-114978120D01*
X162560000Y-114868887D01*
X162010849Y-114978120D01*
X161695245Y-115189000D01*
X161544000Y-115189000D01*
X161494590Y-115199006D01*
X161454197Y-115226197D01*
X161200197Y-115480197D01*
X161172334Y-115522211D01*
X161163000Y-115570000D01*
X161163000Y-116112848D01*
X161125000Y-116303887D01*
X161125000Y-116360113D01*
X161163000Y-116551154D01*
X161163000Y-116654198D01*
X160596198Y-117221000D01*
X158548606Y-117221000D01*
X158115000Y-116787394D01*
X158115000Y-115876606D01*
X158548606Y-115443000D01*
X160020000Y-115443000D01*
X160069410Y-115432994D01*
X160109803Y-115405803D01*
X160617803Y-114897803D01*
X160645666Y-114855789D01*
X160655000Y-114808000D01*
X160655000Y-113538000D01*
X160644994Y-113488590D01*
X160617803Y-113448197D01*
X159347803Y-112178197D01*
X159305789Y-112150334D01*
X159258000Y-112141000D01*
X157224000Y-112141000D01*
X157224000Y-108512463D01*
X157256192Y-108480327D01*
X157398838Y-108136799D01*
X157399162Y-107764833D01*
X157257117Y-107421057D01*
X156994327Y-107157808D01*
X156650799Y-107015162D01*
X156278833Y-107014838D01*
X155935057Y-107156883D01*
X155671808Y-107419673D01*
X155529162Y-107763201D01*
X155528838Y-108135167D01*
X155670883Y-108478943D01*
X155704000Y-108512118D01*
X155704000Y-112141000D01*
X153416000Y-112141000D01*
X153366590Y-112151006D01*
X153326197Y-112178197D01*
X148283394Y-117221000D01*
X141276606Y-117221000D01*
X140408750Y-116353144D01*
X140390767Y-116262736D01*
X140079698Y-115797189D01*
X139614151Y-115486120D01*
X139065000Y-115376887D01*
X138515849Y-115486120D01*
X138200245Y-115697000D01*
X137389755Y-115697000D01*
X137074151Y-115486120D01*
X136525000Y-115376887D01*
X135975849Y-115486120D01*
X135660245Y-115697000D01*
X134849755Y-115697000D01*
X134534151Y-115486120D01*
X133985000Y-115376887D01*
X133435849Y-115486120D01*
X133120245Y-115697000D01*
X132309755Y-115697000D01*
X131994151Y-115486120D01*
X131445000Y-115376887D01*
X130895849Y-115486120D01*
X130580245Y-115697000D01*
X129769755Y-115697000D01*
X129454151Y-115486120D01*
X128905000Y-115376887D01*
X128355849Y-115486120D01*
X128040245Y-115697000D01*
X127229755Y-115697000D01*
X126914151Y-115486120D01*
X126365000Y-115376887D01*
X125815849Y-115486120D01*
X125350302Y-115797189D01*
X125039233Y-116262736D01*
X124930000Y-116811887D01*
X124930000Y-116868113D01*
X124985096Y-117145102D01*
X124401198Y-117729000D01*
X122988606Y-117729000D01*
X122555000Y-117295394D01*
X122555000Y-116892606D01*
X124295803Y-115151803D01*
X124323666Y-115109789D01*
X124333000Y-115062000D01*
X124333000Y-113030000D01*
X124322994Y-112980590D01*
X124295803Y-112940197D01*
X123025803Y-111670197D01*
X122983789Y-111642334D01*
X122936000Y-111633000D01*
X120648000Y-111633000D01*
X120648000Y-109528463D01*
X120680192Y-109496327D01*
X120822838Y-109152799D01*
X120823162Y-108780833D01*
X120681117Y-108437057D01*
X120418327Y-108173808D01*
X120074799Y-108031162D01*
X119702833Y-108030838D01*
X119359057Y-108172883D01*
X119095808Y-108435673D01*
X118953162Y-108779201D01*
X118952838Y-109151167D01*
X119094883Y-109494943D01*
X119128000Y-109528118D01*
X119128000Y-111633000D01*
X116332000Y-111633000D01*
X116282590Y-111643006D01*
X116242197Y-111670197D01*
X110691394Y-117221000D01*
X106224606Y-117221000D01*
X104737803Y-115734197D01*
X104695789Y-115706334D01*
X104648000Y-115697000D01*
X104369755Y-115697000D01*
X104054151Y-115486120D01*
X103505000Y-115376887D01*
X102955849Y-115486120D01*
X102640245Y-115697000D01*
X101829755Y-115697000D01*
X101514151Y-115486120D01*
X100965000Y-115376887D01*
X100415849Y-115486120D01*
X100100245Y-115697000D01*
X99289755Y-115697000D01*
X98974151Y-115486120D01*
X98425000Y-115376887D01*
X97875849Y-115486120D01*
X97560245Y-115697000D01*
X96749755Y-115697000D01*
X96434151Y-115486120D01*
X95885000Y-115376887D01*
X95335849Y-115486120D01*
X95020245Y-115697000D01*
X94209755Y-115697000D01*
X93894151Y-115486120D01*
X93345000Y-115376887D01*
X92795849Y-115486120D01*
X92480245Y-115697000D01*
X91669755Y-115697000D01*
X91354151Y-115486120D01*
X90805000Y-115376887D01*
X90255849Y-115486120D01*
X89790302Y-115797189D01*
X89479233Y-116262736D01*
X89370000Y-116811887D01*
X89370000Y-116868113D01*
X89425096Y-117145102D01*
X88841198Y-117729000D01*
X86920606Y-117729000D01*
X86487000Y-117295394D01*
X86487000Y-116892606D01*
X87719803Y-115659803D01*
X87747666Y-115617789D01*
X87757000Y-115570000D01*
X87757000Y-113030000D01*
X87746994Y-112980590D01*
X87719803Y-112940197D01*
X86957803Y-112178197D01*
X86915789Y-112150334D01*
X86868000Y-112141000D01*
X85596000Y-112141000D01*
X85596000Y-109401463D01*
X85628192Y-109369327D01*
X85770838Y-109025799D01*
X85771162Y-108653833D01*
X85629117Y-108310057D01*
X85366327Y-108046808D01*
X85022799Y-107904162D01*
X84650833Y-107903838D01*
X84307057Y-108045883D01*
X84043808Y-108308673D01*
X83901162Y-108652201D01*
X83900838Y-109024167D01*
X84042883Y-109367943D01*
X84076000Y-109401118D01*
X84076000Y-112141000D01*
X79756000Y-112141000D01*
X79706590Y-112151006D01*
X79666197Y-112178197D01*
X76655394Y-115189000D01*
X75692000Y-115189000D01*
X75642590Y-115199006D01*
X75602197Y-115226197D01*
X73607394Y-117221000D01*
X67108606Y-117221000D01*
X65668371Y-115780765D01*
X65467198Y-115479689D01*
X65166122Y-115278516D01*
X64605803Y-114718197D01*
X64563789Y-114690334D01*
X64516000Y-114681000D01*
X51816000Y-114681000D01*
X51766590Y-114691006D01*
X51726197Y-114718197D01*
X51293757Y-115150637D01*
X51203349Y-115168620D01*
X50737802Y-115479689D01*
X50426733Y-115945236D01*
X50317500Y-116494387D01*
X50317500Y-116550613D01*
X50373624Y-116832770D01*
X49731394Y-117475000D01*
X48312606Y-117475000D01*
X47625000Y-116787394D01*
X47625000Y-115876606D01*
X48058606Y-115443000D01*
X49276000Y-115443000D01*
X49325410Y-115432994D01*
X49365803Y-115405803D01*
X49873803Y-114897803D01*
X49901666Y-114855789D01*
X49911000Y-114808000D01*
X49911000Y-113792000D01*
X49900994Y-113742590D01*
X49873803Y-113702197D01*
X48095803Y-111924197D01*
X48053789Y-111896334D01*
X48006000Y-111887000D01*
X47038800Y-111887000D01*
X47038800Y-109198263D01*
X47070992Y-109166127D01*
X47213638Y-108822599D01*
X47213962Y-108450633D01*
X47071917Y-108106857D01*
X46809127Y-107843608D01*
X46465599Y-107700962D01*
X46093633Y-107700638D01*
X45749857Y-107842683D01*
X45486608Y-108105473D01*
X45343962Y-108449001D01*
X45343638Y-108820967D01*
X45485683Y-109164743D01*
X45518800Y-109197918D01*
X45518800Y-112141000D01*
X43232606Y-112141000D01*
X42416000Y-111324394D01*
X42416000Y-102855000D01*
X45692560Y-102855000D01*
X45692560Y-104155000D01*
X45736838Y-104390317D01*
X45875910Y-104606441D01*
X46088110Y-104751431D01*
X46340000Y-104802440D01*
X47640000Y-104802440D01*
X47875317Y-104758162D01*
X48091441Y-104619090D01*
X48236431Y-104406890D01*
X48287440Y-104155000D01*
X48287440Y-102855000D01*
X48243162Y-102619683D01*
X48104090Y-102403559D01*
X47891890Y-102258569D01*
X47640000Y-102207560D01*
X46340000Y-102207560D01*
X46104683Y-102251838D01*
X45888559Y-102390910D01*
X45743569Y-102603110D01*
X45692560Y-102855000D01*
X42416000Y-102855000D01*
X42416000Y-94415606D01*
X43232606Y-93599000D01*
X45720000Y-93599000D01*
X45769410Y-93588994D01*
X45809803Y-93561803D01*
X46317803Y-93053803D01*
X46345666Y-93011789D01*
X46355000Y-92964000D01*
X46355000Y-92076016D01*
X46380464Y-91948000D01*
X46355000Y-91819984D01*
X46355000Y-90932000D01*
X46344994Y-90882590D01*
X46317803Y-90842197D01*
X45809803Y-90334197D01*
X45767789Y-90306334D01*
X45720000Y-90297000D01*
X43232606Y-90297000D01*
X42799000Y-89863394D01*
X42799000Y-88952606D01*
X43232606Y-88519000D01*
X45720000Y-88519000D01*
X45769410Y-88508994D01*
X45809803Y-88481803D01*
X46317803Y-87973803D01*
X46345666Y-87931789D01*
X46355000Y-87884000D01*
X46355000Y-86996016D01*
X46380464Y-86868000D01*
X46355000Y-86739984D01*
X46355000Y-85852000D01*
X47625000Y-85852000D01*
X47625000Y-94488000D01*
X47635006Y-94537410D01*
X47662197Y-94577803D01*
X52705000Y-99620606D01*
X52705000Y-104322444D01*
X52697633Y-104322438D01*
X52353857Y-104464483D01*
X52090608Y-104727273D01*
X51947962Y-105070801D01*
X51947638Y-105442767D01*
X52089683Y-105786543D01*
X52122800Y-105819718D01*
X52122800Y-107061000D01*
X50546000Y-107061000D01*
X50496590Y-107071006D01*
X50456197Y-107098197D01*
X49948197Y-107606197D01*
X49920334Y-107648211D01*
X49911000Y-107696000D01*
X49911000Y-108913394D01*
X48932197Y-109892197D01*
X48904334Y-109934211D01*
X48895012Y-109983754D01*
X48905700Y-110033022D01*
X48934713Y-110074249D01*
X48977480Y-110100941D01*
X49022000Y-110109000D01*
X49731394Y-110109000D01*
X50202197Y-110579803D01*
X50244211Y-110607666D01*
X50292000Y-110617000D01*
X51763394Y-110617000D01*
X52197000Y-111050606D01*
X52197000Y-112268000D01*
X52207006Y-112317410D01*
X52235447Y-112359035D01*
X52277841Y-112386315D01*
X52327509Y-112394952D01*
X52376623Y-112383584D01*
X52413803Y-112357803D01*
X52847372Y-111924234D01*
X53051601Y-112009038D01*
X53423567Y-112009362D01*
X53767343Y-111867317D01*
X54030592Y-111604527D01*
X54173238Y-111260999D01*
X54173562Y-110889033D01*
X54031517Y-110545257D01*
X53975000Y-110488641D01*
X53975000Y-110302458D01*
X54292500Y-110365613D01*
X54841651Y-110256380D01*
X55245000Y-109986870D01*
X55245000Y-110236000D01*
X55255006Y-110285410D01*
X55282197Y-110325803D01*
X55790197Y-110833803D01*
X55832211Y-110861666D01*
X55880000Y-110871000D01*
X62370764Y-110871000D01*
X62452883Y-111069743D01*
X62715673Y-111332992D01*
X63059201Y-111475638D01*
X63431167Y-111475962D01*
X63774943Y-111333917D01*
X64038192Y-111071127D01*
X64180838Y-110727599D01*
X64181162Y-110355633D01*
X64161357Y-110307701D01*
X64452500Y-110365613D01*
X65001651Y-110256380D01*
X65467198Y-109945311D01*
X65778267Y-109479764D01*
X65887500Y-108930613D01*
X65887500Y-108874387D01*
X65778267Y-108325236D01*
X65467198Y-107859689D01*
X65001651Y-107548620D01*
X64452500Y-107439387D01*
X63980600Y-107533254D01*
X63980600Y-105743863D01*
X64012792Y-105711727D01*
X64155438Y-105368199D01*
X64155762Y-104996233D01*
X64013717Y-104652457D01*
X63750927Y-104389208D01*
X63407399Y-104246562D01*
X63035433Y-104246238D01*
X62691657Y-104388283D01*
X62428408Y-104651073D01*
X62285762Y-104994601D01*
X62285438Y-105366567D01*
X62427483Y-105710343D01*
X62460600Y-105743518D01*
X62460600Y-105968994D01*
X62103000Y-105611394D01*
X62103000Y-102855000D01*
X66012560Y-102855000D01*
X66012560Y-104155000D01*
X66056838Y-104390317D01*
X66195910Y-104606441D01*
X66408110Y-104751431D01*
X66660000Y-104802440D01*
X67960000Y-104802440D01*
X68195317Y-104758162D01*
X68411441Y-104619090D01*
X68556431Y-104406890D01*
X68607440Y-104155000D01*
X68607440Y-103490000D01*
X84046560Y-103490000D01*
X84046560Y-104790000D01*
X84090838Y-105025317D01*
X84229910Y-105241441D01*
X84442110Y-105386431D01*
X84694000Y-105437440D01*
X85994000Y-105437440D01*
X86229317Y-105393162D01*
X86445441Y-105254090D01*
X86590431Y-105041890D01*
X86641440Y-104790000D01*
X86641440Y-103490000D01*
X86597162Y-103254683D01*
X86458090Y-103038559D01*
X86245890Y-102893569D01*
X85994000Y-102842560D01*
X84694000Y-102842560D01*
X84458683Y-102886838D01*
X84242559Y-103025910D01*
X84097569Y-103238110D01*
X84046560Y-103490000D01*
X68607440Y-103490000D01*
X68607440Y-102855000D01*
X68563162Y-102619683D01*
X68424090Y-102403559D01*
X68211890Y-102258569D01*
X67960000Y-102207560D01*
X66660000Y-102207560D01*
X66424683Y-102251838D01*
X66208559Y-102390910D01*
X66063569Y-102603110D01*
X66012560Y-102855000D01*
X62103000Y-102855000D01*
X62103000Y-97536000D01*
X62092994Y-97486590D01*
X62065803Y-97446197D01*
X58547000Y-93927394D01*
X58547000Y-93599000D01*
X69088000Y-93599000D01*
X69137410Y-93588994D01*
X69177803Y-93561803D01*
X69685803Y-93053803D01*
X69713666Y-93011789D01*
X69723000Y-92964000D01*
X69723000Y-86360000D01*
X86741000Y-86360000D01*
X86741000Y-96012000D01*
X86751006Y-96061410D01*
X86778197Y-96101803D01*
X91821000Y-101144606D01*
X91821000Y-105109889D01*
X91762833Y-105109838D01*
X91419057Y-105251883D01*
X91155808Y-105514673D01*
X91013162Y-105858201D01*
X91012838Y-106230167D01*
X91154883Y-106573943D01*
X91188000Y-106607118D01*
X91188000Y-107061000D01*
X89408000Y-107061000D01*
X89358590Y-107071006D01*
X89318197Y-107098197D01*
X88810197Y-107606197D01*
X88782334Y-107648211D01*
X88773000Y-107696000D01*
X88773000Y-109675394D01*
X88048197Y-110400197D01*
X88020334Y-110442211D01*
X88011012Y-110491754D01*
X88021700Y-110541022D01*
X88050713Y-110582249D01*
X88093480Y-110608941D01*
X88138000Y-110617000D01*
X89609394Y-110617000D01*
X90080197Y-111087803D01*
X90122211Y-111115666D01*
X90170000Y-111125000D01*
X90879394Y-111125000D01*
X91059000Y-111304606D01*
X91059000Y-112014000D01*
X91069006Y-112063410D01*
X91097447Y-112105035D01*
X91139841Y-112132315D01*
X91189509Y-112140952D01*
X91238623Y-112129584D01*
X91275803Y-112103803D01*
X91576287Y-111803319D01*
X91888201Y-111932838D01*
X92260167Y-111933162D01*
X92603943Y-111791117D01*
X92867192Y-111528327D01*
X93009838Y-111184799D01*
X93010162Y-110812833D01*
X92921779Y-110598929D01*
X93345000Y-110683113D01*
X93894151Y-110573880D01*
X94359698Y-110262811D01*
X94364864Y-110255080D01*
X94371006Y-110285410D01*
X94398197Y-110325803D01*
X95414197Y-111341803D01*
X95456211Y-111369666D01*
X95504000Y-111379000D01*
X101092000Y-111379000D01*
X101141410Y-111368994D01*
X101181803Y-111341803D01*
X101300024Y-111223582D01*
X101299838Y-111437167D01*
X101441883Y-111780943D01*
X101704673Y-112044192D01*
X102048201Y-112186838D01*
X102420167Y-112187162D01*
X102763943Y-112045117D01*
X103027192Y-111782327D01*
X103169838Y-111438799D01*
X103170162Y-111066833D01*
X103122000Y-110950272D01*
X103122000Y-110606930D01*
X103505000Y-110683113D01*
X104054151Y-110573880D01*
X104519698Y-110262811D01*
X104830767Y-109797264D01*
X104940000Y-109248113D01*
X104940000Y-109191887D01*
X104830767Y-108642736D01*
X104519698Y-108177189D01*
X104054151Y-107866120D01*
X103505000Y-107756887D01*
X103122000Y-107833070D01*
X103122000Y-105845463D01*
X103154192Y-105813327D01*
X103296838Y-105469799D01*
X103297162Y-105097833D01*
X103155117Y-104754057D01*
X102892327Y-104490808D01*
X102548799Y-104348162D01*
X102176833Y-104347838D01*
X101833057Y-104489883D01*
X101569808Y-104752673D01*
X101427162Y-105096201D01*
X101426975Y-105311369D01*
X99695000Y-103579394D01*
X99695000Y-103490000D01*
X105382560Y-103490000D01*
X105382560Y-104790000D01*
X105426838Y-105025317D01*
X105565910Y-105241441D01*
X105778110Y-105386431D01*
X106030000Y-105437440D01*
X107330000Y-105437440D01*
X107565317Y-105393162D01*
X107781441Y-105254090D01*
X107926431Y-105041890D01*
X107977440Y-104790000D01*
X107977440Y-103490000D01*
X119606560Y-103490000D01*
X119606560Y-104790000D01*
X119650838Y-105025317D01*
X119789910Y-105241441D01*
X120002110Y-105386431D01*
X120254000Y-105437440D01*
X121554000Y-105437440D01*
X121789317Y-105393162D01*
X122005441Y-105254090D01*
X122150431Y-105041890D01*
X122201440Y-104790000D01*
X122201440Y-103490000D01*
X122157162Y-103254683D01*
X122018090Y-103038559D01*
X121805890Y-102893569D01*
X121554000Y-102842560D01*
X120254000Y-102842560D01*
X120018683Y-102886838D01*
X119802559Y-103025910D01*
X119657569Y-103238110D01*
X119606560Y-103490000D01*
X107977440Y-103490000D01*
X107933162Y-103254683D01*
X107794090Y-103038559D01*
X107581890Y-102893569D01*
X107330000Y-102842560D01*
X106030000Y-102842560D01*
X105794683Y-102886838D01*
X105578559Y-103025910D01*
X105433569Y-103238110D01*
X105382560Y-103490000D01*
X99695000Y-103490000D01*
X99695000Y-99060000D01*
X99684994Y-99010590D01*
X99657803Y-98970197D01*
X96139000Y-95451394D01*
X96139000Y-94540606D01*
X96572606Y-94107000D01*
X107696000Y-94107000D01*
X107745410Y-94096994D01*
X107785803Y-94069803D01*
X108293803Y-93561803D01*
X108321666Y-93519789D01*
X108331000Y-93472000D01*
X108331000Y-85852000D01*
X121285000Y-85852000D01*
X121285000Y-93980000D01*
X121295006Y-94029410D01*
X121322197Y-94069803D01*
X127381000Y-100128606D01*
X127381000Y-104047802D01*
X127186799Y-103967162D01*
X126814833Y-103966838D01*
X126471057Y-104108883D01*
X126207808Y-104371673D01*
X126065162Y-104715201D01*
X126064838Y-105087167D01*
X126206883Y-105430943D01*
X126240000Y-105464118D01*
X126240000Y-105664000D01*
X126297852Y-105954839D01*
X126462599Y-106201401D01*
X127002000Y-106740802D01*
X127002000Y-107061391D01*
X127000000Y-107061000D01*
X124968000Y-107061000D01*
X124918590Y-107071006D01*
X124878197Y-107098197D01*
X124370197Y-107606197D01*
X124342334Y-107648211D01*
X124333000Y-107696000D01*
X124333000Y-109675394D01*
X123608197Y-110400197D01*
X123580334Y-110442211D01*
X123571012Y-110491754D01*
X123581700Y-110541022D01*
X123610713Y-110582249D01*
X123653480Y-110608941D01*
X123698000Y-110617000D01*
X124915394Y-110617000D01*
X125386197Y-111087803D01*
X125428211Y-111115666D01*
X125476000Y-111125000D01*
X126693394Y-111125000D01*
X126826994Y-111258600D01*
X126826838Y-111437167D01*
X126968883Y-111780943D01*
X127127000Y-111939336D01*
X127127000Y-112014000D01*
X127137006Y-112063410D01*
X127165447Y-112105035D01*
X127207841Y-112132315D01*
X127257509Y-112140952D01*
X127306623Y-112129584D01*
X127343803Y-112103803D01*
X127353024Y-112094582D01*
X127575201Y-112186838D01*
X127947167Y-112187162D01*
X128290943Y-112045117D01*
X128554192Y-111782327D01*
X128696838Y-111438799D01*
X128697162Y-111066833D01*
X128604656Y-110842950D01*
X128613803Y-110833803D01*
X128641666Y-110791789D01*
X128651000Y-110744000D01*
X128651000Y-110632590D01*
X128905000Y-110683113D01*
X129454151Y-110573880D01*
X129919698Y-110262811D01*
X129921000Y-110260862D01*
X129921000Y-110744000D01*
X129931006Y-110793410D01*
X129958197Y-110833803D01*
X130466197Y-111341803D01*
X130508211Y-111369666D01*
X130556000Y-111379000D01*
X137160000Y-111379000D01*
X137209410Y-111368994D01*
X137218595Y-111362811D01*
X137391673Y-111536192D01*
X137735201Y-111678838D01*
X138107167Y-111679162D01*
X138450943Y-111537117D01*
X138714192Y-111274327D01*
X138856838Y-110930799D01*
X138857090Y-110641757D01*
X139065000Y-110683113D01*
X139614151Y-110573880D01*
X140079698Y-110262811D01*
X140390767Y-109797264D01*
X140500000Y-109248113D01*
X140500000Y-109191887D01*
X140390767Y-108642736D01*
X140079698Y-108177189D01*
X139614151Y-107866120D01*
X139065000Y-107756887D01*
X138811000Y-107807410D01*
X138811000Y-106680000D01*
X138800994Y-106630590D01*
X138773803Y-106590197D01*
X138682000Y-106498394D01*
X138682000Y-105464463D01*
X138714192Y-105432327D01*
X138856838Y-105088799D01*
X138857162Y-104716833D01*
X138715117Y-104373057D01*
X138452327Y-104109808D01*
X138108799Y-103967162D01*
X137736833Y-103966838D01*
X137393057Y-104108883D01*
X137129808Y-104371673D01*
X136987162Y-104715201D01*
X136987085Y-104803479D01*
X135763000Y-103579394D01*
X135763000Y-103490000D01*
X140942560Y-103490000D01*
X140942560Y-104790000D01*
X140986838Y-105025317D01*
X141125910Y-105241441D01*
X141338110Y-105386431D01*
X141590000Y-105437440D01*
X142890000Y-105437440D01*
X143125317Y-105393162D01*
X143341441Y-105254090D01*
X143486431Y-105041890D01*
X143537440Y-104790000D01*
X143537440Y-103490000D01*
X143493162Y-103254683D01*
X143354090Y-103038559D01*
X143271314Y-102982000D01*
X155674560Y-102982000D01*
X155674560Y-104282000D01*
X155718838Y-104517317D01*
X155857910Y-104733441D01*
X156070110Y-104878431D01*
X156322000Y-104929440D01*
X157622000Y-104929440D01*
X157857317Y-104885162D01*
X158073441Y-104746090D01*
X158218431Y-104533890D01*
X158269440Y-104282000D01*
X158269440Y-102982000D01*
X158225162Y-102746683D01*
X158086090Y-102530559D01*
X157873890Y-102385569D01*
X157622000Y-102334560D01*
X156322000Y-102334560D01*
X156086683Y-102378838D01*
X155870559Y-102517910D01*
X155725569Y-102730110D01*
X155674560Y-102982000D01*
X143271314Y-102982000D01*
X143141890Y-102893569D01*
X142890000Y-102842560D01*
X141590000Y-102842560D01*
X141354683Y-102886838D01*
X141138559Y-103025910D01*
X140993569Y-103238110D01*
X140942560Y-103490000D01*
X135763000Y-103490000D01*
X135763000Y-98044000D01*
X135752994Y-97994590D01*
X135725803Y-97954197D01*
X132715000Y-94943394D01*
X132715000Y-94107000D01*
X141224000Y-94107000D01*
X141273410Y-94096994D01*
X141313803Y-94069803D01*
X142837803Y-92545803D01*
X142865666Y-92503789D01*
X142875000Y-92456000D01*
X142875000Y-85852000D01*
X158877000Y-85852000D01*
X158877000Y-93980000D01*
X158887006Y-94029410D01*
X158914197Y-94069803D01*
X164465000Y-99620606D01*
X164465000Y-104214664D01*
X164360327Y-104109808D01*
X164016799Y-103967162D01*
X163644833Y-103966838D01*
X163301057Y-104108883D01*
X163037808Y-104371673D01*
X162895162Y-104715201D01*
X162894838Y-105087167D01*
X163036883Y-105430943D01*
X163070000Y-105464118D01*
X163070000Y-106553000D01*
X161544000Y-106553000D01*
X161494590Y-106563006D01*
X161454197Y-106590197D01*
X160946197Y-107098197D01*
X160918334Y-107140211D01*
X160909000Y-107188000D01*
X160909000Y-109167394D01*
X159930197Y-110146197D01*
X159902334Y-110188211D01*
X159893012Y-110237754D01*
X159903700Y-110287022D01*
X159932713Y-110328249D01*
X159975480Y-110354941D01*
X160020000Y-110363000D01*
X161999394Y-110363000D01*
X162687000Y-111050606D01*
X162687000Y-112522000D01*
X162697006Y-112571410D01*
X162725447Y-112613035D01*
X162767841Y-112640315D01*
X162817509Y-112648952D01*
X162866623Y-112637584D01*
X162903803Y-112611803D01*
X163510762Y-112004844D01*
X163643201Y-112059838D01*
X164015167Y-112060162D01*
X164358943Y-111918117D01*
X164622192Y-111655327D01*
X164764838Y-111311799D01*
X164765162Y-110939833D01*
X164706170Y-110797061D01*
X164709666Y-110791789D01*
X164719000Y-110744000D01*
X164719000Y-110099328D01*
X165100000Y-110175113D01*
X165649151Y-110065880D01*
X166024406Y-109815142D01*
X166026197Y-109817803D01*
X167042197Y-110833803D01*
X167084211Y-110861666D01*
X167132000Y-110871000D01*
X173228000Y-110871000D01*
X173277410Y-110860994D01*
X173303765Y-110843253D01*
X173323883Y-110891943D01*
X173586673Y-111155192D01*
X173930201Y-111297838D01*
X174302167Y-111298162D01*
X174645943Y-111156117D01*
X174909192Y-110893327D01*
X175051838Y-110549799D01*
X175052162Y-110177833D01*
X175032326Y-110129826D01*
X175260000Y-110175113D01*
X175809151Y-110065880D01*
X176274698Y-109754811D01*
X176585767Y-109289264D01*
X176695000Y-108740113D01*
X176695000Y-108683887D01*
X176585767Y-108134736D01*
X176274698Y-107669189D01*
X175809151Y-107358120D01*
X175260000Y-107248887D01*
X174879000Y-107324672D01*
X174879000Y-105664000D01*
X174877000Y-105654124D01*
X174877000Y-104956463D01*
X174909192Y-104924327D01*
X175051838Y-104580799D01*
X175052162Y-104208833D01*
X174910117Y-103865057D01*
X174647327Y-103601808D01*
X174303799Y-103459162D01*
X173931833Y-103458838D01*
X173588057Y-103600883D01*
X173324808Y-103863673D01*
X173268026Y-104000420D01*
X172847000Y-103579394D01*
X172847000Y-102982000D01*
X177010560Y-102982000D01*
X177010560Y-104282000D01*
X177054838Y-104517317D01*
X177193910Y-104733441D01*
X177406110Y-104878431D01*
X177658000Y-104929440D01*
X178958000Y-104929440D01*
X179193317Y-104885162D01*
X179409441Y-104746090D01*
X179554431Y-104533890D01*
X179605440Y-104282000D01*
X179605440Y-102982000D01*
X179561162Y-102746683D01*
X179422090Y-102530559D01*
X179209890Y-102385569D01*
X178958000Y-102334560D01*
X177658000Y-102334560D01*
X177422683Y-102378838D01*
X177206559Y-102517910D01*
X177061569Y-102730110D01*
X177010560Y-102982000D01*
X172847000Y-102982000D01*
X172847000Y-98044000D01*
X172836994Y-97994590D01*
X172809803Y-97954197D01*
X169799000Y-94943394D01*
X169799000Y-94540606D01*
X170232606Y-94107000D01*
X178816000Y-94107000D01*
X178865410Y-94096994D01*
X178905803Y-94069803D01*
X179316136Y-93659470D01*
X179486943Y-93588894D01*
X179947278Y-93129363D01*
X180019022Y-92956584D01*
X180429803Y-92545803D01*
X180457666Y-92503789D01*
X180467000Y-92456000D01*
X180467000Y-86360000D01*
X180456994Y-86310590D01*
X180429803Y-86270197D01*
X172339000Y-78179394D01*
X172339000Y-74848890D01*
X172651167Y-74849162D01*
X172799190Y-74788000D01*
X177518560Y-74788000D01*
X177518560Y-76088000D01*
X177562838Y-76323317D01*
X177701910Y-76539441D01*
X177914110Y-76684431D01*
X178166000Y-76735440D01*
X179466000Y-76735440D01*
X179701317Y-76691162D01*
X179917441Y-76552090D01*
X180062431Y-76339890D01*
X180113440Y-76088000D01*
X180113440Y-74788000D01*
X180069162Y-74552683D01*
X179930090Y-74336559D01*
X179717890Y-74191569D01*
X179466000Y-74140560D01*
X178166000Y-74140560D01*
X177930683Y-74184838D01*
X177714559Y-74323910D01*
X177569569Y-74536110D01*
X177518560Y-74788000D01*
X172799190Y-74788000D01*
X172994943Y-74707117D01*
X173258192Y-74444327D01*
X173400838Y-74100799D01*
X173401162Y-73728833D01*
X173259117Y-73385057D01*
X173226000Y-73351882D01*
X173226000Y-71755000D01*
X174752000Y-71755000D01*
X174801410Y-71744994D01*
X174841803Y-71717803D01*
X175857803Y-70701803D01*
X175885666Y-70659789D01*
X175895000Y-70612000D01*
X175895000Y-69648606D01*
X176365803Y-69177803D01*
X176393666Y-69135789D01*
X176402988Y-69086246D01*
X176392300Y-69036978D01*
X176363287Y-68995751D01*
X176320520Y-68969059D01*
X176276000Y-68961000D01*
X175566606Y-68961000D01*
X175387000Y-68781394D01*
X175387000Y-67818000D01*
X175376994Y-67768590D01*
X175349803Y-67728197D01*
X174841803Y-67220197D01*
X174799789Y-67192334D01*
X174752000Y-67183000D01*
X174042606Y-67183000D01*
X173863000Y-67003394D01*
X173863000Y-66548000D01*
X173852994Y-66498590D01*
X173824553Y-66456965D01*
X173782159Y-66429685D01*
X173732491Y-66421048D01*
X173683377Y-66432416D01*
X173646197Y-66458197D01*
X172874976Y-67229418D01*
X172652799Y-67137162D01*
X172280833Y-67136838D01*
X171937057Y-67278883D01*
X171673808Y-67541673D01*
X171531162Y-67885201D01*
X171530838Y-68257167D01*
X171623344Y-68481050D01*
X171614197Y-68490197D01*
X171586334Y-68532211D01*
X171577000Y-68580000D01*
X171577000Y-68792804D01*
X171132500Y-68704387D01*
X170583349Y-68813620D01*
X170281377Y-69015391D01*
X170269803Y-68998197D01*
X169761803Y-68490197D01*
X169719789Y-68462334D01*
X169672000Y-68453000D01*
X163241111Y-68453000D01*
X163241162Y-68394833D01*
X163099117Y-68051057D01*
X162836327Y-67787808D01*
X162492799Y-67645162D01*
X162120833Y-67644838D01*
X161777057Y-67786883D01*
X161513808Y-68049673D01*
X161371162Y-68393201D01*
X161370838Y-68765167D01*
X161379146Y-68785274D01*
X160972500Y-68704387D01*
X160423349Y-68813620D01*
X159957802Y-69124689D01*
X159646733Y-69590236D01*
X159537500Y-70139387D01*
X159537500Y-70195613D01*
X159646733Y-70744764D01*
X159957802Y-71210311D01*
X160423349Y-71521380D01*
X160972500Y-71630613D01*
X161417000Y-71542196D01*
X161417000Y-71628000D01*
X161427006Y-71677410D01*
X161454197Y-71717803D01*
X161546000Y-71809606D01*
X161546000Y-71821198D01*
X161006599Y-72360599D01*
X160841852Y-72607161D01*
X160784000Y-72898000D01*
X160784000Y-73605537D01*
X160751808Y-73637673D01*
X160609162Y-73981201D01*
X160608838Y-74353167D01*
X160750883Y-74696943D01*
X161013673Y-74960192D01*
X161357201Y-75102838D01*
X161729167Y-75103162D01*
X162072943Y-74961117D01*
X162336192Y-74698327D01*
X162478838Y-74354799D01*
X162479162Y-73982833D01*
X162337117Y-73639057D01*
X162304000Y-73605882D01*
X162304000Y-73212802D01*
X162626598Y-72890204D01*
X163957000Y-74220606D01*
X163957000Y-82804000D01*
X163967006Y-82853410D01*
X163994197Y-82893803D01*
X165481000Y-84380606D01*
X165481000Y-84783394D01*
X165047394Y-85217000D01*
X159512000Y-85217000D01*
X159462590Y-85227006D01*
X159422197Y-85254197D01*
X158914197Y-85762197D01*
X158886334Y-85804211D01*
X158877000Y-85852000D01*
X142875000Y-85852000D01*
X142864994Y-85802590D01*
X142837803Y-85762197D01*
X141313803Y-84238197D01*
X141271789Y-84210334D01*
X141224000Y-84201000D01*
X140768606Y-84201000D01*
X135255000Y-78687394D01*
X135255000Y-74915000D01*
X140307560Y-74915000D01*
X140307560Y-76215000D01*
X140351838Y-76450317D01*
X140490910Y-76666441D01*
X140703110Y-76811431D01*
X140955000Y-76862440D01*
X142255000Y-76862440D01*
X142490317Y-76818162D01*
X142706441Y-76679090D01*
X142851431Y-76466890D01*
X142902440Y-76215000D01*
X142902440Y-74915000D01*
X142878544Y-74788000D01*
X156436560Y-74788000D01*
X156436560Y-76088000D01*
X156480838Y-76323317D01*
X156619910Y-76539441D01*
X156832110Y-76684431D01*
X157084000Y-76735440D01*
X158384000Y-76735440D01*
X158619317Y-76691162D01*
X158835441Y-76552090D01*
X158980431Y-76339890D01*
X159031440Y-76088000D01*
X159031440Y-74788000D01*
X158987162Y-74552683D01*
X158848090Y-74336559D01*
X158635890Y-74191569D01*
X158384000Y-74140560D01*
X157084000Y-74140560D01*
X156848683Y-74184838D01*
X156632559Y-74323910D01*
X156487569Y-74536110D01*
X156436560Y-74788000D01*
X142878544Y-74788000D01*
X142858162Y-74679683D01*
X142719090Y-74463559D01*
X142506890Y-74318569D01*
X142255000Y-74267560D01*
X140955000Y-74267560D01*
X140719683Y-74311838D01*
X140503559Y-74450910D01*
X140358569Y-74663110D01*
X140307560Y-74915000D01*
X135255000Y-74915000D01*
X135255000Y-74848890D01*
X135567167Y-74849162D01*
X135910943Y-74707117D01*
X136174192Y-74444327D01*
X136316838Y-74100799D01*
X136317162Y-73728833D01*
X136175117Y-73385057D01*
X136142000Y-73351882D01*
X136142000Y-72770609D01*
X136144000Y-72771000D01*
X137160000Y-72771000D01*
X137209410Y-72760994D01*
X137249803Y-72733803D01*
X138265803Y-71717803D01*
X138293666Y-71675789D01*
X138303000Y-71628000D01*
X138303000Y-69648606D01*
X138773803Y-69177803D01*
X138801666Y-69135789D01*
X138810988Y-69086246D01*
X138800300Y-69036978D01*
X138771287Y-68995751D01*
X138728520Y-68969059D01*
X138684000Y-68961000D01*
X138482606Y-68961000D01*
X136525000Y-67003394D01*
X136525000Y-66294000D01*
X136514994Y-66244590D01*
X136486553Y-66202965D01*
X136444159Y-66175685D01*
X136394491Y-66167048D01*
X136345377Y-66178416D01*
X136308197Y-66204197D01*
X134530197Y-67982197D01*
X134502334Y-68024211D01*
X134493000Y-68072000D01*
X134493000Y-68282811D01*
X134447162Y-68393201D01*
X134446838Y-68765167D01*
X134493000Y-68876888D01*
X134493000Y-69122935D01*
X133985000Y-69021887D01*
X133435849Y-69131120D01*
X133061115Y-69381509D01*
X132169803Y-68490197D01*
X132127789Y-68462334D01*
X132080000Y-68453000D01*
X125984000Y-68453000D01*
X125934590Y-68463006D01*
X125894197Y-68490197D01*
X125793421Y-68590973D01*
X125752327Y-68549808D01*
X125408799Y-68407162D01*
X125036833Y-68406838D01*
X124693057Y-68548883D01*
X124429808Y-68811673D01*
X124303035Y-69116974D01*
X123825000Y-69021887D01*
X123275849Y-69131120D01*
X122810302Y-69442189D01*
X122499233Y-69907736D01*
X122390000Y-70456887D01*
X122390000Y-70513113D01*
X122499233Y-71062264D01*
X122810302Y-71527811D01*
X123275849Y-71838880D01*
X123825000Y-71948113D01*
X124333000Y-71847065D01*
X124333000Y-72644000D01*
X124343006Y-72693410D01*
X124370197Y-72733803D01*
X124462000Y-72825606D01*
X124462000Y-73091198D01*
X123922599Y-73630599D01*
X123757852Y-73877161D01*
X123700000Y-74168000D01*
X123700000Y-74367537D01*
X123667808Y-74399673D01*
X123525162Y-74743201D01*
X123524838Y-75115167D01*
X123666883Y-75458943D01*
X123929673Y-75722192D01*
X124273201Y-75864838D01*
X124645167Y-75865162D01*
X124988943Y-75723117D01*
X125252192Y-75460327D01*
X125394838Y-75116799D01*
X125395162Y-74744833D01*
X125267335Y-74435467D01*
X125669598Y-74033204D01*
X126365000Y-74728606D01*
X126365000Y-82804000D01*
X126375006Y-82853410D01*
X126402197Y-82893803D01*
X127889000Y-84380606D01*
X127889000Y-84783394D01*
X127455394Y-85217000D01*
X121920000Y-85217000D01*
X121870590Y-85227006D01*
X121830197Y-85254197D01*
X121322197Y-85762197D01*
X121294334Y-85804211D01*
X121285000Y-85852000D01*
X108331000Y-85852000D01*
X108320994Y-85802590D01*
X108293803Y-85762197D01*
X104229803Y-81698197D01*
X104187789Y-81670334D01*
X104140000Y-81661000D01*
X102668606Y-81661000D01*
X101219000Y-80211394D01*
X101219000Y-75042000D01*
X106398560Y-75042000D01*
X106398560Y-76342000D01*
X106442838Y-76577317D01*
X106581910Y-76793441D01*
X106794110Y-76938431D01*
X107046000Y-76989440D01*
X108346000Y-76989440D01*
X108581317Y-76945162D01*
X108797441Y-76806090D01*
X108942431Y-76593890D01*
X108993440Y-76342000D01*
X108993440Y-75550000D01*
X119352560Y-75550000D01*
X119352560Y-76850000D01*
X119396838Y-77085317D01*
X119535910Y-77301441D01*
X119748110Y-77446431D01*
X120000000Y-77497440D01*
X121300000Y-77497440D01*
X121535317Y-77453162D01*
X121751441Y-77314090D01*
X121896431Y-77101890D01*
X121947440Y-76850000D01*
X121947440Y-75550000D01*
X121903162Y-75314683D01*
X121764090Y-75098559D01*
X121551890Y-74953569D01*
X121300000Y-74902560D01*
X120000000Y-74902560D01*
X119764683Y-74946838D01*
X119548559Y-75085910D01*
X119403569Y-75298110D01*
X119352560Y-75550000D01*
X108993440Y-75550000D01*
X108993440Y-75042000D01*
X108949162Y-74806683D01*
X108810090Y-74590559D01*
X108597890Y-74445569D01*
X108346000Y-74394560D01*
X107046000Y-74394560D01*
X106810683Y-74438838D01*
X106594559Y-74577910D01*
X106449569Y-74790110D01*
X106398560Y-75042000D01*
X101219000Y-75042000D01*
X101219000Y-73324890D01*
X101531167Y-73325162D01*
X101874943Y-73183117D01*
X102138192Y-72920327D01*
X102280838Y-72576799D01*
X102281162Y-72204833D01*
X102139117Y-71861057D01*
X102106000Y-71827882D01*
X102106000Y-71755000D01*
X104140000Y-71755000D01*
X104189410Y-71744994D01*
X104229803Y-71717803D01*
X104737803Y-71209803D01*
X104765666Y-71167789D01*
X104775000Y-71120000D01*
X104775000Y-69648606D01*
X105245803Y-69177803D01*
X105273666Y-69135789D01*
X105282988Y-69086246D01*
X105272300Y-69036978D01*
X105243287Y-68995751D01*
X105200520Y-68969059D01*
X105156000Y-68961000D01*
X104700606Y-68961000D01*
X102743000Y-67003394D01*
X102743000Y-66040000D01*
X102732994Y-65990590D01*
X102704553Y-65948965D01*
X102662159Y-65921685D01*
X102612491Y-65913048D01*
X102563377Y-65924416D01*
X102526197Y-65950197D01*
X101575501Y-66900893D01*
X101532799Y-66883162D01*
X101160833Y-66882838D01*
X100817057Y-67024883D01*
X100553808Y-67287673D01*
X100411162Y-67631201D01*
X100410838Y-68003167D01*
X100457000Y-68114888D01*
X100457000Y-68792804D01*
X100012500Y-68704387D01*
X99463349Y-68813620D01*
X99161377Y-69015391D01*
X99149803Y-68998197D01*
X98641803Y-68490197D01*
X98599789Y-68462334D01*
X98552000Y-68453000D01*
X92121111Y-68453000D01*
X92121162Y-68394833D01*
X91979117Y-68051057D01*
X91716327Y-67787808D01*
X91372799Y-67645162D01*
X91000833Y-67644838D01*
X90657057Y-67786883D01*
X90393808Y-68049673D01*
X90251162Y-68393201D01*
X90251005Y-68573389D01*
X90075625Y-68748769D01*
X89852500Y-68704387D01*
X89303349Y-68813620D01*
X88837802Y-69124689D01*
X88526733Y-69590236D01*
X88417500Y-70139387D01*
X88417500Y-70195613D01*
X88526733Y-70744764D01*
X88837802Y-71210311D01*
X89303349Y-71521380D01*
X89789000Y-71617982D01*
X89789000Y-71628000D01*
X89799006Y-71677410D01*
X89826197Y-71717803D01*
X90304796Y-72196402D01*
X89886599Y-72614599D01*
X89721852Y-72861161D01*
X89664000Y-73152000D01*
X89664000Y-73605537D01*
X89631808Y-73637673D01*
X89489162Y-73981201D01*
X89488838Y-74353167D01*
X89630883Y-74696943D01*
X89893673Y-74960192D01*
X90237201Y-75102838D01*
X90609167Y-75103162D01*
X90952943Y-74961117D01*
X91216192Y-74698327D01*
X91358838Y-74354799D01*
X91359162Y-73982833D01*
X91217117Y-73639057D01*
X91184000Y-73605882D01*
X91184000Y-73466802D01*
X91379598Y-73271204D01*
X92837000Y-74728606D01*
X92837000Y-82804000D01*
X92847006Y-82853410D01*
X92874197Y-82893803D01*
X94361000Y-84380606D01*
X94361000Y-84783394D01*
X93927394Y-85217000D01*
X87884000Y-85217000D01*
X87834590Y-85227006D01*
X87794197Y-85254197D01*
X86778197Y-86270197D01*
X86750334Y-86312211D01*
X86741000Y-86360000D01*
X69723000Y-86360000D01*
X69723000Y-85344000D01*
X69712994Y-85294590D01*
X69685803Y-85254197D01*
X69177803Y-84746197D01*
X69135789Y-84718334D01*
X69088000Y-84709000D01*
X67616606Y-84709000D01*
X62103000Y-79195394D01*
X62103000Y-75232500D01*
X66965060Y-75232500D01*
X66965060Y-76532500D01*
X67009338Y-76767817D01*
X67148410Y-76983941D01*
X67360610Y-77128931D01*
X67612500Y-77179940D01*
X68912500Y-77179940D01*
X69147817Y-77135662D01*
X69363941Y-76996590D01*
X69508931Y-76784390D01*
X69559940Y-76532500D01*
X69559940Y-75232500D01*
X69524095Y-75042000D01*
X85570560Y-75042000D01*
X85570560Y-76342000D01*
X85614838Y-76577317D01*
X85753910Y-76793441D01*
X85966110Y-76938431D01*
X86218000Y-76989440D01*
X87518000Y-76989440D01*
X87753317Y-76945162D01*
X87969441Y-76806090D01*
X88114431Y-76593890D01*
X88165440Y-76342000D01*
X88165440Y-75042000D01*
X88121162Y-74806683D01*
X87982090Y-74590559D01*
X87769890Y-74445569D01*
X87518000Y-74394560D01*
X86218000Y-74394560D01*
X85982683Y-74438838D01*
X85766559Y-74577910D01*
X85621569Y-74790110D01*
X85570560Y-75042000D01*
X69524095Y-75042000D01*
X69515662Y-74997183D01*
X69376590Y-74781059D01*
X69164390Y-74636069D01*
X68912500Y-74585060D01*
X67612500Y-74585060D01*
X67377183Y-74629338D01*
X67161059Y-74768410D01*
X67016069Y-74980610D01*
X66965060Y-75232500D01*
X62103000Y-75232500D01*
X62103000Y-74260198D01*
X62297201Y-74340838D01*
X62669167Y-74341162D01*
X63012943Y-74199117D01*
X63276192Y-73936327D01*
X63418838Y-73592799D01*
X63419162Y-73220833D01*
X63277117Y-72877057D01*
X63244000Y-72843882D01*
X63244000Y-71755000D01*
X65532000Y-71755000D01*
X65581410Y-71744994D01*
X65623035Y-71716553D01*
X65650315Y-71674159D01*
X65659000Y-71628000D01*
X65659000Y-68326000D01*
X65648994Y-68276590D01*
X65621803Y-68236197D01*
X63589803Y-66204197D01*
X63556796Y-66180408D01*
X63048796Y-65926408D01*
X63000128Y-65913260D01*
X62950178Y-65920084D01*
X62902197Y-65950197D01*
X61886197Y-66966197D01*
X61858334Y-67008211D01*
X61849000Y-67056000D01*
X61849000Y-67384755D01*
X61691808Y-67541673D01*
X61549162Y-67885201D01*
X61548838Y-68257167D01*
X61690883Y-68600943D01*
X61724000Y-68634118D01*
X61724000Y-68793201D01*
X61277500Y-68704387D01*
X60728349Y-68813620D01*
X60505877Y-68962271D01*
X60033803Y-68490197D01*
X59991789Y-68462334D01*
X59944000Y-68453000D01*
X53258890Y-68453000D01*
X53259162Y-68140833D01*
X53117117Y-67797057D01*
X52854327Y-67533808D01*
X52510799Y-67391162D01*
X52138833Y-67390838D01*
X51795057Y-67532883D01*
X51531808Y-67795673D01*
X51389162Y-68139201D01*
X51388838Y-68511167D01*
X51500122Y-68780495D01*
X51117500Y-68704387D01*
X50568349Y-68813620D01*
X50102802Y-69124689D01*
X49791733Y-69590236D01*
X49682500Y-70139387D01*
X49682500Y-70195613D01*
X49791733Y-70744764D01*
X50102802Y-71210311D01*
X50568349Y-71521380D01*
X51117500Y-71630613D01*
X51564000Y-71541799D01*
X51564000Y-71567198D01*
X51024599Y-72106599D01*
X50859852Y-72353161D01*
X50802000Y-72644000D01*
X50802000Y-73859537D01*
X50769808Y-73891673D01*
X50627162Y-74235201D01*
X50626838Y-74607167D01*
X50768883Y-74950943D01*
X51031673Y-75214192D01*
X51375201Y-75356838D01*
X51747167Y-75357162D01*
X52090943Y-75215117D01*
X52354192Y-74952327D01*
X52496838Y-74608799D01*
X52497162Y-74236833D01*
X52355117Y-73893057D01*
X52322000Y-73859882D01*
X52322000Y-72958802D01*
X52390598Y-72890204D01*
X54229000Y-74728606D01*
X54229000Y-83312000D01*
X54239006Y-83361410D01*
X54266197Y-83401803D01*
X55245000Y-84380606D01*
X55245000Y-84783394D01*
X54811394Y-85217000D01*
X48260000Y-85217000D01*
X48210590Y-85227006D01*
X48170197Y-85254197D01*
X47662197Y-85762197D01*
X47634334Y-85804211D01*
X47625000Y-85852000D01*
X46355000Y-85852000D01*
X46344994Y-85802590D01*
X46317803Y-85762197D01*
X45809803Y-85254197D01*
X45767789Y-85226334D01*
X45720000Y-85217000D01*
X43232606Y-85217000D01*
X42799000Y-84783394D01*
X42799000Y-75232500D01*
X46645060Y-75232500D01*
X46645060Y-76532500D01*
X46689338Y-76767817D01*
X46828410Y-76983941D01*
X47040610Y-77128931D01*
X47292500Y-77179940D01*
X48592500Y-77179940D01*
X48827817Y-77135662D01*
X49043941Y-76996590D01*
X49188931Y-76784390D01*
X49239940Y-76532500D01*
X49239940Y-75232500D01*
X49195662Y-74997183D01*
X49056590Y-74781059D01*
X48844390Y-74636069D01*
X48592500Y-74585060D01*
X47292500Y-74585060D01*
X47057183Y-74629338D01*
X46841059Y-74768410D01*
X46696069Y-74980610D01*
X46645060Y-75232500D01*
X42799000Y-75232500D01*
X42799000Y-66092606D01*
X45264606Y-63627000D01*
X50157711Y-63627000D01*
X50568349Y-63901380D01*
X51117500Y-64010613D01*
X51666651Y-63901380D01*
X52077289Y-63627000D01*
X52697711Y-63627000D01*
X53108349Y-63901380D01*
X53657500Y-64010613D01*
X54206651Y-63901380D01*
X54617289Y-63627000D01*
X55237711Y-63627000D01*
X55648349Y-63901380D01*
X56197500Y-64010613D01*
X56746651Y-63901380D01*
X57157289Y-63627000D01*
X57777711Y-63627000D01*
X58188349Y-63901380D01*
X58737500Y-64010613D01*
X59286651Y-63901380D01*
X59697289Y-63627000D01*
X60317711Y-63627000D01*
X60728349Y-63901380D01*
X61277500Y-64010613D01*
X61826651Y-63901380D01*
X62237289Y-63627000D01*
X62857711Y-63627000D01*
X63268349Y-63901380D01*
X63817500Y-64010613D01*
X64366651Y-63901380D01*
X64832198Y-63590311D01*
X65143267Y-63124764D01*
X65252500Y-62575613D01*
X65252500Y-62519387D01*
X65197404Y-62242398D01*
X66227802Y-61212000D01*
X67890394Y-61212000D01*
X67945000Y-61266606D01*
G36*
X64897000Y-70559394D02*
X64481698Y-70974696D01*
X63244000Y-70562130D01*
X63244000Y-68707000D01*
X64897000Y-68707000D01*
X64897000Y-70559394D01*
X64897000Y-70559394D01*
G37*
X64897000Y-70559394D02*
X64481698Y-70974696D01*
X63244000Y-70562130D01*
X63244000Y-68707000D01*
X64897000Y-68707000D01*
X64897000Y-70559394D01*
G36*
X103505000Y-68886606D02*
X103505000Y-70559394D01*
X103071394Y-70993000D01*
X102160606Y-70993000D01*
X102106000Y-70938394D01*
X102106000Y-68707000D01*
X103325394Y-68707000D01*
X103505000Y-68886606D01*
X103505000Y-68886606D01*
G37*
X103505000Y-68886606D02*
X103505000Y-70559394D01*
X103071394Y-70993000D01*
X102160606Y-70993000D01*
X102106000Y-70938394D01*
X102106000Y-68707000D01*
X103325394Y-68707000D01*
X103505000Y-68886606D01*
G36*
X52122800Y-107928406D02*
X52122800Y-109855000D01*
X50598606Y-109855000D01*
X50471606Y-109728000D01*
X50635803Y-109563803D01*
X50663666Y-109521789D01*
X50673000Y-109474000D01*
X50673000Y-108256606D01*
X51106606Y-107823000D01*
X52017394Y-107823000D01*
X52122800Y-107928406D01*
X52122800Y-107928406D01*
G37*
X52122800Y-107928406D02*
X52122800Y-109855000D01*
X50598606Y-109855000D01*
X50471606Y-109728000D01*
X50635803Y-109563803D01*
X50663666Y-109521789D01*
X50673000Y-109474000D01*
X50673000Y-108256606D01*
X51106606Y-107823000D01*
X52017394Y-107823000D01*
X52122800Y-107928406D01*
G36*
X91188000Y-108131606D02*
X91188000Y-110109000D01*
X90222606Y-110109000D01*
X89789000Y-109675394D01*
X89789000Y-108510606D01*
X90222606Y-108077000D01*
X91133394Y-108077000D01*
X91188000Y-108131606D01*
X91188000Y-108131606D01*
G37*
X91188000Y-108131606D02*
X91188000Y-110109000D01*
X90222606Y-110109000D01*
X89789000Y-109675394D01*
X89789000Y-108510606D01*
X90222606Y-108077000D01*
X91133394Y-108077000D01*
X91188000Y-108131606D01*
G36*
X127002000Y-108385606D02*
X127002000Y-110308394D01*
X126947394Y-110363000D01*
X125782606Y-110363000D01*
X125603000Y-110183394D01*
X125603000Y-108764606D01*
X126036606Y-108331000D01*
X126947394Y-108331000D01*
X127002000Y-108385606D01*
X127002000Y-108385606D01*
G37*
X127002000Y-108385606D02*
X127002000Y-110308394D01*
X126947394Y-110363000D01*
X125782606Y-110363000D01*
X125603000Y-110183394D01*
X125603000Y-108764606D01*
X126036606Y-108331000D01*
X126947394Y-108331000D01*
X127002000Y-108385606D01*
G36*
X163070000Y-107877606D02*
X163070000Y-109601000D01*
X162104606Y-109601000D01*
X161671000Y-109167394D01*
X161671000Y-108256606D01*
X162104606Y-107823000D01*
X163015394Y-107823000D01*
X163070000Y-107877606D01*
X163070000Y-107877606D01*
G37*
X163070000Y-107877606D02*
X163070000Y-109601000D01*
X162104606Y-109601000D01*
X161671000Y-109167394D01*
X161671000Y-108256606D01*
X162104606Y-107823000D01*
X163015394Y-107823000D01*
X163070000Y-107877606D01*
G36*
X174625000Y-68632606D02*
X174625000Y-70559394D01*
X174191394Y-70993000D01*
X173280606Y-70993000D01*
X173226000Y-70938394D01*
X173226000Y-68634463D01*
X173258192Y-68602327D01*
X173320198Y-68453000D01*
X174445394Y-68453000D01*
X174625000Y-68632606D01*
X174625000Y-68632606D01*
G37*
X174625000Y-68632606D02*
X174625000Y-70559394D01*
X174191394Y-70993000D01*
X173280606Y-70993000D01*
X173226000Y-70938394D01*
X173226000Y-68634463D01*
X173258192Y-68602327D01*
X173320198Y-68453000D01*
X174445394Y-68453000D01*
X174625000Y-68632606D01*
G36*
X137541000Y-69140606D02*
X137541000Y-71067394D01*
X137107394Y-71501000D01*
X136196606Y-71501000D01*
X136142000Y-71446394D01*
X136142000Y-69142463D01*
X136174192Y-69110327D01*
X136316838Y-68766799D01*
X136316890Y-68707000D01*
X137107394Y-68707000D01*
X137541000Y-69140606D01*
X137541000Y-69140606D01*
G37*
X137541000Y-69140606D02*
X137541000Y-71067394D01*
X137107394Y-71501000D01*
X136196606Y-71501000D01*
X136142000Y-71446394D01*
X136142000Y-69142463D01*
X136174192Y-69110327D01*
X136316838Y-68766799D01*
X136316890Y-68707000D01*
X137107394Y-68707000D01*
X137541000Y-69140606D01*
G36*
X185218000Y-58397606D02*
X185218000Y-64538394D01*
X183843394Y-65913000D01*
X180592000Y-65913000D01*
X180592000Y-61522463D01*
X180624192Y-61490327D01*
X180766838Y-61146799D01*
X180767162Y-60774833D01*
X180625117Y-60431057D01*
X180362327Y-60167808D01*
X180018799Y-60025162D01*
X179646833Y-60024838D01*
X179303057Y-60166883D01*
X179039808Y-60429673D01*
X178897162Y-60773201D01*
X178897083Y-60864414D01*
X178863789Y-60842334D01*
X178816000Y-60833000D01*
X173032802Y-60833000D01*
X172241401Y-60041599D01*
X171994839Y-59876852D01*
X171704000Y-59819000D01*
X100851327Y-59819000D01*
X100747839Y-59749852D01*
X100457000Y-59692000D01*
X91440000Y-59692000D01*
X91149161Y-59749852D01*
X90902599Y-59914599D01*
X89984198Y-60833000D01*
X78740000Y-60833000D01*
X78690590Y-60843006D01*
X78650197Y-60870197D01*
X77732894Y-61787500D01*
X72514302Y-61787500D01*
X70641401Y-59914599D01*
X70394839Y-59749852D01*
X70104000Y-59692000D01*
X47244000Y-59692000D01*
X46953161Y-59749852D01*
X46852667Y-59817000D01*
X46228000Y-59817000D01*
X46178590Y-59827006D01*
X46138197Y-59854197D01*
X41566197Y-64426197D01*
X41538334Y-64468211D01*
X41529000Y-64516000D01*
X41529000Y-65092198D01*
X41118599Y-65502599D01*
X40953852Y-65749161D01*
X40896000Y-66040000D01*
X40896000Y-114300000D01*
X40953852Y-114590839D01*
X41118599Y-114837401D01*
X45182599Y-118901401D01*
X45429161Y-119066148D01*
X45720000Y-119124000D01*
X82997198Y-119124000D01*
X83282599Y-119409401D01*
X83529161Y-119574148D01*
X83820000Y-119632000D01*
X88773000Y-119632000D01*
X89063839Y-119574148D01*
X89072292Y-119568500D01*
X154571894Y-119568500D01*
X153363394Y-120777000D01*
X41708606Y-120777000D01*
X39318000Y-118386394D01*
X39318000Y-58905606D01*
X40692606Y-57531000D01*
X184351394Y-57531000D01*
X185218000Y-58397606D01*
X185218000Y-58397606D01*
G37*
X185218000Y-58397606D02*
X185218000Y-64538394D01*
X183843394Y-65913000D01*
X180592000Y-65913000D01*
X180592000Y-61522463D01*
X180624192Y-61490327D01*
X180766838Y-61146799D01*
X180767162Y-60774833D01*
X180625117Y-60431057D01*
X180362327Y-60167808D01*
X180018799Y-60025162D01*
X179646833Y-60024838D01*
X179303057Y-60166883D01*
X179039808Y-60429673D01*
X178897162Y-60773201D01*
X178897083Y-60864414D01*
X178863789Y-60842334D01*
X178816000Y-60833000D01*
X173032802Y-60833000D01*
X172241401Y-60041599D01*
X171994839Y-59876852D01*
X171704000Y-59819000D01*
X100851327Y-59819000D01*
X100747839Y-59749852D01*
X100457000Y-59692000D01*
X91440000Y-59692000D01*
X91149161Y-59749852D01*
X90902599Y-59914599D01*
X89984198Y-60833000D01*
X78740000Y-60833000D01*
X78690590Y-60843006D01*
X78650197Y-60870197D01*
X77732894Y-61787500D01*
X72514302Y-61787500D01*
X70641401Y-59914599D01*
X70394839Y-59749852D01*
X70104000Y-59692000D01*
X47244000Y-59692000D01*
X46953161Y-59749852D01*
X46852667Y-59817000D01*
X46228000Y-59817000D01*
X46178590Y-59827006D01*
X46138197Y-59854197D01*
X41566197Y-64426197D01*
X41538334Y-64468211D01*
X41529000Y-64516000D01*
X41529000Y-65092198D01*
X41118599Y-65502599D01*
X40953852Y-65749161D01*
X40896000Y-66040000D01*
X40896000Y-114300000D01*
X40953852Y-114590839D01*
X41118599Y-114837401D01*
X45182599Y-118901401D01*
X45429161Y-119066148D01*
X45720000Y-119124000D01*
X82997198Y-119124000D01*
X83282599Y-119409401D01*
X83529161Y-119574148D01*
X83820000Y-119632000D01*
X88773000Y-119632000D01*
X89063839Y-119574148D01*
X89072292Y-119568500D01*
X154571894Y-119568500D01*
X153363394Y-120777000D01*
X41708606Y-120777000D01*
X39318000Y-118386394D01*
X39318000Y-58905606D01*
X40692606Y-57531000D01*
X184351394Y-57531000D01*
X185218000Y-58397606D01*
G36*
X119128000Y-114681000D02*
X118872000Y-114681000D01*
X118822590Y-114691006D01*
X118782197Y-114718197D01*
X117766197Y-115734197D01*
X117738334Y-115776211D01*
X117729000Y-115824000D01*
X117729000Y-117856000D01*
X117739006Y-117905410D01*
X117766197Y-117945803D01*
X117868894Y-118048500D01*
X111747106Y-118048500D01*
X116892606Y-112903000D01*
X119128000Y-112903000D01*
X119128000Y-114681000D01*
X119128000Y-114681000D01*
G37*
X119128000Y-114681000D02*
X118872000Y-114681000D01*
X118822590Y-114691006D01*
X118782197Y-114718197D01*
X117766197Y-115734197D01*
X117738334Y-115776211D01*
X117729000Y-115824000D01*
X117729000Y-117856000D01*
X117739006Y-117905410D01*
X117766197Y-117945803D01*
X117868894Y-118048500D01*
X111747106Y-118048500D01*
X116892606Y-112903000D01*
X119128000Y-112903000D01*
X119128000Y-114681000D01*
G36*
X155704000Y-116785537D02*
X155671808Y-116817673D01*
X155529162Y-117161201D01*
X155528838Y-117533167D01*
X155670883Y-117876943D01*
X155842141Y-118048500D01*
X148831106Y-118048500D01*
X153976606Y-112903000D01*
X155704000Y-112903000D01*
X155704000Y-116785537D01*
X155704000Y-116785537D01*
G37*
X155704000Y-116785537D02*
X155671808Y-116817673D01*
X155529162Y-117161201D01*
X155528838Y-117533167D01*
X155670883Y-117876943D01*
X155842141Y-118048500D01*
X148831106Y-118048500D01*
X153976606Y-112903000D01*
X155704000Y-112903000D01*
X155704000Y-116785537D01*
G36*
X84076000Y-114935000D02*
X84074000Y-114935000D01*
X84024590Y-114945006D01*
X83984197Y-114972197D01*
X82714197Y-116242197D01*
X82686334Y-116284211D01*
X82677000Y-116332000D01*
X82677000Y-117348000D01*
X82687006Y-117397410D01*
X82714197Y-117437803D01*
X82880394Y-117604000D01*
X76123606Y-117604000D01*
X80316606Y-113411000D01*
X82550000Y-113411000D01*
X82599410Y-113400994D01*
X82639803Y-113373803D01*
X82856606Y-113157000D01*
X84076000Y-113157000D01*
X84076000Y-114935000D01*
X84076000Y-114935000D01*
G37*
X84076000Y-114935000D02*
X84074000Y-114935000D01*
X84024590Y-114945006D01*
X83984197Y-114972197D01*
X82714197Y-116242197D01*
X82686334Y-116284211D01*
X82677000Y-116332000D01*
X82677000Y-117348000D01*
X82687006Y-117397410D01*
X82714197Y-117437803D01*
X82880394Y-117604000D01*
X76123606Y-117604000D01*
X80316606Y-113411000D01*
X82550000Y-113411000D01*
X82599410Y-113400994D01*
X82639803Y-113373803D01*
X82856606Y-113157000D01*
X84076000Y-113157000D01*
X84076000Y-114935000D01*
G36*
X45518800Y-114681000D02*
X45212000Y-114681000D01*
X45162590Y-114691006D01*
X45122197Y-114718197D01*
X44135598Y-115704796D01*
X42416000Y-113985198D01*
X42416000Y-112903000D01*
X45518800Y-112903000D01*
X45518800Y-114681000D01*
X45518800Y-114681000D01*
G37*
X45518800Y-114681000D02*
X45212000Y-114681000D01*
X45162590Y-114691006D01*
X45122197Y-114718197D01*
X44135598Y-115704796D01*
X42416000Y-113985198D01*
X42416000Y-112903000D01*
X45518800Y-112903000D01*
X45518800Y-114681000D01*
G36*
X144727394Y-66421000D02*
X142746000Y-66421000D01*
X142746000Y-64643000D01*
X143256000Y-64643000D01*
X143305410Y-64632994D01*
X143347035Y-64604553D01*
X143374315Y-64562159D01*
X143383000Y-64516000D01*
X143383000Y-61976000D01*
X143372994Y-61926590D01*
X143345803Y-61886197D01*
X142798606Y-61339000D01*
X149809394Y-61339000D01*
X144727394Y-66421000D01*
X144727394Y-66421000D01*
G37*
X144727394Y-66421000D02*
X142746000Y-66421000D01*
X142746000Y-64643000D01*
X143256000Y-64643000D01*
X143305410Y-64632994D01*
X143347035Y-64604553D01*
X143374315Y-64562159D01*
X143383000Y-64516000D01*
X143383000Y-61976000D01*
X143372994Y-61926590D01*
X143345803Y-61886197D01*
X142798606Y-61339000D01*
X149809394Y-61339000D01*
X144727394Y-66421000D01*
G36*
X71662099Y-63084901D02*
X71908661Y-63249648D01*
X72199500Y-63307500D01*
X76212894Y-63307500D01*
X73607394Y-65913000D01*
X71628000Y-65913000D01*
X71578590Y-65923006D01*
X71538197Y-65950197D01*
X71148571Y-66339823D01*
X71059224Y-66302723D01*
X70548019Y-66302277D01*
X70356000Y-66381618D01*
X70356000Y-64135000D01*
X70612000Y-64135000D01*
X70661410Y-64124994D01*
X70703035Y-64096553D01*
X70730315Y-64054159D01*
X70739000Y-64008000D01*
X70739000Y-62161802D01*
X71662099Y-63084901D01*
X71662099Y-63084901D01*
G37*
X71662099Y-63084901D02*
X71908661Y-63249648D01*
X72199500Y-63307500D01*
X76212894Y-63307500D01*
X73607394Y-65913000D01*
X71628000Y-65913000D01*
X71578590Y-65923006D01*
X71538197Y-65950197D01*
X71148571Y-66339823D01*
X71059224Y-66302723D01*
X70548019Y-66302277D01*
X70356000Y-66381618D01*
X70356000Y-64135000D01*
X70612000Y-64135000D01*
X70661410Y-64124994D01*
X70703035Y-64096553D01*
X70730315Y-64054159D01*
X70739000Y-64008000D01*
X70739000Y-62161802D01*
X71662099Y-63084901D01*
G36*
X111199394Y-65913000D02*
X109472000Y-65913000D01*
X109472000Y-64135000D01*
X110236000Y-64135000D01*
X110285410Y-64124994D01*
X110327035Y-64096553D01*
X110354315Y-64054159D01*
X110363000Y-64008000D01*
X110363000Y-61468000D01*
X110352994Y-61418590D01*
X110325803Y-61378197D01*
X110286606Y-61339000D01*
X115773394Y-61339000D01*
X111199394Y-65913000D01*
X111199394Y-65913000D01*
G37*
X111199394Y-65913000D02*
X109472000Y-65913000D01*
X109472000Y-64135000D01*
X110236000Y-64135000D01*
X110285410Y-64124994D01*
X110327035Y-64096553D01*
X110354315Y-64054159D01*
X110363000Y-64008000D01*
X110363000Y-61468000D01*
X110352994Y-61418590D01*
X110325803Y-61378197D01*
X110286606Y-61339000D01*
X115773394Y-61339000D01*
X111199394Y-65913000D01*
M02*
